<?xml version="1.0" encoding="UTF-8" standalone="no"?>
<!-- Created with Inkscape (http://www.inkscape.org/) -->

<svg
   xmlns:dc="http://purl.org/dc/elements/1.1/"
   xmlns:cc="http://creativecommons.org/ns#"
   xmlns:rdf="http://www.w3.org/1999/02/22-rdf-syntax-ns#"
   xmlns:svg="http://www.w3.org/2000/svg"
   xmlns="http://www.w3.org/2000/svg"
   version="1.1"
   width="55"
   height="55"
   viewBox="0 0 55 55"
   id="svg2"
   xml:space="preserve"><metadata
     id="metadata25"><rdf:RDF><cc:Work
         rdf:about=""><dc:format>image/svg+xml</dc:format><dc:type
           rdf:resource="http://purl.org/dc/dcmitype/StillImage" /><dc:title></dc:title></cc:Work></rdf:RDF></metadata><defs
     id="defs33" /><circle
     cx="29.207001"
     cy="25.863001"
     r="1.294"
     transform="matrix(3.09119,0,0,3.09119,-62.784389,-70.447446)"
     id="circle3892"
     style="fill:#ffffff;fill-opacity:1;stroke:none;display:inline" /><circle
     cx="29.207001"
     cy="25.863001"
     r="1.294"
     transform="matrix(3.09119,0,0,3.09119,-44.784392,-70.447446)"
     id="circle3892-5"
     style="fill:#ffffff;fill-opacity:1;stroke:none;display:inline" /><circle
     cx="29.207001"
     cy="25.863001"
     r="1.294"
     transform="matrix(4.636785,0,0,4.636785,-125.92658,-110.42117)"
     id="circle3892-1"
     style="fill:#ffffff;fill-opacity:1;stroke:none;display:inline" /><circle
     cx="29.207001"
     cy="25.863001"
     r="1.294"
     transform="matrix(3.09119,0,0,3.09119,-62.784389,-52.44745)"
     id="circle3892-4"
     style="fill:#ffffff;fill-opacity:1;stroke:none;display:inline" /><circle
     cx="29.207001"
     cy="25.863001"
     r="1.294"
     transform="matrix(3.09119,0,0,3.09119,-44.784392,-52.44745)"
     id="circle3892-5-6"
     style="fill:#ffffff;fill-opacity:1;stroke:none;display:inline" /><circle
     cx="29.207001"
     cy="25.863001"
     r="1.294"
     transform="matrix(3.09119,0,0,3.09119,-80.784389,-52.44745)"
     id="circle3892-1-0"
     style="fill:#ffffff;fill-opacity:1;stroke:none;display:inline" /><circle
     cx="29.207001"
     cy="25.863001"
     r="1.294"
     transform="matrix(3.09119,0,0,3.09119,-62.784389,-34.44745)"
     id="circle3892-0"
     style="fill:#ffffff;fill-opacity:1;stroke:none;display:inline" /><circle
     cx="29.207001"
     cy="25.863001"
     r="1.294"
     transform="matrix(3.09119,0,0,3.09119,-44.784392,-34.44745)"
     id="circle3892-5-9"
     style="fill:#ffffff;fill-opacity:1;stroke:none;display:inline" /><circle
     cx="29.207001"
     cy="25.863001"
     r="1.294"
     transform="matrix(3.09119,0,0,3.09119,-80.784389,-34.44745)"
     id="circle3892-1-7"
     style="fill:#ffffff;fill-opacity:1;stroke:none;display:inline" /><g
     transform="matrix(0,-1,-1,0,49.8706,91.832381)"
     id="g4770"><g
       transform="translate(34.0803,-1006.42)"
       id="g4772"><polyline
         transform="matrix(-0.469241,0.469241,-0.469241,-0.469241,66.2906,1019.03)"
         style="fill:none;stroke:#ffffff;stroke-width:3.5;stroke-linecap:round;stroke-linejoin:round"
         points="51.562,15.306 41.17,16.188 42.053,5.794"
         id="polyline4774" /><path
         d="m 39.363241,1033.1291 -0.05636,9.9115"
         id="path4776"
         style="fill:none;stroke:#ffffff;stroke-width:2.5;stroke-linecap:round;stroke-linejoin:round;stroke-miterlimit:4;stroke-opacity:1;stroke-dasharray:none" /></g></g></svg>