<?xml version="1.0" encoding="UTF-8" standalone="no"?>
<!-- Created with Inkscape (http://www.inkscape.org/) -->

<svg
   xmlns:dc="http://purl.org/dc/elements/1.1/"
   xmlns:cc="http://creativecommons.org/ns#"
   xmlns:rdf="http://www.w3.org/1999/02/22-rdf-syntax-ns#"
   xmlns:svg="http://www.w3.org/2000/svg"
   xmlns="http://www.w3.org/2000/svg"
   version="1.1"
   width="55.125"
   height="55"
   viewBox="0 0 55.125 55"
   id="svg2"
   xml:space="preserve"><metadata
     id="metadata11"><rdf:RDF><cc:Work
         rdf:about=""><dc:format>image/svg+xml</dc:format><dc:type
           rdf:resource="http://purl.org/dc/dcmitype/StillImage" /><dc:title></dc:title></cc:Work></rdf:RDF></metadata><defs
     id="defs9" /><g
     id="dialog-ok"
     style="fill:#c0c0c0;fill-opacity:1;display:block"><path
       d="M 27.498,5 C 15.071,5 5,15.071 5,27.498 5,39.923 15.071,50 27.498,50 39.927,50 50,39.923 50,27.498 50,15.071 39.927,5 27.498,5 z M 41.419,19.886 24.706,40.208 13.789,29.29 c -1.258,-1.254 -1.258,-3.292 -0.003,-4.546 1.254,-1.255 3.292,-1.255 4.547,0 L 24.241,30.648 36.452,15.8 c 1.127,-1.368 3.153,-1.568 4.525,-0.438 1.37,1.127 1.569,3.153 0.442,4.524 z"
       id="path5"
       style="fill:#c0c0c0;fill-opacity:1;display:inline" /></g></svg>