<?xml version="1.0" encoding="UTF-8" standalone="no"?>
<!-- Created with Inkscape (http://www.inkscape.org/) -->

<svg
   xmlns:dc="http://purl.org/dc/elements/1.1/"
   xmlns:cc="http://creativecommons.org/ns#"
   xmlns:rdf="http://www.w3.org/1999/02/22-rdf-syntax-ns#"
   xmlns:svg="http://www.w3.org/2000/svg"
   xmlns="http://www.w3.org/2000/svg"
   version="1.1"
   width="100"
   height="100"
   id="svg2">
  <metadata
     id="metadata8">
    <rdf:RDF>
      <cc:Work
         rdf:about="">
        <dc:format>image/svg+xml</dc:format>
        <dc:type
           rdf:resource="http://purl.org/dc/dcmitype/StillImage" />
        <dc:title></dc:title>
      </cc:Work>
    </rdf:RDF>
  </metadata>
  <defs
     id="defs6" />
  <path
     d="M 8.7945207,90.762885 C 0.68174278,82.29748 0.20324975,81.005076 0.06905075,67.195472 -0.00978925,59.082439 0.98759178,57.009195 4.5469637,57.88729 6.6806667,58.413673 17.752447,49.670555 19.436428,46.129439 c 0.750034,-1.577191 1.563486,-1.851975 4,-1.3512 4.252346,0.873981 38.759616,-4.357933 40.168742,-6.090294 1.640203,-2.016445 5.075142,-1.676008 5.660127,0.560976 0.710489,2.716914 10.223806,7.415183 12.523053,6.184663 3.258523,-1.743909 5.206577,0.468625 5.206577,5.913453 0,4.471006 0.279045,5.068929 3.029368,6.491177 1.666152,0.8616 3.491728,1.280792 4.056835,0.931537 0.565107,-0.349256 2.126892,-0.359073 3.470632,-0.02182 2.335936,0.586282 2.439912,0.952503 2.369042,8.344143 -0.04077,4.252021 -0.378268,9.727232 -0.75,12.167135 -0.659826,4.330834 -0.794619,4.467023 -5.675877,5.734665 -5.585344,1.450489 -7.5,1.14692 -7.5,-1.189127 0,-3.626385 -3.044622,-7.414811 -6.883309,-8.56491 -3.17974,-0.952673 -6.196299,-0.785996 -16.879264,0.932646 -20.380884,3.278812 -29.636664,7.770151 -32.234508,15.641695 -1.020677,3.092681 -1.620212,3.494164 -6.811056,4.561068 -3.130525,0.643434 -6.007046,1.357672 -6.39227,1.587195 -0.385223,0.229529 -3.985223,-3.010274 -7.9999993,-7.199556 z M 27.779569,89.89634 c 2.226589,-4.886829 7.367674,-9.486604 12.928368,-11.567126 6.713819,-2.511962 26.390048,-6.006187 33.821263,-6.006187 7.605961,0 10.134145,1.264001 12.574379,6.286738 1.877108,3.863655 2.420972,4.289144 4.998808,3.910798 2.582598,-0.379045 2.892242,-0.814193 2.889761,-4.061035 -0.0026,-3.416355 -0.434969,-3.912091 -7.141951,-8.188867 l -7.139172,-4.552366 -21.608049,3.944263 -21.608049,3.944264 -8.25,7.480999 c -6.621113,6.003945 -8.25,8.038787 -8.25,10.306083 0,2.674483 0.152577,2.771895 2.862164,1.827328 1.57419,-0.548765 3.339306,-2.044967 3.922478,-3.324892 z m -15.03169,-7.153694 c -0.200975,-0.200975 -2.08327,0.108914 -4.1828783,0.688644 l -3.81747,1.054054 3.873699,3.976938 3.8736973,3.976937 0.309181,-4.665582 c 0.17005,-2.56607 0.144747,-4.830016 -0.05623,-5.030991 z m 0.07875,-6.523495 c 0.401751,-4.103563 1.789678,-5.978643 3.842333,-5.190966 0.840296,0.322452 1.819895,0.159473 2.176887,-0.362177 0.356994,-0.521649 3.461578,-2.902423 6.899078,-5.290608 6.501722,-4.517038 7.596355,-6.052373 4.3151,-6.052373 -3.746391,0 -6.708506,1.856196 -14.34953,8.992071 -6.1535613,5.746747 -7.7155693,7.786316 -7.7155693,10.074486 0,2.553229 0.247638,2.778121 2.2500003,2.043328 1.613044,-0.591928 2.343902,-1.784807 2.581704,-4.213761 z m 9.168298,1.358987 c 0,-1.219951 -0.280049,-1.26758 -1.5,-0.255111 -0.825,0.684689 -1.5,1.919889 -1.5,2.744889 0,1.219951 0.280049,1.26758 1.5,0.255111 0.825,-0.684689 1.5,-1.919889 1.5,-2.744889 z m 6,-3.3621 c 0,-1.437624 -1.735116,-1.02567 -2.342084,0.556061 -0.371656,0.968522 -0.07551,1.264668 0.893012,0.893012 0.796989,-0.305834 1.449072,-0.957917 1.449072,-1.449073 z m 4,-6.011045 c 0,-0.55 -0.45,-0.721885 -1,-0.381966 -0.55,0.339919 -1,1.068034 -1,1.618034 0,0.55 0.45,0.721885 1,0.381966 0.55,-0.339919 1,-1.068034 1,-1.618034 z m 16.399607,-2.269189 c -0.908921,-2.963213 -0.813406,-2.927771 -5.853412,-2.171975 -4.472923,0.670756 -5.237717,1.593544 -3.998072,4.824008 0.445609,1.161238 1.478718,1.244384 5.523834,0.444564 4.425587,-0.875047 4.904061,-1.217414 4.32765,-3.096597 z m 46.600393,1.387223 c 0,-2.292453 -2.510773,-2.717288 -3.336834,-0.564608 -0.495342,1.290841 0.521902,2.268299 2.586834,2.485661 0.4125,0.04342 0.75,-0.821053 0.75,-1.921053 z M 8.9949277,64.76401 c 0,-0.792541 -0.45,-1.440983 -1,-1.440983 -0.55,0 -1,0.926558 -1,2.059017 0,1.132459 0.45,1.780902 1,1.440983 0.55,-0.339919 1,-1.266476 1,-2.059017 z m 80.9999993,0.0942 c 0,-2.220822 -4.026161,-4.103356 -5.108116,-2.388429 -0.604,0.957355 -0.05484,1.705736 1.877174,2.558141 1.502018,0.662693 2.843442,1.225193 2.980942,1.25 0.1375,0.02481 0.25,-0.614063 0.25,-1.419712 z m -34.8125,-0.218297 c -0.721875,-0.288871 -1.584375,-0.253344 -1.916667,0.07895 -0.332291,0.332292 0.258334,0.568641 1.3125,0.52522 1.164943,-0.04798 1.4019,-0.284941 0.604167,-0.604167 z m 7.8125,-1.285501 c 0,-0.532739 -0.675,-0.709594 -1.5,-0.393011 -0.825,0.316582 -1.5,0.752459 -1.5,0.968615 0,0.216156 0.675,0.393011 1.5,0.393011 0.825,0 1.5,-0.435877 1.5,-0.968615 z m 14.25,-0.715271 c 0.4125,-0.238781 0.75,-1.357671 0.75,-2.486422 0,-1.819604 -0.425145,-1.979093 -3.75,-1.406784 -8.751575,1.506415 -9.25,1.707321 -9.25,3.728504 0,1.839778 0.440731,1.93909 5.75,1.295675 3.1625,-0.383254 6.0875,-0.892192 6.5,-1.130973 z m -61.47894,-2.129294 c 0.243583,-0.73075 -0.213586,-0.954237 -1.1875,-0.580511 -0.870958,0.334218 -1.58356,1.047024 -1.58356,1.584013 0,1.314392 2.272781,0.491335 2.77106,-1.003502 z m 41.22894,-4.542027 c 7.425,-1.211795 12.959178,-2.540768 12.298172,-2.953273 -0.977326,-0.609908 -27.22842,3.466033 -30.798172,4.781954 -2.845129,1.048803 6.573283,0.117815 18.5,-1.828681 z m -38,-0.70381 c 0,-0.582459 -0.45,-0.780902 -1,-0.440983 -0.55,0.339919 -1,0.816476 -1,1.059017 0,0.242541 0.45,0.440983 1,0.440983 0.55,0 1,-0.476558 1,-1.059017 z m 16.870096,-0.487956 c 0.203553,-0.197937 0.100043,-1.435866 -0.230023,-2.750953 -0.556997,-2.219253 -0.925597,-2.341672 -5.129682,-1.703651 -5.430451,0.824136 -5.596176,0.957531 -4.829926,3.887676 0.55311,2.115097 0.969397,2.243953 5.210337,1.612787 2.535059,-0.377285 4.775741,-0.847921 4.979294,-1.045859 z m 7.629904,-3.453027 c 0.782182,-1.265597 -0.541628,-1.265597 -2.5,0 -1.292687,0.835399 -1.266292,0.971491 0.190983,0.984687 0.930041,0.0084 1.969098,-0.434687 2.309017,-0.984687 z m 32.917402,0.133647 c 0.294489,-0.476494 -0.31814,-1.638828 -1.361398,-2.582964 -1.799344,-1.628383 -1.952132,-1.613286 -2.97274,0.293737 -0.872234,1.629783 -0.745322,2.096787 0.670415,2.466963 2.838997,0.742319 3.103013,0.72951 3.663723,-0.177736 z M 50.494927,50.323027 c 0.782182,-1.265597 -0.541628,-1.265597 -2.5,0 -1.292687,0.835399 -1.266292,0.971491 0.190983,0.984687 0.930041,0.0084 1.969098,-0.434687 2.309017,-0.984687 z m 12.130508,-0.546676 c 1.17178,-0.237296 2.367151,-1.336369 2.656381,-2.442385 0.43029,-1.645435 0.04305,-2.006602 -2.130509,-1.987082 -3.053728,0.02742 -10.052791,1.539221 -10.859142,2.345572 -0.299373,0.299373 -0.269598,1.260216 0.06617,2.135205 0.599457,1.56216 2.342712,1.553448 10.267103,-0.05131 z"
     id="path3091"
     style="fill:#000000" />
</svg>
