<?xml version="1.0" encoding="UTF-8" standalone="no"?>
<!-- Created with Inkscape (http://www.inkscape.org/) -->

<svg
   xmlns:dc="http://purl.org/dc/elements/1.1/"
   xmlns:cc="http://creativecommons.org/ns#"
   xmlns:rdf="http://www.w3.org/1999/02/22-rdf-syntax-ns#"
   xmlns:svg="http://www.w3.org/2000/svg"
   xmlns="http://www.w3.org/2000/svg"
   version="1.1"
   width="100"
   height="100"
   viewBox="0 0 100 100"
   id="Layer_1"
   xml:space="preserve"><metadata
   id="metadata22408"><rdf:RDF><cc:Work
       rdf:about=""><dc:format>image/svg+xml</dc:format><dc:type
         rdf:resource="http://purl.org/dc/dcmitype/StillImage" /><dc:title></dc:title></cc:Work></rdf:RDF></metadata><defs
   id="defs22406" />







<g
   id="g22410"
   style="fill:#000000;fill-opacity:1"><path
     d="m 62.475,35.858 c -1.089,-1.089 -2.855,-1.089 -3.944,0 L 4.19,90.197 c -1.089,1.09 -1.089,2.855 0,3.944 1.089,1.09 2.854,1.09 3.944,0 l 6.872,-6.872 7.57,-7.57 39.897,-39.897 c 1.091,-1.089 1.091,-2.855 0.002,-3.944 z m -3.154,0.648 c 0.691,-0.692 1.813,-0.691 2.505,0 0.691,0.691 0.692,1.813 0,2.505 l -4.808,4.808 c -0.691,0.691 -1.813,0.691 -2.505,0 -0.692,-0.691 -0.692,-1.813 -10e-4,-2.504 l 4.809,-4.809 z M 7.609,93.229 C 6.918,93.919 5.796,93.919 5.105,93.228 4.414,92.537 4.413,91.415 5.104,90.723 l 4.809,-4.809 c 0.111,-0.111 0.237,-0.198 0.366,-0.273 0.074,0.595 0.328,1.172 0.785,1.629 0.457,0.456 1.033,0.709 1.628,0.783 -0.076,0.13 -0.163,0.255 -0.274,0.366 l -4.809,4.81 z"
     id="path22388"
     style="fill:#000000;fill-opacity:1" /><polygon
     points="70.609,30.337 60.629,30.337 68.704,24.471 65.619,33.963 62.535,24.471 "
     id="polygon22390"
     style="fill:#000000;fill-opacity:1" /><polyline
     id="polyline22392"
     points="58.484,23.954 54.628,12.083 64.726,19.418 52.244,19.418 62.342,12.083 58.484,23.954 "
     style="fill:#000000;fill-opacity:1" /><polyline
     id="polyline22394"
     points="72.276,49.441 68.884,38.999 77.766,45.452 66.787,45.452 75.668,38.999 72.276,49.441 "
     style="fill:#000000;fill-opacity:1" /><polyline
     id="polyline22396"
     points="89.796,40.56 87.317,32.931 93.807,37.646 85.785,37.646 92.275,32.931 89.796,40.56 "
     style="fill:#000000;fill-opacity:1" /><polyline
     id="polyline22398"
     points="70.944,13.791 69.124,8.187 73.891,11.65 67.999,11.65 72.767,8.187 70.944,13.791 "
     style="fill:#000000;fill-opacity:1" /><polyline
     id="polyline22400"
     points="85.785,26.329 82.199,15.291 91.588,22.112 79.982,22.112 89.372,15.291 85.785,26.329 "
     style="fill:#000000;fill-opacity:1" /><polyline
     id="polyline22402"
     points="76.836,32.931 75.016,27.327 79.782,30.79 73.891,30.79 78.658,27.327 76.836,32.931 "
     style="fill:#000000;fill-opacity:1" /></g>
</svg>