<?xml version="1.0" encoding="UTF-8" standalone="no"?>
<!-- Created with Inkscape (http://www.inkscape.org/) -->

<svg
   xmlns:dc="http://purl.org/dc/elements/1.1/"
   xmlns:cc="http://creativecommons.org/ns#"
   xmlns:rdf="http://www.w3.org/1999/02/22-rdf-syntax-ns#"
   xmlns:svg="http://www.w3.org/2000/svg"
   xmlns="http://www.w3.org/2000/svg"
   version="1.0"
   width="100"
   height="100"
   viewBox="0 0 100 99.999997"
   id="Layer_1"
   xml:space="preserve"><metadata
   id="metadata14475"><rdf:RDF><cc:Work
       rdf:about=""><dc:format>image/svg+xml</dc:format><dc:type
         rdf:resource="http://purl.org/dc/dcmitype/StillImage" /><dc:title></dc:title></cc:Work></rdf:RDF></metadata><defs
   id="defs14473" />
<path
   d="m 87.838,25.328998 c -1.454,-3.438 -16.457,-8.989 -21.414,13.153 l -26.173,19.63 -39.153,23.443 1.961,0.679 5.202,-1.518 -8.261,4.879 2.709,0.938 28.024,-8.328 c 0,0 12.643,1.727 22.494,1.734 -0.464,0.929 -0.928,1.857 -1.393,2.786 -0.469,0.939 3.497,10.33 4.962,14.802 -2.47,0.375 -4.941,0.751 -7.411,1.126 -0.883,0.134 -0.506,1.471002 0.369,1.338 2.602,-0.395 5.203,-0.79 7.804,-1.185 2.601,0.395 5.203,0.79 7.803,1.185 0.875,0.133002 1.252,-1.204 0.369,-1.338 -2.491,-0.379 -4.983,-0.757 -7.475,-1.136 -0.113,-0.385 -0.227,-0.77 -0.341,-1.154 -0.442,-1.498 -0.884,-2.995 -1.327,-4.493 -0.827,-2.798 -1.652,-5.596 -2.479,-8.394 -0.006,-0.02 -0.012,-0.032 -0.017,-0.049 0.3,-0.602 9.757,-4.912 9.757,-4.912 0,0 -0.004,0 -0.005,-0.001 34.357,-12.367 15.433,-40.718 22.674,-45.121 3.045,-1.851 13.483,-4.627 13.483,-4.627 0,-3.159 -12.162,-3.437 -12.162,-3.437 z"
   id="path14469"
   style="fill:#000000;fill-opacity:1" />
</svg>