<?xml version="1.0" encoding="UTF-8" standalone="no"?>
<!-- Created with Inkscape (http://www.inkscape.org/) -->

<svg
   xmlns:dc="http://purl.org/dc/elements/1.1/"
   xmlns:cc="http://creativecommons.org/ns#"
   xmlns:rdf="http://www.w3.org/1999/02/22-rdf-syntax-ns#"
   xmlns:svg="http://www.w3.org/2000/svg"
   xmlns="http://www.w3.org/2000/svg"
   version="1.0"
   width="100"
   height="100"
   viewBox="0 0 100 100"
   id="Layer_1"
   xml:space="preserve"><metadata
   id="metadata7997"><rdf:RDF><cc:Work
       rdf:about=""><dc:format>image/svg+xml</dc:format><dc:type
         rdf:resource="http://purl.org/dc/dcmitype/StillImage" /><dc:title></dc:title></cc:Work></rdf:RDF></metadata><defs
   id="defs7995" />





<g
   transform="translate(3.5255,0)"
   id="g8507"><path
     d="M 8.319,74.501 H 0 V 90.883 C 0,95.903 4.512,100 10.055,100 h 72.832 c 5.543,0 10.062,-4.097 10.062,-9.116 V 74.501 h -8.326 v 14.644 c 0,1.836 -1.65,3.33 -3.68,3.33 H 11.991 c -2.036,0 -3.672,-1.494 -3.672,-3.33 V 74.501 z"
     id="path7981"
     style="fill:#000000;fill-opacity:1" /><polygon
     points="74.466,72.545 18.404,53.817 18.404,66.736 74.466,85.455 "
     id="polygon7983"
     style="fill:#000000;fill-opacity:1" /><path
     d="M 31.336,53.833 C 29.405,51.657 16.59,36.842 29.521,24.024 40.298,13.332 41.87,4.354 38.241,0 c 0,0 27.433,11.274 11.297,37.422 -2.762,4.439 -9.661,9.683 -6.054,20.492 L 31.336,53.833 z"
     id="path7985"
     style="fill:#000000;fill-opacity:1" /><path
     d="m 48.182,57.381 c -0.589,-2.194 -3.221,-6.971 4.804,-16.473 4.289,-5.064 5.902,-12.573 6.29,-15.398 0,0 14.209,8.146 0.072,28.079 l -11.166,3.792 z"
     id="path7987"
     style="fill:#000000;fill-opacity:1" /><polygon
     points="74.466,52.669 74.466,65.579 70.521,66.878 51.201,60.438 "
     id="polygon7989"
     style="fill:#000000;fill-opacity:1" /><polygon
     points="18.404,86.593 18.404,73.683 22.362,72.393 41.676,78.839 "
     id="polygon7991"
     style="fill:#000000;fill-opacity:1" /></g>
</svg>