<?xml version="1.0" encoding="UTF-8" standalone="no"?>
<!-- Created with Inkscape (http://www.inkscape.org/) -->

<svg
   xmlns:dc="http://purl.org/dc/elements/1.1/"
   xmlns:cc="http://creativecommons.org/ns#"
   xmlns:rdf="http://www.w3.org/1999/02/22-rdf-syntax-ns#"
   xmlns:svg="http://www.w3.org/2000/svg"
   xmlns="http://www.w3.org/2000/svg"
   version="1.1"
   width="100"
   height="100"
   viewBox="0 0 99.999998 100"
   id="Layer_1"
   xml:space="preserve"><metadata
   id="metadata6224"><rdf:RDF><cc:Work
       rdf:about=""><dc:format>image/svg+xml</dc:format><dc:type
         rdf:resource="http://purl.org/dc/dcmitype/StillImage" /><dc:title></dc:title></cc:Work></rdf:RDF></metadata><defs
   id="defs6222" />


<g
   transform="translate(7.7861548,0)"
   id="g6734"><path
     d="M 4.944,81 H 18.975 L 14.165,40.175 14.132,39.936 C 13.513,35.915 15.07,29.314 19.944,23.633 23.715,19.238 30.639,14 42.214,14 c 11.575,0 18.499,5.238 22.27,9.633 4.874,5.681 6.431,12.281 5.812,16.303 L 70.264,40.175 65.453,81 H 79.484 L 84.152,41.935 C 85.468,33.056 82.011,22.563 75.109,14.517 67.078,5.155 55.395,0 42.214,0 29.033,0 17.35,5.155 9.319,14.517 2.417,22.563 -1.041,33.056 0.276,41.935 L 4.944,81 z"
     id="path6214"
     style="fill:#000000;fill-opacity:1" /><polygon
     points="21.214,100 19.682,87 5.661,87 7.214,100 "
     id="polygon6216"
     style="fill:#000000;fill-opacity:1" /><polygon
     points="77.214,100 78.768,87 64.746,87 63.214,100 "
     id="polygon6218"
     style="fill:#000000;fill-opacity:1" /></g>
</svg>