<?xml version="1.0" encoding="UTF-8" standalone="no"?>
<!-- Created with Inkscape (http://www.inkscape.org/) -->

<svg
   xmlns:dc="http://purl.org/dc/elements/1.1/"
   xmlns:cc="http://creativecommons.org/ns#"
   xmlns:rdf="http://www.w3.org/1999/02/22-rdf-syntax-ns#"
   xmlns:svg="http://www.w3.org/2000/svg"
   xmlns="http://www.w3.org/2000/svg"
   version="1.1"
   width="100"
   height="100"
   viewBox="0 0 102 102"
   id="Layer_1"
   xml:space="preserve"><metadata
   id="metadata21216"><rdf:RDF><cc:Work
       rdf:about=""><dc:format>image/svg+xml</dc:format><dc:type
         rdf:resource="http://purl.org/dc/dcmitype/StillImage" /><dc:title></dc:title></cc:Work></rdf:RDF></metadata><defs
   id="defs21214" />
<path
   d="M 101,51 66.343,43.368 79.988,22.012 58.631,35.656 51,1 43.368,35.656 22.012,22.012 35.656,43.368 1,51 35.656,58.631 22.012,79.987 43.368,66.342 51,101 58.631,66.343 79.987,79.988 66.343,58.631 101,51 l 0,0 z m -28.058,-21.942 0,0 -8.829,13.819 -4.09,-0.901 12.919,-12.918 0,0 z m -43.885,-0.001 13.82,8.829 -0.901,4.09 -12.919,-12.919 0,0 z m 0.001,43.885 8.828,-13.82 4.09,0.901 -12.918,12.919 0,0 z m 29.167,-14.717 0,0 L 51,51 V 91.029 L 43.775,58.224 51,51 H 10.971 L 43.775,43.775 51,51 V 10.971 L 58.225,43.775 51,51 h 40.029 m -18.086,21.943 -13.821,-8.83 0.901,-4.09 12.92,12.92 0,0 z"
   id="path21210"
   style="fill:#000000;fill-opacity:1" />
</svg>