<?xml version="1.0" encoding="UTF-8" standalone="no"?>
<!-- Created with Inkscape (http://www.inkscape.org/) -->

<svg
   xmlns:dc="http://purl.org/dc/elements/1.1/"
   xmlns:cc="http://creativecommons.org/ns#"
   xmlns:rdf="http://www.w3.org/1999/02/22-rdf-syntax-ns#"
   xmlns:svg="http://www.w3.org/2000/svg"
   xmlns="http://www.w3.org/2000/svg"
   version="1.1"
   width="100"
   height="100"
   viewBox="0 0 100 100"
   id="Layer_1"
   xml:space="preserve"><metadata
   id="metadata19252"><rdf:RDF><cc:Work
       rdf:about=""><dc:format>image/svg+xml</dc:format><dc:type
         rdf:resource="http://purl.org/dc/dcmitype/StillImage" /><dc:title></dc:title></cc:Work></rdf:RDF></metadata><defs
   id="defs19250" />
<path
   d="M 50,0 C 29.06,0 13.593,13.957 13.593,34.899 13.592,55.84 38.673,100 50,100 61.327,100 86.409,55.84 86.409,34.899 86.408,13.957 70.941,0 50,0 z M 45.053,71.292 C 44.136,72.21 36.34,69.917 30.12,63.696 23.9,57.478 21.199,50.092 22.527,48.765 c 1.327,-1.329 9.702,0.384 15.923,6.604 6.219,6.22 7.52,15.003 6.603,15.923 z m 9.892,0 c -0.916,-0.92 0.385,-9.703 6.605,-15.923 6.219,-6.22 14.594,-7.933 15.92,-6.604 1.33,1.327 -1.371,8.713 -7.592,14.931 -6.218,6.221 -14.015,8.514 -14.933,7.596 z"
   id="path19246"
   style="fill:#000000;fill-opacity:1" />
</svg>