<?xml version="1.0" encoding="UTF-8" standalone="no"?>
<!-- Created with Inkscape (http://www.inkscape.org/) -->

<svg
   xmlns:dc="http://purl.org/dc/elements/1.1/"
   xmlns:cc="http://creativecommons.org/ns#"
   xmlns:rdf="http://www.w3.org/1999/02/22-rdf-syntax-ns#"
   xmlns:svg="http://www.w3.org/2000/svg"
   xmlns="http://www.w3.org/2000/svg"
   version="1.1"
   width="100"
   height="100"
   viewBox="0 0 100 100"
   id="Layer_1"
   xml:space="preserve"><metadata
   id="metadata32607"><rdf:RDF><cc:Work
       rdf:about=""><dc:format>image/svg+xml</dc:format><dc:type
         rdf:resource="http://purl.org/dc/dcmitype/StillImage" /><dc:title></dc:title></cc:Work></rdf:RDF></metadata><defs
   id="defs32605" />
<path
   d="m 50.921,3.992 c -25.682,0 -46.5,20.818 -46.5,46.5 0,25.682 20.819,46.501 46.5,46.501 25.681,0 46.5,-20.819 46.5,-46.501 0,-25.682 -20.818,-46.5 -46.5,-46.5 z M 63.89,29.931 c 2.796,0 5.062,2.56 5.062,5.719 0,3.16 -2.267,5.721 -5.062,5.721 -2.795,0 -5.06,-2.561 -5.06,-5.721 0,-3.159 2.265,-5.719 5.06,-5.719 z m -27.204,0 c 2.795,0 5.061,2.56 5.061,5.719 0,3.16 -2.266,5.721 -5.061,5.721 -2.795,0 -5.061,-2.561 -5.061,-5.721 0,-3.159 2.266,-5.719 5.061,-5.719 z m 13.682,52.138 c -14.708,0 -27.052,-9.233 -30.242,-21.584 -0.121,-0.467 2.918,-1.416 2.918,-1.416 2.619,10.977 13.875,19.253 27.324,19.253 13.45,0 24.706,-8.276 27.325,-19.253 0,0 3.049,0.906 2.935,1.353 -3.165,12.383 -15.527,21.647 -30.26,21.647 z"
   id="path32601"
   style="fill:#000000;fill-opacity:1" />
</svg>