<?xml version="1.0" encoding="UTF-8" standalone="no"?>
<!-- Created with Inkscape (http://www.inkscape.org/) -->

<svg
   xmlns:dc="http://purl.org/dc/elements/1.1/"
   xmlns:cc="http://creativecommons.org/ns#"
   xmlns:rdf="http://www.w3.org/1999/02/22-rdf-syntax-ns#"
   xmlns:svg="http://www.w3.org/2000/svg"
   xmlns="http://www.w3.org/2000/svg"
   version="1.1"
   width="100"
   height="100"
   viewBox="0 0 199 199"
   id="Layer_1"
   xml:space="preserve"><metadata
   id="metadata28321"><rdf:RDF><cc:Work
       rdf:about=""><dc:format>image/svg+xml</dc:format><dc:type
         rdf:resource="http://purl.org/dc/dcmitype/StillImage" /><dc:title></dc:title></cc:Work></rdf:RDF></metadata><defs
   id="defs28319" />
<g
   transform="translate(14.87,0)"
   id="g28313"
   style="fill:#000000;fill-opacity:1">
	<path
   d="m 84.637,21.91 c -30.471,0 -55.258,24.787 -55.258,55.254 0,17.248 8.643,29.395 16.266,40.111 5.869,8.246 10.938,15.369 10.938,23.129 0,34.639 17.576,39.811 28.055,39.811 10.479,0 28.059,-5.176 28.059,-39.84 0,-7.846 5.143,-15.17 11.094,-23.654 7.541,-10.746 16.09,-22.924 16.09,-39.557 C 139.879,46.697 115.098,21.91 84.637,21.91 z m -2.295,74.535 c 0.889,0.715 1.867,1.348 2.941,1.867 5.361,2.605 11.502,0.5 16.074,-2.037 l -7.346,44.109 -15.336,0.008 -10.648,-43.89 c 4.014,1.086 9.397,1.785 14.315,-0.057 z m -0.153,-17.83 c 0.754,-0.709 1.311,-0.945 1.564,-0.945 0.033,0 0.061,0.004 0.082,0.008 0.418,0.137 1.189,1.139 1.523,2.861 0.402,2.068 0.123,5.059 -1.777,7.299 -0.934,-1.648 -1.537,-3.455 -1.787,-5.088 -0.376,-2.461 0.114,-3.871 0.395,-4.135 z m 23.795,66.196 c -0.115,2.172 -0.318,4.352 -0.645,6.5 l -38.857,9.623 c -0.764,-1.859 -1.383,-3.834 -1.852,-5.891 l 41.354,-10.232 z m -5.533,20.589 -24.91,6.162 c -2.332,-1.205 -4.252,-2.875 -5.82,-4.904 l 34.049,-8.424 c -0.825,2.612 -1.907,5.041 -3.319,7.166 z M 118.4,112.938 c -6.322,9.004 -12.293,17.512 -12.293,27.438 v 0.004 l -5.416,0.002 9.965,-59.854 -6.943,6.121 c -2.5,2.199 -10.645,7.945 -15.424,5.803 3.084,-3.439 4.463,-8.404 3.537,-13.166 -0.771,-3.977 -3.004,-6.92 -5.973,-7.877 -1.562,-0.494 -4.713,-0.857 -8.186,2.416 -2.168,2.045 -3.037,5.664 -2.383,9.924 0.332,2.162 1.125,4.699 2.455,7.113 -5.998,0.877 -12.787,-2.467 -12.871,-2.51 l -6.387,-3.26 13.414,55.305 -8.729,0.004 c 0,-9.859 -5.904,-18.16 -12.156,-26.945 -7.396,-10.395 -15.047,-21.148 -15.047,-36.291 0,-26.834 21.834,-48.666 48.672,-48.666 26.83,0 48.656,21.832 48.656,48.666 0.002,14.554 -7.572,25.341 -14.891,35.773 z"
   id="path28315"
   style="fill:#000000;fill-opacity:1" />
</g>
</svg>