<?xml version="1.0" encoding="UTF-8" standalone="no"?>
<!-- Created with Inkscape (http://www.inkscape.org/) -->

<svg
   xmlns:dc="http://purl.org/dc/elements/1.1/"
   xmlns:cc="http://creativecommons.org/ns#"
   xmlns:rdf="http://www.w3.org/1999/02/22-rdf-syntax-ns#"
   xmlns:svg="http://www.w3.org/2000/svg"
   xmlns="http://www.w3.org/2000/svg"
   version="1.0"
   width="100"
   height="100"
   viewBox="0 0 99.999999 100"
   id="Layer_1"
   xml:space="preserve"><metadata
   id="metadata5637"><rdf:RDF><cc:Work
       rdf:about=""><dc:format>image/svg+xml</dc:format><dc:type
         rdf:resource="http://purl.org/dc/dcmitype/StillImage" /><dc:title></dc:title></cc:Work></rdf:RDF></metadata><defs
   id="defs5635" />
<path
   d="m 61.8965,100 c -27.57,0 -50,-22.43 -50,-50 0,-27.57 22.43,-50 50,-50 4.801,0 9.575,0.691 14.188,2.054 L 88.103499,5.606 76.0845,9.158 C 58.1245,14.465 45.5805,31.26 45.5805,50 c 0,18.739 12.543999,35.533 30.503,40.84 l 12.015,3.549 -12.014,3.555 C 71.4705,99.308 66.6975,100 61.8965,100 l 0,0 z m 0,-92.593 c -23.486001,0 -42.592,19.108 -42.592,42.593 0,23.485 19.106,42.593 42.592,42.593 0.043,0 0.086,0 0.13,0 C 47.5385,83.635 38.1735,67.543 38.1735,50 c 0,-17.542 9.365,-33.633 23.851,-42.593 -0.044,0 -0.086,0 -0.128,0 l 0,0 z"
   id="path5631"
   style="fill:#000000;fill-opacity:1" />
</svg>