<?xml version="1.0" encoding="UTF-8" standalone="no"?>
<!-- Created with Inkscape (http://www.inkscape.org/) -->

<svg
   xmlns:dc="http://purl.org/dc/elements/1.1/"
   xmlns:cc="http://creativecommons.org/ns#"
   xmlns:rdf="http://www.w3.org/1999/02/22-rdf-syntax-ns#"
   xmlns:svg="http://www.w3.org/2000/svg"
   xmlns="http://www.w3.org/2000/svg"
   version="1.1"
   width="100"
   height="100"
   viewBox="0 0 100 100"
   id="Layer_1"
   xml:space="preserve"><metadata
   id="metadata21799"><rdf:RDF><cc:Work
       rdf:about=""><dc:format>image/svg+xml</dc:format><dc:type
         rdf:resource="http://purl.org/dc/dcmitype/StillImage" /><dc:title></dc:title></cc:Work></rdf:RDF></metadata><defs
   id="defs21797" />
<g
   id="g21791"
   style="fill:#000000;fill-opacity:1">
	<path
   d="m 66.633,14.192 c 0.004,-0.093 0.043,-0.163 0.043,-0.252 V 5.233 c 0,-2.077 -2.215,-3.758 -4.252,-3.758 -2.047,0 -4.428,1.681 -4.428,3.758 v 8.352 H 36.894 c -6.366,0 -11.531,5.161 -11.531,11.525 V 87 c 0,6.363 5.165,11.525 11.531,11.525 h 26.214 c 6.363,0 11.529,-5.162 11.529,-11.525 V 25.11 c 0,-5.133 -3.373,-9.424 -8.004,-10.918 z M 39.806,83 h -4.25 c -1.249,0 -2.26,-1.013 -2.26,-2.264 0,-1.256 1.011,-2.271 2.26,-2.271 h 4.25 c 1.253,0 2.269,1.015 2.269,2.271 0,1.251 -1.016,2.264 -2.269,2.264 z m -4.25,-13.533 h 4.25 c 1.253,0 2.269,1.013 2.269,2.265 0,1.25 -1.016,2.26 -2.269,2.26 h -4.25 c -1.249,0 -2.26,-1.01 -2.26,-2.26 0,-1.252 1.012,-2.265 2.26,-2.265 z m -2.26,-6.616 c 0,-1.255 1.011,-2.264 2.26,-2.264 h 4.25 c 1.253,0 2.269,1.009 2.269,2.264 0,1.246 -1.016,2.26 -2.269,2.26 h -4.25 c -1.248,0 -2.26,-1.014 -2.26,-2.26 z M 57.584,92.079 H 43.786 c -0.946,0 -1.71,-0.763 -1.71,-1.706 0,-0.949 0.764,-1.711 1.71,-1.711 h 13.799 c 0.945,0 1.713,0.762 1.713,1.711 -0.001,0.943 -0.768,1.706 -1.714,1.706 z M 48.16,69.467 h 4.247 c 1.252,0 2.266,1.013 2.266,2.265 0,1.25 -1.014,2.26 -2.266,2.26 H 48.16 c -1.255,0 -2.27,-1.01 -2.27,-2.26 0,-1.252 1.014,-2.265 2.27,-2.265 z m -2.27,-6.616 c 0,-1.255 1.015,-2.264 2.27,-2.264 h 4.247 c 1.252,0 2.266,1.009 2.266,2.264 0,1.246 -1.014,2.26 -2.266,2.26 H 48.16 c -1.256,0 -2.27,-1.014 -2.27,-2.26 z m 2.27,15.614 h 4.247 c 1.252,0 2.266,1.015 2.266,2.271 0,1.251 -1.014,2.264 -2.266,2.264 H 48.16 c -1.255,0 -2.27,-1.013 -2.27,-2.264 0,-1.256 1.014,-2.271 2.27,-2.271 z M 65.11,83 H 60.862 C 59.61,83 58.6,81.987 58.6,80.736 c 0,-1.256 1.01,-2.271 2.262,-2.271 h 4.248 c 1.262,0 2.27,1.015 2.27,2.271 C 67.379,81.987 66.372,83 65.11,83 z m 0,-9.008 h -4.248 c -1.252,0 -2.262,-1.01 -2.262,-2.26 0,-1.252 1.01,-2.265 2.262,-2.265 h 4.248 c 1.262,0 2.27,1.013 2.27,2.265 -10e-4,1.25 -1.008,2.26 -2.27,2.26 z m 0,-8.881 h -4.248 c -1.252,0 -2.262,-1.014 -2.262,-2.26 0,-1.255 1.01,-2.264 2.262,-2.264 h 4.248 c 1.262,0 2.27,1.009 2.27,2.264 -10e-4,1.246 -1.008,2.26 -2.27,2.26 z m 3.574,-16.134 c 0,3.283 -2.654,5.943 -5.943,5.943 H 37.826 c -3.281,0 -5.948,-2.66 -5.948,-5.943 V 25.229 c 0,-3.288 2.667,-5.949 5.948,-5.949 h 24.915 c 3.289,0 5.943,2.661 5.943,5.949 v 23.748 z"
   id="path21793"
   style="fill:#000000;fill-opacity:1" />
</g>
</svg>