<?xml version="1.0" encoding="UTF-8" standalone="no"?>
<!-- Created with Inkscape (http://www.inkscape.org/) -->

<svg
   xmlns:dc="http://purl.org/dc/elements/1.1/"
   xmlns:cc="http://creativecommons.org/ns#"
   xmlns:rdf="http://www.w3.org/1999/02/22-rdf-syntax-ns#"
   xmlns:svg="http://www.w3.org/2000/svg"
   xmlns="http://www.w3.org/2000/svg"
   version="1.1"
   width="100"
   height="100"
   viewBox="0 0 99.999996 100"
   id="svg31106"
   xml:space="preserve"><metadata
   id="metadata31556"><rdf:RDF><cc:Work
       rdf:about=""><dc:format>image/svg+xml</dc:format><dc:type
         rdf:resource="http://purl.org/dc/dcmitype/StillImage" /><dc:title></dc:title></cc:Work></rdf:RDF></metadata><defs
   id="defs31554" />
<g
   id="Layer_1"
   style="display:none">
	<path
   d="M 67.877,44.72 C 71.281,41.862 73.45,37.578 73.45,32.781 73.45,24.175 66.476,17.2 57.87,17.2 c -0.315,0 -0.623,0.028 -0.937,0.048 C 53.838,7.197 45.659,0 36.019,0 23.725,0 13.76,11.686 13.76,26.104 c 0,0.038 0.004,0.077 0.004,0.114 C 6.017,27.119 0,33.696 0,41.685 c 0,6.488 3.965,12.044 9.604,14.39 -0.958,2.021 -1.509,4.271 -1.509,6.656 0,8.605 6.976,15.58 15.581,15.58 1.926,0 3.761,-0.365 5.464,-1.004 V 100 H 42.089 V 77.182 c 3.506,-1.248 6.643,-3.48 9.182,-6.424 2.008,0.941 4.24,1.482 6.603,1.482 8.606,0 15.58,-6.977 15.58,-15.582 -0.002,-4.795 -2.171,-9.079 -5.577,-11.938 z"
   id="path31109"
   style="display:inline" />
</g>
<g
   id="Layer_2"
   style="display:none">
	<g
   id="g31112"
   style="display:inline">
		<path
   d="m 67.095,29.433 h -5.768 c -3.221,0 -5.447,-1.501 -6.955,-3.236 1.031,-0.384 1.811,-0.699 2.219,-0.916 7.393,-3.773 14.793,-8.089 14.793,-18.7 V 0.578 H 50.482 c 0,0 -0.367,2.746 -0.588,3.771 C 43.845,7.356 37.289,4.094 31.195,3.79 16.884,3.077 8.761,18.73 9.426,33.375 c 0.877,19.311 0.162,20.352 1.603,40.153 0.778,10.685 5.92,19.444 10.201,22.266 4.281,2.821 7.163,4.189 11.849,3.413 -1.773,-3.721 -7.176,-5.677 -10.327,-9.49 -5.846,-7.07 -4.941,-10.685 -5.511,-23.22 -0.598,-13.155 -1.063,-14.187 -0.28,-24.191 0.144,-1.827 0.623,-3.76 1.539,-4.609 2.689,2.608 7.755,4.855 17.709,4.855 h 1.81 3.957 5.537 c 0,0 -2.375,-2.791 -5.537,-2.791 0,0 -10.517,-0.432 -10.517,-2.014 0.938,-1.149 2.364,-3.07 3.689,-5.273 3.617,-1.12 7.369,-2.3 10.726,-3.388 3.018,1.804 7.785,3.139 15.453,3.139 h 1.813 3.955 5.537 c 0.002,-0.001 -2.371,-2.792 -5.537,-2.792 z M 60.767,4.183 c 2.227,-0.095 4.504,0.45 5.537,1.815 -1.461,3.346 -1.129,9.552 -5.537,9.611 -4.41,-0.06 -4.078,-6.266 -5.539,-9.611 1.033,-1.364 3.311,-1.909 5.539,-1.815 z"
   id="path31114" />
		<ellipse
   cx="63.202"
   cy="7.302"
   rx="1.187"
   ry="1.582"
   transform="matrix(-0.4188,-0.9081,0.9081,-0.4188,83.0382,67.7521)"
   id="ellipse31116" />
		<ellipse
   cx="58.330002"
   cy="7.3010001"
   rx="1.5829999"
   ry="1.187"
   transform="matrix(-0.9081,-0.4187,0.4187,-0.9081,108.2422,38.3549)"
   id="ellipse31118" />
	</g>
</g>
<g
   id="Layer_3"
   style="display:none">
	<g
   id="g31121"
   style="display:inline">
		<path
   d="m 37.744,0.001 -7.732,15.081 c -0.878,1.639 -2.449,1.487 -4.023,0.572 l -5.6,-3.032 4.174,23.165 c 0.877,4.232 -1.938,4.232 -3.328,2.403 L 11.464,26.752 9.877,32.561 c -0.182,0.762 -0.986,1.563 -2.193,1.373 l -12.357,-2.717 3.246,12.337 c 0.694,2.745 1.237,3.883 -0.701,4.606 l -4.404,2.164 21.27,18.063 c 0.842,0.684 1.268,1.912 0.968,3.024 L 13.844,77.8 c 7.324,-0.884 13.89,-1.674 21.214,-2.555 0.65,-0.009 1.729,0.569 1.725,1.354 L 35.81,100 h 3.561 L 38.812,76.649 c -0.006,-0.784 0.973,-1.412 1.625,-1.403 7.322,0.881 13.889,1.671 21.213,2.555 L 59.789,71.412 C 59.49,70.3 59.914,69.069 60.756,68.388 L 82.027,50.325 77.623,48.161 C 75.685,47.437 76.227,46.3 76.922,43.555 l 3.246,-12.337 -12.355,2.717 c -1.207,0.19 -2.012,-0.61 -2.195,-1.373 L 64.032,26.753 54.259,38.19 c -1.391,1.83 -4.205,1.83 -3.326,-2.403 l 4.172,-23.165 -5.6,3.032 C 47.933,16.57 46.36,16.721 45.484,15.082 L 37.744,0.001 z"
   id="maple_leaf_2_" />
	</g>
</g>
<g
   id="Layer_4"
   style="display:none">
	<g
   id="g31125"
   style="display:inline">
		<path
   d="m 38.289,80.05 c 6.271,4.254 18.051,9.862 33.955,9.347 0,0 -8.674,-8.548 -22.039,-11.988 C 71.682,77.545 87.822,65.392 87.822,65.392 70.967,62.569 57.267,65.705 48.211,69.205 70.879,53.865 78.109,28.729 78.109,28.729 61.486,37.089 50.836,48.34 44.248,57.792 45.994,43.877 45.531,25.189 37.543,4.259 c 0,0 -11.814,23.842 -7.982,52.74 C 22.934,47.717 12.417,36.857 -3.743,28.73 c 0,0 6.931,24.095 28.498,39.5 -8.987,-3.061 -21.662,-5.396 -36.932,-2.839 0,0 15.671,11.8 36.682,12.013 -13.373,3.439 -22.05,11.992 -22.05,11.992 16.064,0.523 27.635,-5.241 33.697,-9.272 0,0 -1.232,11.031 2.361,18.1 l 1.674,-0.313 c 0,-0.001 -3.469,-10.281 -1.898,-17.861 z"
   id="path31127" />
	</g>
</g>
<g
   id="Layer_5"
   style="display:none">
	<g
   id="g31130"
   style="display:inline">
		<polygon
   points="56.906,29 36.359,0 15.178,29 24.085,29 4.905,58 13.813,58 -1.368,87 31.257,87 31.257,100 41.257,100 41.257,87 73.453,87 58.273,58 67.179,58 48,29 "
   id="polygon31132" />
	</g>
</g>
<g
   id="Layer_6"
   style="display:none">
	<g
   id="g31135"
   style="display:inline">
		<path
   d="m 39.723,27.226 c 4.104,0 7.445,-3.376 7.445,-7.538 0,-4.151 -3.342,-7.53 -7.445,-7.53 -4.119,0 -7.447,3.379 -7.447,7.53 -0.001,4.162 3.327,7.538 7.447,7.538"
   id="path5106" />
		<path
   d="M 59.957,92.966 48.968,59.247 V 32.264 c 0,-3.537 -3.499,-3.379 -3.499,-3.379 H 34.243 31.284 c 0,0 -0.596,-0.089 -1.823,0.923 l -8.267,4.878 -8.616,-8.734 C 11.171,24.269 8.686,24.019 7.01,25.441 5.322,26.863 5.233,29.442 6.639,31.149 L 17.64,42.282 c 0.741,0.795 1.777,1.34 2.947,1.34 0.854,0 1.642,-0.272 2.306,-0.729 l 7.245,-4.037 V 58.644 L 19.045,92.898 c -0.809,2.979 0.944,6.038 3.904,6.845 2.947,0.797 5.985,-0.979 6.771,-3.955 l 9.685,-29.568 9.868,29.635 c 0.798,2.991 3.822,4.766 6.771,3.945 2.947,-0.795 4.7,-3.856 3.913,-6.834"
   id="path5108" />
		<path
   d="m 4.682,34.947 c 0.383,0.386 1.013,0.397 1.405,0 l 0.135,-0.114 c 0.371,-0.397 0.394,-1.034 0,-1.422 L 4.074,31.171 C 3.679,30.774 3.039,30.774 2.645,31.16 L 2.532,31.285 C 2.138,31.683 2.116,32.321 2.51,32.706 l 2.172,2.241 z"
   id="path5110" />
		<path
   d="m 25.289,9.68 -12.711,13.883 1.529,1.591 14.185,-12.36 9.427,-8.779 c 0.371,-0.434 0.618,-0.977 0.618,-1.581 0,-1.329 -1.058,-2.422 -2.352,-2.435 -0.641,-0.012 -1.191,0.238 -1.63,0.614 L 25.289,9.68 z"
   id="path5112" />
	</g>
</g>
<g
   id="Boardwalk"
   style="display:none">
	<g
   id="g31142"
   style="display:inline">
		<path
   d="m 41.404,12.147 c 3.361,0.278 6.279,-2.222 6.557,-5.579 0.256,-3.356 -2.244,-6.272 -5.605,-6.551 -3.334,-0.255 -6.275,2.245 -6.529,5.603 -0.281,3.334 2.219,6.274 5.577,6.527 z"
   id="path31144" />
		<path
   d="m 36.242,14.648 c 1.203,-0.833 2.662,-1.389 4.283,-1.25 2.082,0.162 3.801,1.458 4.844,3.033 l 6.135,12.177 8.379,5.765 c 0.719,0.555 1.158,1.435 1.064,2.406 -0.115,1.506 -1.436,2.64 -2.939,2.5 -0.463,-0.022 -0.832,-0.208 -1.25,-0.394 L 47.613,32.589 C 47.336,32.358 47.105,32.08 46.92,31.778 l -2.291,-4.561 -2.762,12.13 10.793,12.757 c 0.256,0.394 0.418,0.856 0.51,1.319 l 2.916,15.394 c -0.021,0.349 0.023,0.558 0,0.834 -0.162,2.291 -2.15,3.959 -4.42,3.798 -1.875,-0.162 -3.266,-1.552 -3.705,-3.266 l -2.754,-14.422 -8.779,-9.607 -2.037,9.353 c -0.068,0.438 -0.648,1.366 -0.811,1.736 l -8.426,14.189 c -0.832,1.296 -2.246,2.13 -3.843,1.991 -2.292,-0.162 -3.981,-2.152 -3.797,-4.422 0.047,-0.648 0.324,-1.319 0.556,-1.782 l 7.825,-13.126 6.528,-28.913 -4.262,3.451 -2.269,10.301 c -0.301,1.32 -1.504,2.408 -2.917,2.292 -1.528,-0.116 -2.64,-1.436 -2.523,-2.963 0,-0.116 0.023,-0.231 0.046,-0.37 l 2.686,-12.015 c 0.162,-0.509 0.439,-0.973 0.833,-1.319 l 12.225,-9.909 z"
   id="path31146" />
		<rect
   width="7.9169998"
   height="11.204"
   x="7.7449999"
   y="88.795998"
   id="rect31148" />
		<rect
   width="7.9159999"
   height="11.204"
   x="62.752998"
   y="88.795998"
   id="rect31150" />
		<rect
   width="9.6529999"
   height="5.3470001"
   x="-9.1079998"
   y="78.842003"
   id="rect31152" />
		<rect
   width="9.6520004"
   height="5.3470001"
   x="65.230003"
   y="78.842003"
   id="rect31154" />
		<rect
   width="9.6520004"
   height="5.3470001"
   x="77.916"
   y="78.842003"
   id="rect31156" />
		<rect
   width="9.6520004"
   height="5.3470001"
   x="52.845001"
   y="78.842003"
   id="rect31158" />
		<rect
   width="9.658"
   height="5.3470001"
   x="40.455002"
   y="78.842003"
   id="rect31160" />
		<rect
   width="9.6309996"
   height="5.3470001"
   x="28.07"
   y="78.842003"
   id="rect31162" />
		<rect
   width="9.6300001"
   height="5.3470001"
   x="15.685"
   y="78.842003"
   id="rect31164" />
		<rect
   width="9.6300001"
   height="5.3470001"
   x="3.3"
   y="78.842003"
   id="rect31166" />
	</g>
</g>
<g
   id="Boat_Launch"
   style="display:none">
	<g
   id="g31169"
   style="display:inline">
		<path
   d="m 43.792,62.05 c 4.055,-0.929 7.076,-4.558 7.076,-8.892 0,-5.037 -4.084,-9.119 -9.121,-9.119 -5.039,0 -9.123,4.082 -9.123,9.119 0,2.927 1.379,5.533 3.523,7.201 L -10.574,50.033 v 24.629 l 51.166,0.035 c 2.299,0 4.316,-1.199 5.467,-3.004 1.148,1.805 3.168,3.004 5.469,3.004 2.299,0 4.316,-1.199 5.469,-3.004 1.148,1.805 3.166,3.004 5.467,3.004 2.299,0 4.318,-1.199 5.469,-3.004 1.148,1.805 3.166,3.004 5.467,3.004 2.299,0 4.318,-1.199 5.467,-3.004 1.148,1.805 3.17,3.004 5.469,3.004 2.066,0 3.906,-0.969 5.094,-2.476 L 43.792,62.05 z m -6.816,-8.892 c 0,-2.633 2.137,-4.77 4.771,-4.77 2.634,0 4.771,2.137 4.771,4.77 0,2.636 -2.137,4.771 -4.771,4.771 -2.634,0 -4.771,-2.135 -4.771,-4.771 z"
   id="path31171" />
		<path
   d="m 82.414,58.729 -30.621,-6.66 c 0.039,0.359 0.059,0.721 0.059,1.09 0,0.896 -0.117,1.761 -0.332,2.584 l 30.121,6.552 0.773,-3.566"
   id="path31173" />
		<path
   d="m -6.032,39.491 -0.776,3.565 38.596,8.396 c 0.211,-1.244 0.652,-2.41 1.275,-3.457 L -6.032,39.491"
   id="path31175" />
		<path
   d="M 23.074,30.345 33.607,24.381 32.502,22.428 19.78,29.633 -1.194,25.095 C -1.052,38.146 13.26,41.933 13.26,41.933 l 20.979,4.47 c 1.85,-2.056 4.529,-3.346 7.51,-3.346 4.496,0 8.307,2.936 9.617,6.995 L 77.815,55.686 84.411,43.618 23.074,30.345"
   id="path31177" />
	</g>
</g>
<g
   id="Camper"
   style="display:none">
	<g
   id="g31180"
   style="display:inline">
		<path
   d="m 33.029,46.129 c 1.855,0 3.367,-1.522 3.367,-3.369 v -5.62 c 0,-1.846 -1.512,-3.368 -3.367,-3.368 H 7.661 c -1.857,0 -3.367,1.522 -3.367,3.368 v 5.62 c 0,1.846 1.51,3.369 3.367,3.369 h 25.368 z m 33.48,-0.026 c 1.869,0 3.367,-1.521 3.367,-3.366 V 37.14 c 0,-1.846 -1.496,-3.368 -3.367,-3.368 H 54.802 c -1.857,0 -3.367,1.522 -3.367,3.368 v 5.596 c 0,1.845 1.51,3.366 3.367,3.366 H 66.509 z M 22.975,72.839 H 3.802 C -2.849,72.839 -8.23,67.445 -8.23,60.808 L -8.254,39.789 c 0,-9.024 7.31,-16.333 16.321,-16.333 h 55.507 c 9.014,0 16.334,7.309 16.334,16.333 l 0.021,29.669 h 8.498 c 1.834,0 3.316,1.521 3.316,3.355 H 48.642 c -0.42,-6.746 -5.979,-12.09 -12.834,-12.09 -6.853,10e-4 -12.414,5.344 -12.833,12.116"
   id="path5004" />
		<path
   d="m 35.81,77.669 c 2.229,0 4.027,-1.786 4.027,-4.016 0,-2.23 -1.799,-4.027 -4.027,-4.027 -2.217,0 -4.016,1.798 -4.016,4.027 0,2.229 1.799,4.016 4.016,4.016 m -9.265,-4.015 c 0,-5.13 4.136,-9.275 9.265,-9.275 5.129,0 9.262,4.146 9.262,9.275 0,5.116 -4.133,9.272 -9.262,9.272 -5.131,0.001 -9.265,-4.155 -9.265,-9.272"
   id="path5006" />
	</g>
</g>
<g
   id="Layer_10"
   style="display:none">
	<g
   id="g31185"
   style="display:inline">
		<path
   d="m 11.611,84.421 c 9.106,0 16.495,-7.389 16.495,-16.506 0,-9.096 -7.388,-16.483 -16.495,-16.483 -9.083,0 -16.472,7.39 -16.472,16.483 0,9.117 7.389,16.506 16.472,16.506 z M -8.611,67.915 c 0,-11.172 9.072,-20.211 20.222,-20.211 11.184,0 20.245,9.039 20.245,20.211 0,11.184 -9.061,20.232 -20.245,20.232 C 0.461,88.148 -8.611,79.099 -8.611,67.915 z"
   id="path31187" />
		<path
   d="m 71.167,84.612 c 9.084,0 16.473,-7.377 16.473,-16.494 0,-9.106 -7.389,-16.483 -16.473,-16.483 -9.105,0 -16.494,7.377 -16.494,16.483 -0.001,9.117 7.388,16.494 16.494,16.494 z M 50.922,68.116 c 0,-11.184 9.072,-20.223 20.244,-20.223 11.15,0 20.223,9.039 20.223,20.223 0,11.185 -9.072,20.233 -20.223,20.233 C 59.995,88.351 50.922,79.301 50.922,68.116 z"
   id="path31189" />
		<path
   d="m 50.979,18.757 c 4.199,0 7.611,-3.391 7.611,-7.59 0,-4.2 -3.412,-7.613 -7.611,-7.613 -4.199,0 -7.613,3.414 -7.613,7.613 0,4.199 3.414,7.59 7.613,7.59 z"
   id="path31191" />
		<path
   d="m 51.292,37.217 c -1.1,0.022 -2.289,-0.528 -3.166,-1.909 l -4.939,-7.725 -10.196,10.094 9.455,4.975 c 3.885,1.864 3.301,5.277 3.301,5.277 v 21.4 c 0,2.426 -1.955,4.401 -4.379,4.401 -2.426,0 -4.379,-1.977 -4.379,-4.401 V 52.196 L 20.594,43.09 c -1.954,-1.089 -3.279,-3.179 -3.279,-5.558 0,-1.64 0.606,-3.145 1.639,-4.267 l 16.08,-16.113 c 1.998,-2.257 4.783,-1.897 4.783,-1.897 3.369,0 5.143,2.942 5.143,2.942 l 8.354,13.092 12.689,-0.022 c 4.559,0 4.559,5.951 0,5.951 l -14.711,-0.001 0,0 z"
   id="path31193" />
	</g>
</g>
<g
   id="Layer_11"
   style="display:none">
	<g
   id="g31196"
   style="display:inline">
		<path
   d="m 58.995,13.622 c -3.914,0 -6.928,3.128 -6.928,6.927 0,3.912 3.014,7.04 6.928,7.04 3.797,0 6.926,-3.128 6.926,-7.04 -0.001,-3.799 -3.129,-6.927 -6.926,-6.927 z"
   id="path31198" />
		<path
   d="m 78.325,59.098 c 1.449,-3.24 1.117,-9.833 -0.338,-16.537 0.111,0.223 0.672,1.788 0.783,1.899 2.348,1.899 5.025,1.005 6.256,-2.347 -2.568,-5.698 -5.139,-11.396 -7.709,-17.095 -2.123,-0.335 -4.135,0.335 -6.258,2.011 1.008,2.347 1.9,4.693 2.795,7.039 L 70.166,29.599 63.91,27.7 59.889,29.041 c -0.338,0.335 -0.674,0.782 -0.895,1.117 -3.018,4.47 -4.693,9.163 -5.59,13.967 -4.021,2.57 -7.822,4.916 -11.729,7.487 -0.896,0.559 -1.791,1.117 -2.572,1.676 l 1.455,4.135 1.117,-0.336 0.893,-0.336 12.402,21.9 -4.357,17.988 7.707,1.9 0.674,-2.123 1.898,-5.586 4.805,7.484 2.793,-0.559 -6.256,-12.066 2.568,-11.176 5.252,-5.695 13.52,29.496 5.139,-3.35 -10.388,-35.866 z m -19.33,7.595 c -1.119,2.236 -2.125,4.471 -3.133,6.816 l -10.166,-17.765 11.957,-4.582 1.342,-2.123 1.898,-3.017 c 1.453,2.904 3.018,5.698 4.467,8.491 -2.233,4.024 -4.356,8.048 -6.365,12.18 z"
   id="path31200" />
		<path
   d="m 9.94,4.794 c -4.021,0 -7.373,3.352 -7.373,7.374 0,4.135 3.352,7.374 7.373,7.374 4.024,0 7.375,-3.239 7.375,-7.374 0,-4.022 -3.351,-7.374 -7.375,-7.374 z"
   id="path31202" />
		<path
   d="m 31.842,53.734 c 1.229,-1.789 1.896,-4.024 2.012,-6.594 -0.336,-3.017 -1.453,-6.369 -2.459,-9.498 -1.006,-2.011 -0.113,0 0.668,0.224 3.354,1.117 5.254,0 6.26,-2.57 C 35.192,28.368 32.51,21.553 29.272,14.737 26.7,14.848 24.688,15.743 23.35,17.306 l 4.357,11.956 c -2.572,-5.921 -5.924,-10.056 -11.509,-9.946 -2.011,0 -4.134,1.006 -6.259,3.13 C 9.828,22.558 9.716,22.67 9.606,22.78 7.816,27.92 6.03,33.172 4.242,38.312 l -15.529,10.616 2.121,4.246 2.348,-0.779 13.744,23.462 -3.801,19.778 6.815,1.787 1.453,0.336 2.348,-9.723 5.363,8.604 4.022,-0.334 -8.271,-14.75 1.676,-8.268 6.594,-7.932 15.756,32.959 2.793,-2.346 2.459,-2.123 L 31.842,53.734 z M 9.94,65.131 7.931,69.377 -3.245,50.828 9.83,44.235 c 0,-0.112 0.111,-0.223 0.111,-0.223 0.782,-1.229 1.564,-2.347 2.235,-3.464 2.458,3.017 4.134,6.145 5.028,9.162 L 9.94,65.131 z"
   id="path31204" />
	</g>
</g>
<g
   id="Layer_12"
   style="display:none">
	<g
   id="g31207"
   style="display:inline">
		<path
   d="m 38.536,1.081 c -27.57,0 -50,22.43 -50,50 0,27.568 22.43,50 50,50 27.57,0 50,-22.432 50,-50 0,-27.57 -22.43,-50 -50,-50 z m 4.031,91.736 V 79.307 H 34.504 V 92.819 C 14.593,90.91 -1.293,75.024 -3.201,55.113 H 10.311 V 47.049 H -3.201 C -1.292,27.138 14.593,11.253 34.505,9.344 v 13.511 h 8.063 V 9.344 c 19.912,1.908 35.797,17.793 37.705,37.705 h -13.51 v 8.064 H 80.275 C 78.364,75.024 62.479,90.91 42.567,92.817 z"
   id="path31209" />
	</g>
</g>
<g
   id="MArker"
   style="display:none">
	<g
   id="g31212"
   style="display:inline">
		<path
   d="M 33.221,0 C 17.739,0 5.187,12.552 5.187,28.034 5.187,43.516 33.221,100 33.221,100 c 0,0 28.034,-56.482 28.034,-71.966 C 61.255,12.55 48.705,0 33.221,0 z m 0,40.477 c -6.871,0 -12.442,-5.572 -12.442,-12.442 0,-6.872 5.571,-12.442 12.442,-12.442 6.872,0 12.442,5.57 12.442,12.442 0.001,6.87 -5.57,12.442 -12.442,12.442 z"
   id="path31214" />
	</g>
</g>
<g
   id="Layer_13"
   style="display:none">
	<g
   id="g31217"
   style="display:inline">
		<polygon
   points="-21.736,4.196 -5.868,20.593 0.225,15.063 -5.292,4.246 "
   id="polygon31219" />
		<path
   d="m 49.797,50.132 c 3,0.834 6.225,-0.883 7.08,-3.963 0.822,-3.031 -0.93,-6.218 -3.951,-7.076 l -2.354,-0.662 -3.047,11.02 2.272,0.681 z"
   id="path31221" />
		<path
   d="M 47.952,37.729 28.956,32.317 c -1.248,-0.329 -2.502,0.429 -2.846,1.692 l -1.785,6.419 c -0.352,1.262 0.328,2.556 1.609,2.935 l 18.994,5.354 3.024,-10.988 z"
   id="path31223" />
		<path
   d="m 50.952,55.97 c -1.449,-1.394 -3.25,-2.5 -5.35,-3.084 l -23.029,-6.515 0,0 L 8.424,20.998 C 7.679,19.687 6.48,18.644 4.928,18.215 c -3.103,-0.882 -6.327,0.961 -7.174,4.098 -0.423,1.489 -0.223,3.009 0.448,4.295 l 17.701,31.38 c 0,0 1.449,2.353 5.096,3.563 l 32.178,9.119 14.922,15.315 c 0.496,0.524 1.145,0.93 1.92,1.155 2.248,0.63 4.6,-0.729 5.256,-2.976 0.426,-1.594 -0.08,-3.267 -1.201,-4.302 L 50.952,55.97 z"
   id="path31225" />
		<path
   d="m 68.122,62.306 3.344,4.424 6.799,-7.503 -5.74,-3.233 c 0.541,-4.066 -1.953,-8.005 -5.951,-9.146 -4.4,-1.235 -8.973,1.343 -10.197,5.791 -1.248,4.471 1.326,9.07 5.729,10.309 2.088,0.604 4.217,0.274 6.016,-0.642 z"
   id="path31227" />
	</g>
</g>
<g
   id="Layer_14"
   style="display:none">
	<g
   id="g31230"
   style="display:inline">
		<g
   id="g31232">
			<path
   d="m 33.98,55.402 c -1.104,0 -1.997,-0.903 -1.992,-2.008 0,0 0.959,-15.959 2.064,-15.955 1.105,0.004 1.936,15.971 1.936,15.971 -0.003,0.772 -0.453,1.992 -2.008,1.992 z"
   id="path31234" />
		</g>
		<path
   d="m 40.456,30.102 c 1.613,-1.62 2.612,-3.853 2.612,-6.314 0,-4.938 -4.018,-8.955 -8.955,-8.955 -4.938,0 -8.955,4.017 -8.955,8.955 0,2.461 0.999,4.694 2.612,6.314 -3.37,0.92 -6.45,2.55 -9.063,4.725 l -1.92,-1.987 1.438,-1.39 c 0.794,-0.768 0.815,-2.034 0.048,-2.828 -0.767,-0.794 -2.033,-0.815 -2.828,-0.048 l -5.752,5.56 c -0.794,0.768 -0.876,2.098 -0.048,2.828 1.006,0.886 2.439,0.423 2.828,0.048 l 1.438,-1.39 1.946,2.013 c -3.649,4.228 -5.864,9.728 -5.864,15.738 0,13.3 10.821,24.121 24.121,24.121 13.302,0 24.12,-10.821 24.12,-24.121 0,-11.105 -7.547,-20.476 -17.778,-23.269 z M 27.158,23.789 c 0,-3.835 3.12,-6.955 6.955,-6.955 3.835,0 6.955,3.12 6.955,6.955 0,2.404 -1.227,4.527 -3.087,5.776 -0.615,-0.1 -1.238,-0.172 -1.868,-0.225 v -2.695 h 2 c 1.104,0 2,-0.896 2,-2 0,-1.104 -0.896,-2 -2,-2 h -8 c -1.104,0 -2,0.896 -2,2 0,1.104 0.896,2 2,2 h 2 v 2.695 c -0.63,0.052 -1.253,0.125 -1.868,0.225 -1.86,-1.25 -3.087,-3.372 -3.087,-5.776 z m 6.955,49.704 c -11.095,0 -20.121,-9.025 -20.121,-20.121 0,-11.095 9.026,-20.122 20.121,-20.122 11.096,0 20.121,9.026 20.121,20.122 0,11.096 -9.026,20.121 -20.121,20.121 z"
   id="path31236" />
	</g>
</g>
<g
   id="Layer_15"
   style="display:none">
	<g
   id="g31239"
   style="display:inline">
		<g
   id="g31241">
			<path
   d="m 46.244,47.581 -5.994,-1.76 -15.125,17.659 6.594,1.059 14.525,-16.958 0,0 z m -9.63,-2.826 -5.998,-1.754 -16.081,18.775 6.593,1.061 15.486,-18.082 0,0 z M 55.859,50.42 C 54,49.868 51.983,49.271 49.875,48.649 l -14.159,16.534 6.594,1.061 13.549,-15.824 0,0 z m -7.72,26.118 C 47.076,76.595 46.163,75.732 46.09,74.606 46.041,73.671 45.988,72.638 45.968,72.35 45.922,71.751 45.44,71.305 45.44,71.305 L 43.664,69.487 C 39.163,69.415 34.914,69.139 31.346,68.654 17.003,66.706 12.714,67.874 0.795,67.649 L 0.6,67.646 -0.161,68.51 c 0,0 -0.457,0.474 -0.471,1.072 -0.008,0.287 -0.007,1.323 -0.005,2.257 -0.023,1.13 -0.889,2.04 -1.953,2.04 -1.064,0 -1.93,-0.91 -1.945,-2.04 0.001,-0.934 0.003,-1.97 -0.004,-2.257 -0.015,-0.6 -0.471,-1.072 -0.471,-1.072 l -1.352,-1.532 c -5.227,-1.045 -5.807,-2.91 -5.807,-2.91 -1.023,-3.277 -1.604,-7.015 -1.604,-10.981 0,-3.789 0.526,-7.367 1.463,-10.534 1.822,1.418 4.059,2.672 6.802,3.568 4.096,1.337 10.339,2.165 11.566,0.249 C 6.272,46.035 6.804,44.922 5.877,44.807 0.575,44.349 -7.888,43.272 -7.049,34.62 c 0.057,-0.589 -0.048,-1.039 -0.294,-1.365 0.274,-0.294 0.556,-0.574 0.843,-0.836 0,0 0.684,-0.54 1.169,-0.533 0.692,0.009 1.6,0.091 1.686,1.387 0,0 0.09,7.046 11.648,7.227 3.614,0.057 5.856,-0.792 7.442,-1.934 L 6.799,32.285 C 5.499,31.34 5.21,29.519 6.155,28.219 l 3.283,-4.518 c 0.945,-1.301 2.765,-1.589 4.065,-0.644 l 14.8,10.753 c 0.098,-0.003 0.194,-0.004 0.294,-0.004 2.962,0 5.435,1.273 6.017,2.968 2.593,0.021 4.798,1.017 5.668,2.413 0.234,-0.017 0.475,-0.025 0.715,-0.025 2.121,0 3.993,0.653 5.101,1.646 2.436,0.065 4.505,0.993 5.398,2.292 l 0.233,0.071 c 0.285,-0.025 0.58,-0.039 0.877,-0.039 2.272,0 4.258,0.75 5.321,1.864 0.132,-0.005 0.265,-0.008 0.399,-0.008 2.169,0 4.078,0.683 5.171,1.715 4.729,1.399 8.99,2.628 11.984,3.433 12.255,3.286 12.619,10.081 4.069,14.564 -1.459,0.764 -3.404,1.44 -5.701,2.024 l -1.123,1.844 c 0,0 -0.368,0.545 -0.278,1.139 0.044,0.283 0.223,1.305 0.39,2.223 0.172,1.116 -0.522,2.162 -1.571,2.348 -1.048,0.187 -2.06,-0.562 -2.271,-1.669 C 68.839,71.688 68.658,70.668 68.6,70.385 68.482,69.795 67.949,69.41 67.949,69.41 l -1.564,-1.25 c -4.563,0.656 -9.688,1.076 -14.808,1.252 l -1.298,1.641 c 0,0 -0.431,0.494 -0.414,1.097 0.006,0.288 0.063,1.321 0.113,2.254 0.041,1.125 -0.777,2.08 -1.839,2.134 l 0,0 z"
   id="path31243" />
		</g>
	</g>
</g>
<g
   id="Layer_16"
   style="display:none">
	<g
   id="g31246"
   style="display:inline">
		<path
   d="m 30.549,41.405 c 0.99,-0.266 1.575,-1.278 1.309,-2.263 -0.266,-0.99 -1.278,-1.57 -2.259,-1.309 -0.99,0.266 -1.574,1.278 -1.309,2.263 0.262,0.987 1.274,1.575 2.259,1.309 z"
   id="path31248" />
		<path
   d="m 41.445,41.405 c 0.984,0.266 1.998,-0.323 2.262,-1.309 0.268,-0.985 -0.32,-1.998 -1.307,-2.263 -0.982,-0.262 -1.998,0.318 -2.266,1.304 -0.259,0.99 0.324,2.002 1.311,2.268 z"
   id="path31250" />
		<path
   d="m 50.875,44.236 c -0.721,0.725 -0.721,1.889 0,2.612 0.725,0.725 1.893,0.725 2.615,0 0.717,-0.724 0.717,-1.888 0,-2.612 -0.723,-0.724 -1.891,-0.724 -2.615,0 z"
   id="path31252" />
		<path
   d="m 58.582,57.59 c 0.99,-0.263 1.574,-1.281 1.309,-2.263 -0.264,-0.985 -1.273,-1.572 -2.26,-1.31 -0.99,0.267 -1.57,1.277 -1.313,2.267 0.269,0.989 1.281,1.566 2.264,1.306 z"
   id="path31254" />
		<path
   d="m 58.585,65.865 c -0.986,-0.262 -1.998,0.322 -2.268,1.309 -0.26,0.987 0.32,1.998 1.311,2.264 0.986,0.267 1.998,-0.317 2.26,-1.31 0.268,-0.98 -0.316,-1.998 -1.303,-2.263 z"
   id="path31256" />
		<path
   d="m 50.875,76.609 c -0.721,0.718 -0.721,1.891 0,2.61 0.725,0.724 1.893,0.724 2.615,0 0.717,-0.721 0.717,-1.894 0,-2.61 -0.723,-0.726 -1.891,-0.726 -2.615,0 z"
   id="path31258" />
		<path
   d="m 41.445,82.055 c -0.986,0.26 -1.57,1.273 -1.311,2.258 0.268,0.992 1.273,1.57 2.266,1.311 0.984,-0.264 1.574,-1.275 1.307,-2.264 -0.264,-0.985 -1.278,-1.571 -2.262,-1.305 z"
   id="path31260" />
		<path
   d="m 30.549,82.055 c -0.985,-0.267 -1.997,0.319 -2.259,1.305 -0.266,0.986 0.319,2 1.309,2.264 0.981,0.261 1.994,-0.325 2.259,-1.311 0.266,-0.984 -0.319,-1.999 -1.309,-2.258 z"
   id="path31262" />
		<path
   d="m 18.507,76.609 c -0.724,0.718 -0.724,1.891 0,2.61 0.719,0.724 1.889,0.724 2.612,0 0.72,-0.721 0.72,-1.894 0,-2.61 -0.723,-0.726 -1.893,-0.726 -2.612,0 z"
   id="path31264" />
		<path
   d="m 13.413,65.869 c -0.986,0.262 -1.575,1.273 -1.309,2.259 0.266,0.991 1.278,1.57 2.264,1.31 0.986,-0.266 1.57,-1.275 1.309,-2.264 -0.267,-0.986 -1.278,-1.57 -2.264,-1.305 z"
   id="path31266" />
		<path
   d="m 13.413,57.59 c 0.986,0.26 1.997,-0.316 2.264,-1.306 0.261,-0.988 -0.323,-2 -1.309,-2.267 -0.986,-0.264 -1.998,0.323 -2.264,1.31 -0.266,0.982 0.323,2.001 1.309,2.263 z"
   id="path31268" />
		<path
   d="M 39.531,58.197 C 39.306,57.978 39.072,57.792 38.824,57.624 L 38.845,57.595 21.12,44.236 c -0.724,-0.724 -1.893,-0.724 -2.612,0 -0.724,0.725 -0.724,1.889 0,2.612 l 13.358,17.726 0.026,-0.024 c 0.17,0.251 0.358,0.486 0.576,0.706 1.949,1.948 5.109,1.948 7.063,0 1.939,-1.947 1.939,-5.11 0,-7.059 z"
   id="path31270" />
		<path
   d="m 64.935,37.449 1.861,-1.862 0.646,0.646 c 0.541,0.541 1.418,0.541 1.955,0 l 2.441,-2.438 c 0.535,-0.541 0.535,-1.417 0,-1.954 l -0.014,-0.014 -5.813,-5.813 h -0.004 c -0.537,-0.541 -1.414,-0.541 -1.955,0 l -2.438,2.438 c -0.541,0.541 -0.541,1.414 0,1.954 l 0.633,0.632 -1.854,1.854 c -4.369,-3.699 -9.586,-6.425 -15.32,-7.838 3.244,-2.635 5.314,-6.651 5.314,-11.162 0,-7.95 -6.441,-14.392 -14.393,-14.392 -7.947,0 -14.393,6.442 -14.393,14.393 0,4.51 2.076,8.527 5.316,11.162 -5.73,1.413 -10.947,4.139 -15.317,7.838 l -1.854,-1.854 0.628,-0.632 c 0.537,-0.541 0.537,-1.413 0,-1.954 L 7.932,26.015 c -0.537,-0.541 -1.409,-0.541 -1.95,0 l 0,0 -5.814,5.813 -0.005,0.012 c -0.545,0.537 -0.545,1.413 0,1.954 l 2.434,2.438 c 0.541,0.541 1.418,0.541 1.954,0 l 0.65,-0.646 1.863,1.862 c -5.514,6.57 -8.838,15.036 -8.838,24.278 0,20.864 16.91,37.773 37.771,37.773 20.86,0 37.774,-16.909 37.774,-37.773 0,-9.242 -3.318,-17.708 -8.836,-24.277 z M 26.323,13.893 c 0,-5.342 4.331,-9.674 9.674,-9.674 5.342,0 9.678,4.332 9.678,9.674 0,4.188 -2.666,7.75 -6.381,9.099 v -6.181 h 0.912 c 0.762,0 1.381,-0.619 1.381,-1.382 v -3.45 c 0,-0.764 -0.619,-1.382 -1.381,-1.382 H 40.188 31.97 31.966 c -0.763,0 -1.382,0.619 -1.382,1.382 v 3.45 c 0,0.763 0.619,1.382 1.382,1.382 h 0.89 v 6.233 c -3.798,-1.305 -6.533,-4.907 -6.533,-9.151 z m 9.674,76.384 c -15.719,0 -28.459,-12.743 -28.459,-28.465 0,-15.713 12.74,-28.458 28.459,-28.458 15.715,0 28.458,12.745 28.458,28.458 0,15.722 -12.743,28.465 -28.458,28.465 z"
   id="path31272" />
	</g>
</g>
<g
   id="Layer_17"
   style="display:none">
	<g
   id="g31275"
   style="display:inline">
		<path
   d="m 58.661,25.812 c 0.066,0.263 0.462,0.263 1.349,-0.212 1.492,-0.766 2.787,-1.994 4.067,-3.039 1.27,-1.043 2.656,-2.073 3.688,-3.369 0.911,-1.188 0.395,-2.205 -1.045,-1.836 -1.876,0.477 -3.949,2.881 -5.271,4.162 -0.49,0.461 -3.013,3.54 -2.788,4.294 z"
   id="path31277" />
		<path
   d="m 9.408,36.459 c 0,-0.106 -4.387,-2.853 -5.575,-3.434 -1.507,-0.754 -5.219,-3.568 -6.804,-1.929 -1.031,1.083 0.462,1.994 1.348,2.734 0.95,0.793 10.912,4.638 11.031,2.629 z"
   id="path31279" />
		<path
   d="m 68.914,57.917 c -0.039,0.08 -0.054,0.17 -0.066,0.252 -0.542,2.205 8.008,5.414 9.579,6.459 2.021,1.32 5.721,1.203 4.398,-2.152 -1.136,-2.842 -13.251,-5.538 -13.911,-4.559 z"
   id="path31281" />
		<path
   d="m 53.785,69.214 c 0.371,2.562 1.798,5.27 3.423,7.516 1.995,2.724 6.646,7.188 5.614,11.019 -1.004,3.713 -4.82,1.348 -6.301,-0.633 -2.551,-3.449 -2.829,-7.968 -4.942,-11.625 -1.017,-1.771 -2.417,-3.066 -4.28,-3.927 -3.699,-1.666 -7.677,-2.733 -9.882,1.588 -1.77,3.461 -1.44,8.31 -4.096,11.349 -1.281,1.453 -4.082,2.352 -5.152,0.156 -1.413,-2.865 1.189,-7.238 0.503,-10.386 -1.718,-7.791 -11.997,4.031 -14.07,5.498 -5.827,4.082 -3.224,-3.463 -2.114,-6.367 1.505,-3.963 7.98,-11.295 6.5,-15.143 -0.674,-1.729 -4.188,-1.229 -5.55,-1.123 -1.691,0.121 -3.316,0.648 -5.021,0.621 -0.792,0 -1.505,0.016 -1.81,-0.791 -0.344,-0.887 0.595,-1.812 0.12,-2.67 -0.476,-0.873 -1.917,-0.937 -2.762,-1.082 -2.259,-0.357 -4.717,-0.346 -6.976,0 -1.836,0.275 -3.738,1.203 -5.627,1.043 -2.55,-0.197 -2.788,-3.463 -0.859,-4.834 1.137,-0.82 3.185,-1.006 4.532,-0.833 6.5,1.294 19.145,3.607 23.068,-3.437 2.788,-4.979 -1.467,-4.069 -4.016,-5.615 -2.273,-1.387 -2.921,-2.603 -0.385,-2.88 2.339,-0.263 5.337,0.713 7.742,0.806 1.823,0.066 2.788,-1.532 3.409,-3.025 C 26.399,30.661 25.99,25.931 23.756,22.522 22,19.84 19.371,17.753 18.46,14.529 c -0.793,-2.813 0.342,-5.562 3.686,-4.941 6.448,1.176 4.743,9.525 5.998,14.083 2.259,8.257 9.419,0.846 13.924,-4.36 1.031,-1.188 2.775,-2.959 4.439,-3.197 1.771,-0.277 3.501,1.427 3.118,3.329 -0.463,2.22 -3.687,3.224 -4.559,5.22 -0.951,2.206 1.029,4.122 3.302,4.175 2.473,0.065 4.679,-1.705 7.097,-2.008 4.703,-0.582 2.602,5.707 4.002,8.56 2.272,4.599 7.241,0.397 10.214,-1.083 1.586,-0.806 4.505,-2.298 6.234,-1.031 1.521,1.098 0.966,2.829 -0.289,3.898 -2.075,1.784 -5.206,1.4 -7.757,1.758 -3.698,0.501 -8.06,1.862 -9.751,5.548 -1.147,2.524 -0.54,6.158 1.521,8.06 1.757,1.588 4.558,1.428 6.183,3.104 3.171,3.248 -2.352,5.049 -4.756,5.814 -4.005,1.243 -8.047,2.521 -7.281,7.756 z"
   id="path31283" />
	</g>
</g>
<g
   id="Parking_Meter_2"
   style="display:none">
	<g
   id="g31286"
   style="display:inline">
		<path
   d="m 36.781,-0.5 c -16.875,0 -30.555,13.68 -30.555,30.555 0,8.828 3.747,16.775 9.733,22.354 l 1.377,16.536 12.5,15.275 V 99.5 h 13.89 V 84.223 L 56.226,68.946 57.603,52.41 C 63.589,46.831 67.337,38.884 67.337,30.056 67.337,13.18 53.658,-0.5 36.781,-0.5 z M 29.836,52.277 H 21.503 V 37 h 8.333 v 15.277 z m 18.056,1.672 v 6.662 h -4.166 v -6.663 c -2.034,-0.823 -3.473,-2.813 -3.473,-5.143 0,-2.331 1.438,-4.318 3.473,-5.143 V 37 h 4.166 v 6.662 c 2.035,0.825 3.473,2.813 3.473,5.144 0,2.331 -1.438,4.319 -3.473,5.143 z M 38.171,30.055 v -2.777 h 4.166 l -5.556,-9.723 -5.555,9.723 h 4.167 v 2.777 H 13.17 c 0,-13.039 10.572,-23.61 23.611,-23.61 13.041,0 23.609,10.571 23.609,23.61 H 38.171 z"
   id="path31288" />
		<rect
   width="2.0829999"
   height="12.5"
   x="24.628"
   y="38.389"
   id="rect31290" />
		<rect
   width="2.7780001"
   height="4.1669998"
   x="35.393002"
   y="10.611"
   id="rect31292" />
		<rect
   width="4.1669998"
   height="2.777"
   x="26.017"
   y="13.628"
   transform="matrix(-0.4994,-0.8664,0.8664,-0.4994,29.1216,46.862)"
   id="rect31294" />
		<rect
   width="4.165"
   height="2.7780001"
   x="19.66"
   y="19.986"
   transform="matrix(-0.866,-0.5001,0.5001,-0.866,29.8822,50.757)"
   id="rect31296" />
		<rect
   width="2.7780001"
   height="4.1690001"
   x="44.07"
   y="12.932"
   transform="matrix(-0.8661,-0.4998,0.4998,-0.8661,77.3268,50.7449)"
   id="rect31298" />
		<rect
   width="2.7780001"
   height="4.1669998"
   x="50.428001"
   y="19.290001"
   transform="matrix(-0.4998,-0.8661,0.8661,-0.4998,59.2055,76.936)"
   id="rect31300" />
	</g>
</g>
<g
   id="Parking_Meter_1"
   style="display:none">
	<g
   id="g31303"
   style="display:inline">
		<path
   d="m 44.683,22.206 c 0,1.317 -1.066,2.385 -2.385,2.385 H 30.372 c -1.317,0 -2.385,-1.068 -2.385,-2.385 v -5.301 c 0,-1.317 1.068,-2.384 2.385,-2.384 h 11.926 c 1.316,0 2.385,1.067 2.385,2.384 v 5.301 z"
   id="path31305" />
		<path
   d="M 64.445,27.609 C 64.445,12.109 51.836,-0.5 36.336,-0.5 20.835,-0.5 8.226,12.109 8.226,27.609 l 10.975,32.954 c -1.68,2.908 -2.646,6.279 -2.646,9.881 0,8.304 5.12,15.408 12.373,18.342 V 99.5 H 43.745 V 88.783 c 7.252,-2.934 12.371,-10.036 12.371,-18.34 0,-3.602 -0.965,-6.973 -2.646,-9.879 L 64.445,27.609 z M 47.779,50.029 H 36.336 V 37.685 h 11.443 v 12.344 l 0,0 z M 36.336,27.609 H 18.042 c 0,-10.087 8.207,-18.294 18.294,-18.294 10.085,0 18.292,8.207 18.292,18.294 H 36.336 z"
   id="path31307" />
		<rect
   width="1.8150001"
   height="9.7410002"
   x="41.148998"
   y="38.986"
   id="rect31309" />
	</g>
</g>
<g
   id="Subway"
   style="display:none">
	<g
   id="Layer_31"
   style="display:inline">
		<g
   id="g31313">
			<rect
   width="83.334"
   height="12.5"
   x="-5.7740002"
   y="-0.5"
   id="rect31315" />
			<g
   id="g31317">
				<path
   d="m 32.101,38.551 h 3.793 3.792 c 0.721,0.002 1.285,-0.588 1.285,-1.287 v -2.19 c 0,-0.701 -0.598,-1.276 -1.285,-1.287 h -3.792 -3.793 c -0.688,0.011 -1.283,0.586 -1.283,1.287 v 2.19 c 10e-4,0.698 0.564,1.289 1.283,1.287 z"
   id="path31319" />
				<path
   d="M 49.177,48.982 V 43.97 c -0.012,-2.09 -1.363,-3.913 -3.918,-3.917 h -9.366 -9.368 c -2.552,0.004 -3.903,1.827 -3.917,3.917 v 5.012 c -0.005,2.428 1.757,3.905 3.917,3.917 h 9.368 9.366 c 2.164,-0.01 3.926,-1.489 3.918,-3.917 z"
   id="path31321" />
				<path
   d="m 26.087,64.18 c -1.885,-0.011 -3.421,1.523 -3.416,3.414 -0.005,1.897 1.531,3.432 3.416,3.446 1.9,-0.017 3.438,-1.549 3.443,-3.446 -0.007,-1.891 -1.542,-3.425 -3.443,-3.414 z"
   id="path31323" />
				<path
   d="m 35.894,16.167 c -23.013,0 -41.667,18.655 -41.667,41.666 0,23.012 18.655,41.667 41.667,41.667 23.012,0 41.667,-18.655 41.667,-41.667 C 77.56,34.822 58.906,16.167 35.894,16.167 z m 2.883,10.884 c 1.189,-0.012 2.162,0.957 2.162,2.163 0,1.188 -0.973,2.156 -2.162,2.162 -1.201,-0.005 -2.169,-0.974 -2.162,-2.162 -0.008,-1.206 0.961,-2.176 2.162,-2.163 z m -5.767,0 c 1.203,-0.013 2.172,0.957 2.163,2.163 0.009,1.188 -0.96,2.156 -2.163,2.162 -1.188,-0.005 -2.159,-0.974 -2.161,-2.162 0.002,-1.206 0.973,-2.176 2.161,-2.163 z M 51.181,88.617 44.73,79.152 h -8.836 -8.836 l -6.423,9.465 H 15.436 L 24.428,75.111 C 21.43,74.613 18.438,71.48 18.444,67.657 V 39.74 c -0.006,-3.938 3.312,-7.555 7.83,-7.55 h 9.651 9.617 c 4.492,-0.005 7.811,3.613 7.803,7.55 v 27.917 c 0.008,3.823 -2.984,6.956 -5.984,7.454 l 8.992,13.506 h -5.172 z"
   id="path31325" />
				<path
   d="m 49.052,67.594 c -0.01,-1.891 -1.543,-3.425 -3.447,-3.414 -1.887,-0.009 -3.418,1.523 -3.412,3.414 -0.006,1.897 1.525,3.432 3.412,3.446 1.904,-0.017 3.437,-1.549 3.447,-3.446 z"
   id="path31327" />
			</g>
		</g>
	</g>
</g>
<g
   id="Protest"
   style="display:none">
	<g
   id="g31330"
   style="display:inline">
		<path
   d="m 38.705,38.865 c -0.168,0.449 -0.276,0.91 -0.324,1.379 -0.053,0.518 -0.038,1.039 0.058,1.555 0.058,0.309 0.131,0.617 0.241,0.918 0.515,1.392 1.539,2.499 2.889,3.119 0.732,0.338 1.514,0.508 2.314,0.508 0.996,0 1.949,-0.279 2.781,-0.764 0.449,-0.262 0.863,-0.584 1.227,-0.964 0.324,-0.339 0.605,-0.725 0.84,-1.145 0.066,-0.121 0.143,-0.237 0.199,-0.365 0,0 11.078,-24.098 11.104,-24.147 0.021,-0.052 0.334,-0.974 0.398,-1.345 0.436,-2.428 -0.781,-4.941 -3.127,-6.021 -0.73,-0.338 -1.512,-0.508 -2.313,-0.508 -1.688,0 -3.258,0.78 -4.299,2.052 -0.293,0.359 -0.553,0.75 -0.748,1.183 0,-0.004 0.002,-0.008 0.004,-0.011 l -0.006,0.012 c -0.002,10e-4 -0.002,0.004 -0.004,0.006 L 38.842,38.47 c -0.057,0.129 -0.089,0.263 -0.137,0.395 z"
   id="path31332" />
		<path
   d="m 43.703,12.33 c 0.234,0.236 0.387,0.544 0.5,0.881 0.262,0.799 0.219,1.822 0,2.859 -0.111,0.529 -0.262,1.054 -0.441,1.551 -0.068,0.191 -0.137,0.384 -0.215,0.564 -0.113,0.275 -0.262,0.595 -0.434,0.933 -1.504,2.975 -5.373,7.975 -14.463,8.285 -0.005,0 -0.012,0.001 -0.017,0.001 l -3.787,7.886 c 2.366,0.559 6.577,1.881 10.227,4.73 L 47.417,13.161 c 0.203,-0.438 0.32,-0.889 0.402,-1.344 C 48.251,9.386 47.036,6.872 44.692,5.795 43.958,5.459 43.176,5.287 42.378,5.287 c -1.688,0 -3.256,0.779 -4.297,2.052 -0.297,0.359 -0.555,0.751 -0.754,1.184 0.002,-0.004 0.002,-0.006 0.006,-0.01 l -0.006,0.01 -0.003,0.007 -1.56,3.395 h 7.532 l 0.407,0.405 z"
   id="path31334" />
		<path
   d="m 29.087,11.924 h 1.352 2.268 l 2.087,-4.549 c 0.2,-0.438 0.319,-0.89 0.399,-1.344 C 35.626,3.602 34.411,1.088 32.067,0.01 31.331,-0.326 30.553,-0.5 29.753,-0.5 c -1.688,0 -3.258,0.781 -4.299,2.053 -0.293,0.359 -0.552,0.751 -0.751,1.185 0,0.002 -0.004,0.004 -0.004,0.006 l -4.213,9.18 h 4.614 3.987 z"
   id="path31336" />
		<polygon
   points="34.804,7.361 34.807,7.354 34.804,7.361 34.799,7.374 "
   id="polygon31338" />
		<polygon
   points="58.777,28.34 58.777,28.341 58.777,28.34 "
   id="polygon31340" />
		<polygon
   points="48.177,44.748 48.175,44.749 48.175,44.752 "
   id="polygon31342" />
		<polygon
   points="48.177,44.745 48.177,44.746 48.179,44.741 "
   id="polygon31344" />
		<path
   d="m 68.406,32.776 c 0,-0.624 -0.348,-1.915 -0.361,-1.927 -0.785,-2.115 -2.805,-3.628 -5.191,-3.628 -0.5,0 -0.979,0.088 -1.441,0.213 -0.803,0.216 -1.527,0.607 -2.145,1.131 -0.725,0.617 -1.281,1.405 -1.615,2.315 -0.004,0.012 -0.006,0.026 -0.012,0.038 l -6.939,14.99 h 0.002 c -0.205,0.447 -0.307,0.913 -0.332,1.377 -0.008,0.166 0,0.33 0.014,0.492 0.105,1.305 0.889,2.518 2.16,3.103 0.604,0.279 1.254,0.362 1.889,0.297 0.828,-0.086 1.629,-0.432 2.242,-0.996 0.295,-0.271 0.539,-0.6 0.732,-0.962 l 3.604,-7.787 2.521,1.163 0.25,-0.543 -3.742,8.143 -0.006,0.012 c -0.063,0.135 -0.137,0.259 -0.211,0.386 -0.154,0.278 -0.326,0.548 -0.518,0.8 -0.391,0.519 -0.859,0.967 -1.379,1.342 -1.006,0.733 -2.213,1.184 -3.494,1.248 -0.111,0.007 -0.219,0.021 -0.326,0.021 h -0.002 c -0.943,0 -1.859,-0.202 -2.723,-0.598 -1.293,-0.597 -2.285,-1.566 -2.936,-2.72 -0.314,-0.558 -0.537,-1.158 -0.68,-1.782 -0.053,-0.233 -0.096,-0.466 -0.121,-0.705 -0.432,0.22 -0.873,0.412 -1.338,0.555 -0.775,0.238 -1.594,0.368 -2.426,0.368 l 0,0 c -0.965,0 -1.609,-0.172 -2.512,-0.497 0.512,1.676 0.832,3.527 0.832,5.63 V 64.781 H 39.425 V 54.255 c 0,-2.521 -0.788,-4.656 -1.598,-6.478 C 34.033,39.232 23.198,37.754 22.644,37.685 l -1.914,-0.24 6.146,-12.802 h 0.875 c 0.232,0 0.43,-0.029 0.652,-0.035 0.538,-0.016 1.074,-0.033 1.568,-0.084 5.297,-0.549 8.203,-3.018 9.738,-5.135 0.134,-0.183 0.25,-0.367 0.367,-0.548 0.271,-0.426 0.498,-0.842 0.689,-1.248 0.219,-0.463 0.389,-0.906 0.518,-1.313 0.195,-0.628 0.297,-1.174 0.328,-1.578 H 18.634 c -2.75,0 -5.154,1.458 -6.5,3.64 -0.314,0.51 -0.572,1.056 -0.762,1.635 l -7.218,15.48 -0.371,0.796 c -0.356,0.882 -0.557,1.844 -0.557,2.855 0,1.382 0.373,2.675 1.014,3.794 l 0.781,1.12 17.738,23.492 v 31.983 h 33.33 V 99.5 h 2.777 L 58.868,75.891 67.69,57.934 c 0.123,-0.223 0.242,-0.445 0.336,-0.687 0.232,-0.595 0.367,-1.235 0.379,-1.908 0.003,-0.034 0.001,-22.563 0.001,-22.563 z"
   id="path31346" />
	</g>
</g>
<g
   id="Tram"
   style="display:none">
	<g
   id="g31349"
   style="display:inline">
		<path
   d="m 66.417,72.464 c 1.535,-0.323 2.771,-1.456 3.238,-2.934 h 9.643 V 55.792 L 75.497,41.969 H 36.226 27.539 V 40.294 L 38.79,32.729 25.065,23.5 11.338,32.729 22.589,40.294 v 1.675 H -3.046 l -3.8,13.823 V 69.53 h 9.641 c 0.468,1.478 1.705,2.608 3.239,2.934 h -19.808 v 3.118 h 100 V 72.464 H 66.417 z m 2.165,-28.098 h 5.09 l 3.143,11.426 h -8.23 V 44.366 h -0.003 z m -12.434,0 H 66.185 V 55.792 H 56.148 V 44.366 z m 8.486,28.098 h -7.822 c 1.09,-0.228 2.031,-0.856 2.656,-1.735 h 2.508 c 0.623,0.878 1.566,1.509 2.658,1.735 z M 43.714,44.366 H 53.751 V 55.792 H 43.714 V 44.366 z m 11.332,28.098 h -37.64 c 1.091,-0.228 2.034,-0.856 2.658,-1.735 h 16.162 16.163 c 0.622,0.878 1.566,1.509 2.657,1.735 z M 31.135,44.366 H 41.318 V 55.792 H 31.135 V 44.366 z m -15.5,-11.637 9.43,-6.34 9.43,6.34 -9.43,6.34 -9.43,-6.34 z m 3.066,11.637 H 28.738 V 55.792 H 18.701 V 44.366 z m -12.434,0 H 16.304 V 55.792 H 6.267 V 44.366 z M 3.87,55.792 H -4.36 L -1.219,44.366 H 3.87 v 11.426 z m 6.606,14.937 h 2.507 c 0.624,0.879 1.567,1.51 2.658,1.735 H 7.818 c 1.092,-0.226 2.034,-0.857 2.658,-1.735 z"
   id="path31351" />
	</g>
</g>
<g
   id="Bus"
   style="display:none">
	<g
   id="g31354"
   style="display:inline">
		<path
   d="M 86.226,59.834 79.281,12.413 c 0,0 -1.586,-10.913 -12.896,-10.913 H 6.067 C -5.242,1.501 -6.83,12.414 -6.83,12.414 l -6.944,47.42 2.777,15.674 -1.785,2.184 v 11.11 h 7.54 v 9.921 h 18.254 v -9.921 h 46.427 v 9.921 h 18.256 v -9.921 h 7.539 V 77.692 L 83.447,75.508 86.226,59.834 z M 15.491,3.882 H 56.96 v 11.11 H 15.491 V 3.882 z M -4.945,20.549 13.705,18.564 H 33.348 V 48.723 H -8.516 l 3.571,-28.174 z m 17.212,48.612 c 0,2.409 -1.954,4.364 -4.365,4.364 -1.852,0 -3.433,-1.155 -4.067,-2.782 -0.635,1.627 -2.216,2.782 -4.068,2.782 -2.411,0 -4.365,-1.955 -4.365,-4.364 0,-2.412 1.955,-4.366 4.365,-4.366 1.852,0 3.433,1.153 4.068,2.781 0.634,-1.628 2.215,-2.781 4.067,-2.781 2.411,-0.001 4.365,1.954 4.365,4.366 z M 78.089,79.874 H -5.639 V 78.285 H 78.09 v 1.589 z M 60.183,69.161 c 0,-2.412 1.953,-4.366 4.365,-4.366 1.852,0 3.434,1.153 4.068,2.781 0.633,-1.628 2.215,-2.781 4.064,-2.781 2.412,0 4.365,1.954 4.365,4.366 0,2.409 -1.953,4.364 -4.365,4.364 -1.852,0 -3.432,-1.155 -4.064,-2.782 -0.637,1.627 -2.217,2.782 -4.068,2.782 -2.412,0 -4.365,-1.955 -4.365,-4.364 z M 39.103,48.723 V 18.564 h 19.643 l 18.65,1.985 3.57,28.174 H 39.103 z"
   id="path31356" />
	</g>
</g>
<g
   id="iPhone"
   style="display:none">
	<g
   id="g31359"
   style="display:inline">
		<path
   d="M 54.328,-0.5 H 19.063 c -4.328,0 -7.837,3.508 -7.837,7.836 v 84.327 c 0,4.328 3.509,7.837 7.837,7.837 h 35.265 c 4.328,0 7.836,-3.509 7.836,-7.837 V 7.336 C 62.164,3.008 58.656,-0.5 54.328,-0.5 z M 32.841,7.815 h 7.708 c 0.575,0 1.043,0.467 1.043,1.044 0,0.576 -0.468,1.043 -1.043,1.043 h -7.708 c -0.577,0 -1.044,-0.467 -1.044,-1.043 0,-0.577 0.467,-1.044 1.044,-1.044 z m -4.492,-0.4 c 0.687,0 1.244,0.557 1.244,1.244 0,0.687 -0.557,1.244 -1.244,1.244 -0.687,0 -1.244,-0.557 -1.244,-1.244 0,-0.687 0.558,-1.244 1.244,-1.244 z m 8.346,87.856 c -2.705,0 -4.898,-2.191 -4.898,-4.896 0,-2.706 2.193,-4.898 4.898,-4.898 2.705,0 4.897,2.192 4.897,4.898 0,2.705 -2.192,4.896 -4.897,4.896 z M 58.246,81.989 H 15.145 V 17.011 h 43.101 v 64.978 z"
   id="path31361" />
	</g>
</g>
<g
   id="iPad"
   style="display:none">
	<g
   id="g31364"
   style="display:inline">
		<path
   d="m 70.226,-0.5 h -68 c -2.762,0 -5,2.239 -5,5 v 90 c 0,2.762 2.238,5 5,5 h 68 c 2.762,0 5,-2.238 5,-5 v -90 c 0,-2.761 -2.238,-5 -5,-5 z m -34,98.5 c -1.38,0 -2.5,-1.119 -2.5,-2.5 0,-1.381 1.119,-2.5 2.5,-2.5 1.383,0 2.5,1.119 2.5,2.5 0,1.381 -1.117,2.5 -2.5,2.5 z m 31.002,-7.537 c 0,0.572 -0.465,1.037 -1.033,1.037 H 6.26 C 5.691,91.5 5.227,91.035 5.227,90.463 V 8.537 C 5.227,7.964 5.691,7.5 6.26,7.5 h 59.935 c 0.568,0 1.033,0.464 1.033,1.037 v 81.926 z"
   id="path31366" />
	</g>
</g>
<g
   id="Power"
   style="display:none">
	<g
   id="g31369"
   style="display:inline">
		<path
   d="M -9.774,53.072 C -9.79,40.2 -4.453,30.462 0.706,24.28 l 0,0 C 5.893,18.047 10.93,15.044 11.382,14.764 l 0,0 c 3.368,-1.993 7.697,-0.849 9.667,2.555 l 0,0 c 1.966,3.392 0.851,7.747 -2.489,9.75 l 0,0 0.001,0.001 c 0,0 -0.004,0.001 -0.015,0.008 l 0,0 c -0.009,0.004 -0.023,0.014 -0.042,0.026 l 0,0 c -0.068,0.042 -0.194,0.125 -0.367,0.244 l 0,0 c -0.351,0.234 -0.897,0.625 -1.572,1.162 l 0,0 c -1.349,1.073 -3.203,2.74 -5.029,4.945 l 0,0 C 7.867,37.922 4.37,44.253 4.355,53.07 l 0,0 c 0.003,8.89 3.547,16.883 9.314,22.723 l 0,0 c 5.78,5.83 13.687,9.416 22.48,9.418 l 0,0 c 8.793,-0.002 16.699,-3.588 22.478,-9.418 l 0,0 c 5.77,-5.84 9.313,-13.833 9.316,-22.723 l 0,0 C 67.926,44.523 64.649,38.328 61.106,33.876 l 0,0 c -3.373,-4.221 -6.982,-6.572 -7.342,-6.791 l 0,0 C 53.76,27.082 53.755,27.081 53.752,27.079 l 0,0 c -0.005,-0.003 -0.008,-0.005 -0.011,-0.006 l 0,0 C 53.738,27.07 53.734,27.07 53.734,27.07 l 0,0 0,0 c -3.336,-2.005 -4.452,-6.36 -2.488,-9.752 l 0,0 c 1.972,-3.404 6.3,-4.548 9.667,-2.555 l 0,0 c 0.454,0.279 5.491,3.282 10.678,9.516 l 0,0 c 5.162,6.183 10.496,15.92 10.481,28.792 l 0,0 C 82.07,78.708 61.509,99.491 36.15,99.5 l 0,0 C 10.791,99.491 -9.768,78.708 -9.774,53.072 l 0,0 z"
   id="path31371" />
		<path
   d="M 29.085,49.501 V 28.071 6.643 c 0,-3.944 3.163,-7.143 7.066,-7.143 l 0,0 c 3.899,0 7.062,3.199 7.062,7.143 l 0,0 v 21.428 21.43 h 0.002 c 0,3.94 -3.165,7.142 -7.064,7.142 l 0,0 c -3.903,0 -7.066,-3.202 -7.066,-7.142 l 0,0 z"
   id="path31373" />
	</g>
</g>
<g
   id="City"
   style="display:none">
	<g
   id="g31376"
   style="display:inline">
		<g
   id="g31378">
			<path
   d="m 58.754,67.279 c -6.369,0 -12.141,2.572 -16.33,6.735 4.469,2.974 6.594,8.539 5.17,16.431 H 81.922 C 81.922,77.65 71.549,67.279 58.754,67.279 z"
   id="path31380" />
			<path
   d="m 33.036,75.885 c -8.042,0 -14.559,6.521 -14.559,14.561 h 29.117 c 0,-8.041 -6.52,-14.561 -14.558,-14.561 z"
   id="path31382" />
		</g>
		<polygon
   points="36.606,2.434 36.623,5.116 36.619,5.116 36.619,43.871 42.795,49.928 42.795,8.803 49.444,8.803 49.444,60.647 55.62,60.647 55.62,8.803 62.281,8.803 62.281,60.647 68.457,60.647 68.457,8.803 75.553,8.803 75.553,65.008 81.922,70.559 81.922,2.434 68.629,2.434 68.629,-3.305 49.164,-3.305 49.164,2.434 "
   id="polygon31384" />
		<g
   id="g31386">
			<path
   d="M 33.032,50.442 H 3.581 L 0.316,90.445 h 11.793 c 0,-11.539 9.388,-20.925 20.927,-20.925 1.51,0 2.98,0.167 4.4,0.473 l 0.503,-0.497 c 1.522,-1.512 3.187,-2.817 4.95,-3.944 V 60.649 L 33.032,50.442 z"
   id="path31388" />
			<path
   d="M -18.052,34.912 V 90.445 H -0.092 0.26 V 34.912 L -8.973,12.355 -18.052,34.912 z M -4.178,43.9 c 0,2.547 -2.063,4.615 -4.619,4.615 -2.55,0 -4.614,-2.068 -4.614,-4.615 0,-2.55 2.063,-4.614 4.614,-4.614 2.555,0 4.619,2.065 4.619,4.614 z"
   id="path31390" />
		</g>
	</g>
</g>
<g
   id="Afro"
   style="display:none">
	<g
   id="g31393"
   style="display:inline">
		<g
   id="g31395">
			<path
   d="m 20.298,59.79 c -0.356,1.319 -0.559,2.823 -0.559,4.421 0,2.959 0.689,5.6 1.771,7.338 2.34,1.393 4.307,4.215 5.564,7.881 2.568,-2.232 7.076,-2.299 8.313,-2.299 h 2.938 2.939 c 1.234,0 5.741,0.064 8.312,2.299 1.258,-3.666 3.226,-6.488 5.564,-7.881 1.08,-1.738 1.771,-4.379 1.771,-7.338 0,-1.598 -0.201,-3.102 -0.56,-4.421 l -0.008,-0.027 c -0.326,-1.338 -0.523,-2.808 -0.523,-4.452 0,-1.508 0.155,-2.93 0.427,-4.187 0.095,-0.408 0.149,-0.822 0.149,-1.262 0,-2.861 -2.157,-5.181 -4.818,-5.181 -1.38,0 -2.617,0.625 -3.51,1.634 l -0.124,0.146 c -2.258,2.642 -5.694,4.328 -9.547,4.328 h -0.075 -0.076 c -3.851,0 -7.288,-1.687 -9.547,-4.328 l -0.123,-0.146 c -0.892,-1.009 -2.13,-1.634 -3.511,-1.634 -2.66,0 -4.816,2.319 -4.816,5.181 0,0.36 0.036,0.703 0.103,1.039 0.306,1.311 0.479,2.812 0.479,4.408 0,1.646 -0.197,3.115 -0.523,4.453 l -0.01,0.028 0,0 z M 38.326,81.516 H 38.18 c 0,0 -1.831,0.004 -5.327,0.244 -3.493,0.24 -2.991,4.707 -2.493,6.682 0.383,1.512 1.678,3.045 3.059,3.316 2.803,0.371 3.849,-0.984 3.849,-2.6 0,-1.057 0.135,-1.686 -1.685,-2.664 -0.687,-0.357 -1.132,-0.938 -1.089,-1.834 1.177,0.195 2.463,0.305 3.809,0.305 h 0.023 0.024 c 1.346,0 2.631,-0.107 3.809,-0.305 0.044,0.896 -0.402,1.477 -1.09,1.834 -1.817,0.979 -1.682,1.607 -1.682,2.664 0,1.615 1.045,2.971 3.847,2.6 1.381,-0.271 2.677,-1.807 3.058,-3.316 0.499,-1.975 1.002,-6.439 -2.493,-6.682 -3.493,-0.24 -5.326,-0.244 -5.326,-0.244 h -0.147 l 0,0 z M 16.105,57.388 c -1.035,1.63 -1.456,3.95 -0.994,6.438 0.604,3.244 2.537,5.877 4.816,6.918 l -3.822,-13.356 0,0 z m 40.672,13.184 c 2.126,-1.139 3.898,-3.666 4.468,-6.746 0.434,-2.318 0.095,-4.495 -0.793,-6.1 l -3.675,12.846 0,0 z M -8.633,38.453 c 0,-21.107 21.012,-38.217 46.932,-38.217 25.92,0 46.931,17.11 46.931,38.217 0,16.065 -12.171,29.813 -29.411,35.467 l -0.75,2.621 c -1.64,6.16 -2.461,11.838 -3.714,14.512 -1.032,4.363 -6.437,8.068 -12.889,8.068 l -0.141,-0.002 -0.139,0.002 c -6.455,0 -11.856,-3.705 -12.891,-8.068 -1.252,-2.674 -2.072,-8.352 -3.713,-14.512 L 20.838,73.939 C 3.567,68.299 -8.633,54.537 -8.633,38.453 l 0,0 z m 34.04,24.5 c 0.499,-0.492 1.988,-1.789 4.125,-2.088 2.395,-0.332 3.649,1.689 3.873,2.088 h -7.998 l 0,0 z m -1.955,-3.59 c 1.142,-1.392 3.199,-2.4 5.605,-2.569 1.941,-0.136 3.734,0.303 5.052,1.118 l 1.409,3.588 c -1.684,-1.592 -4.551,-2.71 -7.667,-2.805 -1.658,-0.05 -3.164,0.2 -4.399,0.668 l 0,0 z m 29.451,0 C 51.669,58.894 50.164,58.644 48.505,58.695 45.39,58.79 42.522,59.908 40.837,61.5 l 1.409,-3.588 c 1.316,-0.815 3.11,-1.254 5.053,-1.118 2.405,0.169 4.464,1.178 5.604,2.569 l 0,0 z m -1.955,3.59 h -7.997 c 0.222,-0.398 1.479,-2.42 3.872,-2.088 2.137,0.299 3.626,1.596 4.125,2.088 l 0,0 z"
   id="path31397" />
		</g>
	</g>
</g>
<g
   id="Fort"
   style="display:none">
	<g
   id="g31400"
   style="display:inline">
		<g
   id="Layer_3_1_">
		</g>
		<g
   id="Layer_2_1_">
		</g>
		<g
   id="g31404">
			<path
   d="m 72.82,51.818 -1.879,-1.98 -1.881,1.98 -1.879,-1.98 -1.879,1.98 -1.879,-1.98 -1.879,1.98 -1.881,-1.98 -0.98,1.034 V 29.651 c 0,-0.36 -0.357,-0.652 -0.797,-0.652 -0.44,0 -0.797,0.292 -0.797,0.652 v 21.433 l -1.184,-1.245 -1.879,1.979 -1.879,-1.98 -1.881,1.98 -1.879,-1.98 -1.879,1.98 -1.879,-1.98 -1.879,1.98 -1.879,-1.98 -1.881,1.98 V 37.761 L 23.945,28.583 8.924,37.761 v 14.056 l -1.88,-1.979 -1.879,1.979 -1.879,-1.979 -1.879,1.98 -1.88,-1.98 -1.879,1.98 -1.879,-1.98 -1.879,1.98 V 74.027 H 76.578 V 51.818 l -1.879,-1.98 -1.879,1.98 z"
   id="path31406" />
			<path
   d="M 76.615,29.451 C 74.203,30.503 72.808,29.969 71.062,29.293 69.859,28.827 68.5,28.3 66.63,28.3 c -3.152,0 -5.5,1.523 -6.541,2.345 v 10.541 c 0.508,-0.461 3.012,-2.559 6.541,-2.559 1.74,0 2.982,0.48 4.184,0.945 1.678,0.651 3.273,1.265 5.773,0.274 l -5.104,-5.104 5.131,-5.13 v -0.161 z"
   id="path31408" />
		</g>
	</g>
</g>
<g
   id="Tag_2"
   style="display:none">
	<g
   id="g31411"
   style="display:inline">
		<path
   d="M -8.743,21.079 V 40.03 l 60.135,60.136 c 2.617,2.615 6.859,2.615 9.477,0 l 28.426,-28.43 c 2.617,-2.615 2.617,-6.857 0,-9.477 L 29.16,2.126 H 10.21 L -8.743,21.079 z m 31.399,12.104 c -2.617,2.617 -6.859,2.617 -9.477,0 -2.617,-2.617 -2.617,-6.859 0,-9.476 2.616,-2.617 6.857,-2.617 9.477,0 2.617,2.617 2.617,6.858 0,9.476 z"
   id="path31413" />
	</g>
</g>
<g
   id="Tag_1"
   style="display:none">
	<g
   id="g31416"
   style="display:inline">
		<path
   d="M 88.469,61.021 28.334,0.888 H -9.568 V 38.79 l 60.135,60.135 c 2.617,2.617 6.859,2.617 9.477,0 L 88.47,70.497 c 2.616,-2.615 2.616,-6.858 -0.001,-9.476 z M 12.355,31.944 c -2.616,-2.617 -2.616,-6.859 0,-9.476 2.616,-2.617 6.858,-2.617 9.476,0 2.618,2.617 2.617,6.859 0,9.476 -2.618,2.617 -6.86,2.617 -9.476,0 z"
   id="path31418" />
	</g>
</g>
<g
   id="Butterfly"
   style="display:none">
	<g
   id="g31421"
   style="display:inline">
		<path
   d="M 85.857,20.961 C 85.752,19.685 83.929,18.615 83.076,18.366 68.08,14.003 44.117,40.776 38.68,47.141 l 0.016,-0.263 c 0.012,-0.101 0.018,-0.203 0.018,-0.307 0,-1.559 -1.264,-2.822 -2.822,-2.822 -1.559,0 -2.821,1.263 -2.821,2.822 0,0.104 0.007,0.206 0.018,0.307 l 0.016,0.263 C 27.664,40.776 3.7,14.003 -11.296,18.366 c -0.854,0.249 -2.677,1.318 -2.78,2.595 -0.248,3.08 0.861,5.627 2.882,7.614 8.012,7.875 5.438,15.677 7.683,20.727 1.318,2.966 11.071,3.666 8.898,4.448 -20.597,7.414 4.119,35.261 15.652,28.341 4.379,-2.627 11.979,-15.557 13.053,-17.407 l 0.52,9.156 c 0,0.706 0.572,1.278 1.277,1.278 0.707,0 1.279,-0.572 1.279,-1.278 l 0.519,-9.156 c 1.072,1.851 8.674,14.78 13.053,17.407 11.535,6.92 36.25,-20.927 15.654,-28.341 -2.176,-0.782 7.578,-1.482 8.896,-4.448 2.244,-5.05 -0.33,-12.853 7.682,-20.727 2.022,-1.987 3.133,-4.535 2.885,-7.614 z"
   id="path31423" />
	</g>
</g>
<g
   id="Bear"
   style="display:none">
	<g
   id="g31426"
   style="display:inline">
		<path
   d="m 6.344,20.093 c 0,0 -2.713,-4.171 -4.833,-3.525 -2.333,0.71 -1.137,5.351 -1.137,5.351 -4.348,0.754 -6.248,7.257 -14.025,7.775 -2.854,0.19 -0.239,7.377 7.543,8.941 10.818,2.175 18.603,7.619 19.69,11.021 0.651,2.038 6.502,22.364 4.017,26.057 0,0 -4.677,1.088 -2.448,5.443 0.586,1.146 10.262,0.785 10.852,-1.378 0.233,-0.857 2.553,-8.252 2.553,-8.252 2.104,2.418 2.031,5.195 0.319,7.213 -1.397,1.646 1.72,4.905 6.135,3.477 5.297,-1.714 5.565,-16.114 5.565,-21.813 0,0 9.972,3.696 20.335,1.877 0,0 1.292,12.526 0.705,13.335 -0.607,0.837 -4.277,2.695 -1.861,5.675 1.661,2.049 6.268,1.563 7.709,0.28 3.077,-2.736 6.441,-15.158 6.441,-15.158 0,0 3.024,9.582 2.511,10.094 -3.21,3.188 -1.162,6.313 2.101,6.313 0,0 5.479,0.927 6.712,-4.01 0,0 -1.389,-25.691 -0.437,-30.988 C 87.02,35.411 61.672,29.653 58.137,29.312 52.089,28.728 37.822,28.696 36.086,28.115 c -1.59,-0.533 -5.487,-2.761 -8.175,-3.272 -2.176,-0.414 -5.349,0.502 -7.098,0.202 -1.994,-0.342 -7.55,-2.912 -7.55,-2.912 0,0 0.271,-3.868 -2.288,-4.555 -1.715,-0.463 -4.631,2.515 -4.631,2.515 z"
   id="path31428" />
	</g>
</g>
<g
   id="Moose"
   style="display:none">
	<g
   id="g31431"
   style="display:inline">
		<path
   d="M 84.712,69.725 C 83.989,68.399 82.993,67.19 81.784,66.225 81.423,65.923 81.03,65.621 80.608,65.289 80.306,65.078 80.064,64.807 79.915,64.475 79.221,63.206 78.646,61.819 78.284,60.371 77.862,58.683 77.53,56.933 77.38,55.149 l -0.182,-1.658 -0.091,-0.936 -0.03,-0.424 c 0,-0.029 0,-0.029 0,-0.061 0,-0.693 -0.119,-1.389 -0.361,-2.051 -0.361,-0.906 -1.086,-1.57 -1.991,-1.871 -0.181,-0.061 -0.362,-0.091 -0.543,-0.091 -0.151,0 -0.271,0 -0.394,0.03 -0.09,0.03 -0.24,0.061 -0.422,0.091 l -0.664,0.15 -0.453,0.121 -0.451,0.121 -0.694,0.121 -0.724,0.211 -0.814,0.182 -0.725,0.211 -0.424,0.151 c -0.211,0.121 -0.422,0.181 -0.633,0.241 -0.121,0.031 -0.211,0.031 -0.303,0.031 -0.754,-0.151 -1.268,-0.845 -1.207,-1.6 0.03,-0.513 0.061,-1.056 0.061,-1.569 0,-0.845 -0.061,-1.66 -0.149,-2.475 l -0.062,-0.513 c 0.182,-0.03 0.303,-0.121 0.453,-0.241 0.725,-0.785 1.146,-1.811 1.146,-2.896 0,-0.061 0,-0.151 0,-0.211 -0.029,-0.634 -0.241,-1.268 -0.603,-1.78 -0.996,-1.479 -2.385,-2.716 -3.983,-3.53 L 61.9,34.269 61.236,33.967 60.574,33.726 60,33.484 59.365,33.243 58.672,32.972 c -0.301,-0.09 -0.604,-0.181 -0.936,-0.271 -0.936,-0.211 -1.871,-0.332 -2.775,-0.392 -0.725,-0.03 -1.448,-0.061 -2.172,-0.061 0,0 -0.031,0 -0.062,0 -1.146,0 -2.323,0 -3.501,-0.03 -0.332,-0.03 -0.633,-0.03 -0.936,-0.03 -0.936,0 -1.871,0.061 -2.807,0.121 -0.271,0.03 -0.514,0.03 -0.755,0.03 -0.905,-0.03 -1.812,-0.121 -2.687,-0.302 -0.692,-0.121 -1.328,-0.302 -1.99,-0.543 C 39.627,31.313 39.146,31.162 38.662,31.011 38.33,30.92 38.029,30.8 37.757,30.649 37.426,30.467 37.094,30.316 36.732,30.166 36.219,29.985 35.736,29.744 35.253,29.441 34.77,29.17 34.227,28.868 33.684,28.596 c -0.543,-0.272 -1.086,-0.543 -1.629,-0.875 -0.604,-0.332 -1.237,-0.604 -1.871,-0.785 -1.238,-0.362 -2.505,-0.543 -3.802,-0.573 -0.091,0 -0.181,0 -0.271,0 -1.569,0 -3.138,0.181 -4.677,0.513 -1.509,0.302 -2.987,0.694 -4.436,1.116 l -1.237,0.393 -0.483,0.121 0.181,-0.272 0.422,-0.513 0.362,-0.422 0.543,-0.573 0.513,-0.483 0.694,-0.604 1.117,-0.965 0.965,-0.875 0.785,-0.815 0.966,-1.237 c 0.271,-0.453 0.482,-0.905 0.694,-1.418 0.211,-0.573 0.332,-1.207 0.362,-1.841 0,-0.06 0,-0.09 0,-0.151 0,-0.573 -0.091,-1.177 -0.211,-1.75 0,-0.06 -0.03,-0.09 -0.091,-0.09 h -0.06 c -0.664,1.268 -1.449,2.535 -2.293,3.742 -0.422,0.634 -0.935,1.177 -1.539,1.569 l -0.452,0.302 c 0.301,-0.996 0.452,-2.021 0.452,-3.047 l 0.03,-0.664 -0.06,-0.905 -0.061,-0.513 c -0.061,-0.151 -0.211,-0.272 -0.362,-0.272 -0.181,0 -0.332,0.121 -0.393,0.272 l -0.121,0.513 -0.271,0.694 -0.332,0.875 -0.241,0.573 -0.422,0.845 c -0.151,0.362 -0.393,0.694 -0.694,0.936 -0.482,0.42 -1.236,0.058 -1.236,-0.576 0,0 0,-0.061 0,-0.09 l 0.272,-2.052 c 0.06,-0.211 0.09,-0.422 0.121,-0.634 v -0.03 c 0,-0.09 -0.061,-0.151 -0.151,-0.181 -0.061,-0.03 -0.091,-0.03 -0.151,-0.03 -0.091,0 -0.211,0.03 -0.302,0.09 l -0.996,0.815 -0.754,0.724 -0.694,0.694 -1.509,1.72 C 10.029,22.169 9.516,21.988 9.456,21.535 L 9.306,20.63 9.185,19.694 9.124,18.758 9.064,17.763 9.003,17.37 C 8.973,17.28 8.913,17.219 8.822,17.219 8.671,17.219 8.52,17.31 8.43,17.43 7.706,18.366 7.072,19.391 6.559,20.508 6.409,20.84 6.167,21.172 5.926,21.443 5.624,21.745 5.111,21.625 4.99,21.232 4.869,20.84 4.749,20.478 4.628,20.086 4.478,19.633 4.447,19.301 4.538,18.969 c 0.09,-0.453 0.121,-0.905 0.121,-1.358 0,-0.271 0,-0.543 -0.03,-0.815 L 4.508,15.921 c 0,-0.24 -0.211,-0.421 -0.453,-0.421 -0.151,0 -0.271,0.061 -0.362,0.181 -0.302,0.362 -0.543,0.755 -0.754,1.177 -0.423,0.814 -0.634,1.72 -0.694,2.625 l -0.03,0.543 C 1.401,19.121 0.706,18.155 0.194,17.069 L 0.073,16.827 -0.47,19.935 -0.681,19.452 -0.863,19 -1.165,18.336 -1.738,17.22 -2.492,16.074 C -2.613,15.953 -2.734,15.832 -2.885,15.712 -3.036,15.561 -3.217,15.5 -3.428,15.5 c -0.453,0 -0.814,0.362 -0.814,0.815 0,0.121 0,0.241 0.03,0.362 0.03,0.664 0.151,1.357 0.393,1.992 l 0.241,0.693 0.393,0.845 c 0.03,0.03 0.06,0.061 0.06,0.121 -0.03,0.211 -0.211,0.332 -0.392,0.302 L -3.639,20.6 -3.911,20.51 -4.152,20.359 -4.605,20.088 -6.174,18.789 -6.385,18.608 -6.687,18.367 -6.899,18.156 -7.08,17.944 -7.411,17.612 c 0,-0.03 -0.03,-0.03 -0.061,-0.06 -0.031,-0.03 -0.06,-0.03 -0.121,-0.03 -0.061,0 -0.121,0.03 -0.151,0.121 -0.03,0.09 -0.03,0.151 -0.03,0.241 0,0.091 0,0.181 0.03,0.272 0.182,0.724 0.393,1.448 0.695,2.112 l 0.483,1.237 0.151,0.392 0.03,0.151 c 0,0.03 0,0.03 0,0.03 0,0.09 -0.061,0.151 -0.121,0.211 -0.15,0.06 -0.301,0.06 -0.392,-0.03 l -0.543,-0.271 -0.604,-0.392 -0.604,-0.393 -0.664,-0.422 -1.056,-0.815 -1.327,-1.147 -1.117,-1.086 c -0.09,-0.061 -0.15,-0.09 -0.272,-0.121 -0.03,0 -0.06,-0.03 -0.09,-0.03 -0.09,0 -0.181,0.061 -0.241,0.151 -0.061,0.061 -0.09,0.15 -0.09,0.241 0,0.06 0.03,0.121 0.03,0.151 0.694,1.599 1.66,3.048 2.836,4.254 0.573,0.574 1.146,1.117 1.78,1.6 0.725,0.573 1.509,1.117 2.324,1.569 0.241,0.15 0.482,0.301 0.754,0.453 0.362,0.241 0.724,0.482 1.056,0.754 0.362,0.271 0.664,0.604 0.936,0.936 l 0.241,0.332 c -1.72,0.09 -3.47,0.332 -5.19,0.724 -1.418,0.333 -2.746,0.875 -3.953,1.69 -1.117,0.754 -1.871,1.931 -2.052,3.259 -0.03,0.06 -0.03,0.15 -0.03,0.241 0,0.814 0.513,1.539 1.268,1.781 0.09,0.03 0.181,0.06 0.241,0.06 0.181,0 0.332,-0.06 0.453,-0.151 l 0.121,-0.09 c 0.151,0.604 0.543,1.086 1.056,1.388 0.604,0.332 1.267,0.513 1.931,0.513 0.091,0 0.181,0 0.271,0 0.724,-0.03 1.388,-0.121 2.082,-0.181 0.634,-0.09 1.268,-0.181 1.901,-0.302 0.362,-0.061 0.725,-0.09 1.117,-0.061 0.392,0.061 0.754,0.242 1.026,0.543 0.211,0.181 0.362,0.422 0.513,0.694 0.271,0.453 0.543,0.875 0.845,1.267 0.815,1.117 1.901,2.052 3.108,2.716 0.664,0.362 1.328,0.694 2.022,0.966 0.694,0.301 1.448,0.542 2.233,0.693 1.388,0.332 2.716,0.543 4.043,0.785 0.785,0.121 1.599,0.332 2.384,0.634 0.664,0.271 1.297,0.633 1.871,1.086 0.694,0.694 1.116,1.6 1.116,2.595 0,0.03 0,0.061 0,0.061 l -0.06,1.448 c 0,0.061 0,0.121 0,0.183 0,0.845 0.211,1.658 0.604,2.383 0.09,0.212 0.181,0.393 0.271,0.574 0.03,0.149 0.09,0.271 0.121,0.422 0.09,0.361 0.121,0.725 0.121,1.117 0,0.211 -0.03,0.451 -0.06,0.664 -0.061,0.541 -0.151,1.115 -0.302,1.688 -0.09,0.513 -0.271,0.966 -0.543,1.418 -0.392,0.694 -0.875,1.388 -1.358,2.052 l -2.143,2.957 -0.814,1.146 -1.298,1.871 -1.176,1.689 -1.177,1.721 -1.569,2.504 c -0.483,0.846 -1.056,1.601 -1.69,2.323 -0.694,0.784 -1.328,1.599 -1.961,2.414 -0.634,0.814 -1.358,1.509 -2.172,2.052 l -0.996,0.635 -1.116,0.634 -1.207,0.634 -0.271,0.211 c -0.061,0 -0.091,0.03 -0.121,0.061 -0.09,0.061 -0.15,0.15 -0.15,0.242 0,0.028 0,0.061 0,0.09 0.06,0.211 0.241,0.393 0.453,0.453 0.392,0.121 0.754,0.18 1.146,0.18 0.06,0 0.121,0 0.181,0 1.328,-0.06 2.414,-0.12 3.53,-0.211 0.814,-0.062 1.78,-0.302 2.655,-0.724 0.302,-0.121 0.574,-0.303 0.875,-0.483 0.332,-0.241 0.664,-0.543 0.905,-0.875 0.181,-0.271 0.393,-0.513 0.604,-0.755 1.207,-1.6 2.354,-3.229 3.5,-4.889 0.513,-0.783 1.207,-1.689 1.931,-2.535 1.147,-1.326 2.203,-2.686 3.259,-4.043 1.268,-1.66 2.656,-3.289 4.074,-4.828 0.362,-0.393 0.754,-0.844 1.177,-1.327 0.242,-0.271 0.604,-0.634 0.936,-0.935 0.513,-0.484 0.905,-1.088 1.117,-1.781 0.211,-0.633 0.453,-1.207 0.664,-1.78 1.237,-2.896 5.462,-2.563 6.216,0.513 l 0.211,0.875 0.151,0.664 0.151,0.876 0.091,0.481 c 0.302,1.299 0.573,2.596 0.785,3.894 0.061,0.302 0.15,0.664 0.211,1.026 0.061,0.33 0.151,0.633 0.272,0.936 0.392,0.936 0.845,1.84 1.388,2.686 0.422,0.664 0.965,1.236 1.569,1.75 l 2.504,1.932 1.509,1.298 0.693,0.663 -1.392,0.572 -0.846,0.393 -0.753,0.331 c -0.544,0.182 -1.177,0.362 -1.811,0.574 -0.543,0.182 -0.905,0.331 -1.297,0.513 -0.483,0.212 -0.905,0.544 -1.237,0.937 -0.121,0.15 -0.211,0.332 -0.211,0.513 0.03,0.604 0.272,1.207 0.664,1.63 0.302,0.331 0.724,0.573 1.146,0.663 0.543,0.151 1.086,0.212 1.63,0.212 0.12,0 0.271,0 0.422,0 1.328,-0.091 2.595,-0.482 3.772,-1.178 l 2.866,-1.75 0.302,-0.211 c 1.269,1.025 2.565,1.931 3.923,2.746 0.875,0.513 1.78,0.935 2.746,1.268 0.604,0.211 1.268,0.361 1.901,0.393 l 0.392,0.029 c 0.03,-0.15 0.03,-0.332 0.03,-0.481 0,-0.241 -0.03,-0.513 -0.06,-0.755 -0.092,-0.452 -0.242,-0.875 -0.424,-1.269 -0.15,-0.301 -0.332,-0.603 -0.543,-0.875 -0.332,-0.452 -0.725,-0.905 -1.117,-1.327 L 48.171,77.574 47.628,77.032 46.934,76.488 46.33,76.035 45.848,75.642 45.305,75.34 44.823,75.099 c 0.756,-0.785 1.569,-1.539 2.414,-2.232 1.721,-1.418 2.987,-2.444 4.285,-3.471 0.604,-0.513 1.659,-1.629 2.504,-2.867 0.332,-0.451 0.514,-1.024 0.544,-1.598 l 0.029,-0.424 0.091,-0.995 c 0.271,-2.354 0.967,-4.646 2.021,-6.76 l 0.182,-0.362 c 1.116,2.053 3.229,3.381 5.552,3.44 0.062,0 0.151,0 0.212,0 1.6,0 3.139,-0.483 4.405,-1.448 l 1.297,-0.936 1.058,-0.725 1.115,-0.693 c 0.121,-0.092 0.271,-0.121 0.424,-0.121 0.604,-0.03 1.176,0.181 1.629,0.543 0.182,0.121 0.332,0.271 0.422,0.453 0.15,0.211 0.242,0.422 0.363,0.662 0.149,0.332 0.24,0.694 0.301,1.026 0.029,0.332 0.062,0.573 0.092,0.845 0.061,0.332 0.09,0.726 0.15,1.086 0.061,0.604 0.181,1.179 0.361,1.75 0.15,0.574 0.332,1.147 0.482,1.722 0.361,1.418 0.936,2.776 1.689,4.014 0.604,0.966 1.268,1.9 2.021,2.745 0.271,0.332 0.634,0.604 0.994,0.875 l 1.361,0.873 c 0.994,0.664 2.143,0.996 3.318,0.996 0,0 0,0 0.029,0 0.453,0 0.814,-0.303 0.936,-0.725 0.092,-0.33 0.121,-0.692 0.121,-1.024 0.001,-0.695 -0.181,-1.389 -0.513,-2.023 z M 48.535,61.91 c -0.271,1.447 -0.756,2.896 -1.42,4.225 -1.297,2.534 -3.138,4.707 -5.4,6.396 L 41.383,72.26 c -1.297,-1.146 -2.475,-2.384 -3.53,-3.74 L 36.737,67.1 c -0.453,-0.692 -0.814,-1.447 -1.056,-2.231 -0.302,-0.966 -0.483,-1.933 -0.543,-2.927 -0.09,-1.901 -0.03,-3.834 0.181,-5.765 0.664,0 1.328,0 1.991,0.062 0.543,0.06 1.087,0.119 1.629,0.271 1.238,0.302 2.535,0.482 3.833,0.482 1.237,0 2.475,-0.15 3.682,-0.452 0.814,-0.182 1.6,-0.482 2.323,-0.905 l 0.062,0.724 c 0.029,0.545 0.029,1.026 0.029,1.539 -0.003,1.356 -0.122,2.684 -0.333,4.012 z"
   id="path31433" />
	</g>
</g>
<g
   id="Crow"
   style="display:none">
	<g
   id="g31436"
   style="display:inline">
		<path
   d="M 73.064,13.742 C 71.61,10.304 56.607,4.753 51.65,26.895 l -26.173,19.63 -39.153,23.443 1.961,0.679 5.202,-1.518 -8.261,4.879 2.709,0.938 28.024,-8.327 c 0,0 12.643,1.727 22.494,1.733 -0.463,0.93 -0.928,1.857 -1.393,2.786 -0.469,0.939 3.497,10.33 4.962,14.802 -2.47,0.375 -4.941,0.751 -7.411,1.126 -0.883,0.135 -0.506,1.472 0.369,1.338 2.602,-0.395 5.203,-0.789 7.805,-1.185 2.601,0.396 5.203,0.79 7.803,1.185 0.875,0.134 1.252,-1.203 0.369,-1.338 -2.492,-0.379 -4.983,-0.757 -7.476,-1.136 -0.112,-0.385 -0.228,-0.77 -0.341,-1.154 -0.441,-1.498 -0.885,-2.994 -1.327,-4.492 -0.827,-2.799 -1.651,-5.597 -2.479,-8.395 -0.006,-0.02 -0.012,-0.032 -0.017,-0.049 0.3,-0.603 9.757,-4.912 9.757,-4.912 0,0 -0.004,0 -0.005,-10e-4 34.357,-12.367 15.432,-40.718 22.675,-45.121 3.045,-1.851 13.482,-4.627 13.482,-4.627 0,-3.159 -12.162,-3.437 -12.162,-3.437 z"
   id="path31438" />
	</g>
</g>
<g
   id="Deer_2"
   style="display:none">
	<g
   id="g31441"
   style="display:inline">
		<path
   d="m 83.863,15.358 c -1.807,-0.048 -2.666,2.372 -3.978,2.364 0.136,-1.137 0.938,-2.282 1.709,-3.489 0.485,-0.639 1.422,-0.991 1.222,-1.96 -0.104,-0.493 -0.302,-0.813 -0.646,-1.265 -1.602,0.093 -4.387,2.339 -5.307,2.607 -3.216,0.931 -8.057,3.184 -9.041,3.341 -0.693,0.11 -3.08,0.19 -2.851,-0.294 0.483,-1.197 1.5,-2.336 2.621,-3.636 1.021,-1.178 2.512,-2.064 2.909,-3.395 0.506,-1.667 0.554,-4.09 -1.024,-5.854 -0.767,-0.708 -0.103,1.377 0.073,2.256 0.463,3.064 -1.693,4.765 -3.086,5.655 1.094,-3.089 0.689,-7.387 -2.37,-9.777 -1.333,-0.718 0.94,2.285 1.354,4.884 0.163,1.545 -0.432,3.739 -0.963,5.006 -0.619,1.486 -1.143,3.519 -2.693,3.797 -0.365,-2.095 0.926,-4.51 0.207,-6.815 -0.617,-1.968 -1.522,-2.825 -3.367,-3.65 -0.766,-0.197 -0.668,0.503 0.166,1.294 2.427,2.301 2.173,5.718 0.689,7.848 C 56.651,12.57 56.755,8.548 55.163,5.332 54.589,4.164 53.743,3.003 53.023,2.173 52.11,1.103 51.446,-0.792 50.652,-0.462 c -0.505,0.19 3.72,5.599 3.085,6.094 -0.588,0.636 -1.828,-2.25 -3.255,-2.376 -0.817,1.067 7.677,5.993 3.503,9.641 -0.188,-0.443 -0.181,-0.883 -0.654,-1.141 -0.731,-0.346 -0.252,0.969 -0.226,1.4 -3.248,0.776 -5.021,1.302 -7.262,-0.861 -0.574,-0.555 -1.067,-2.067 -2.011,-1.408 -0.156,0.122 1.019,2.427 2.357,3.641 1.86,1.218 4.785,0.591 7.118,0.889 0.401,1.418 0.869,3.018 0.739,4.132 -2.545,2.356 -8.993,4.499 -11.227,3.271 -3.498,-2.382 -6.497,-9.676 -8.473,-11.007 -0.119,-0.03 -0.284,0.08 -0.213,0.238 1.953,4.449 4.018,9.36 6.865,12.073 -4.958,0.836 -7.761,1.016 -10.52,-2.321 -1.794,-2.171 -3.173,-6.682 -4.913,-6.889 -0.7,-0.084 2.092,3.004 1.906,4.741 -0.099,0.936 -4.932,-5.054 -5.021,-4.134 -0.053,0.54 2.151,3.638 3.698,6.021 0.526,0.82 2.431,2.345 2.151,2.572 -3.551,2.2 -6.521,-3.094 -7.316,-3.336 -1.051,-0.257 1.719,5.05 4.393,5.59 1.452,0.291 3.329,-0.24 5.203,-0.083 2.97,0.245 3.505,1.165 6.627,0.896 2.549,-0.218 5.014,-1.128 8.09,-1.717 1.145,-0.219 2.373,-0.197 3.57,-0.521 2.194,-0.596 3.949,-2.271 6.143,-2.226 0.303,0.025 0.443,-0.016 0.617,0.095 -0.02,0.735 -1.076,0.602 -0.818,1.567 0.419,0.566 1.004,0.848 1.62,1.184 0.591,0.321 1.459,0.356 1.789,0.98 -2.882,0.86 -5.862,3.214 -9.153,3.569 -1.279,0.14 -2.98,-0.36 -4.729,0.003 -1.256,0.261 -2.739,1.358 -3.6,1.785 -0.941,0.469 -4.567,1.836 -5.45,2.102 -3.276,0.98 -7.17,2.017 -10.919,2.263 -5.127,0.337 -9.562,-1.667 -14.461,-1.674 -3.147,-0.004 -5.396,0.509 -7.551,1.448 -2.378,1.036 -4.127,2.296 -5.433,4.538 -1.495,2.57 -3.659,7.201 -3.599,9.343 0.044,1.542 0.569,3.839 1.31,4.176 0.732,0.322 0.266,-1.99 1.408,-0.588 1.245,1.403 1.544,3.495 1.029,5.018 -0.794,2.342 -1.198,4.617 -2.505,6.156 -1.82,2.139 -4.072,3.34 -5.465,5.584 0.334,3.883 -0.422,6.847 -0.34,10.323 0.102,4.306 -0.096,7.675 -1.538,10.476 0.435,0.313 1.339,0.086 1.559,0.642 0.186,1.94 0.124,3.29 0.342,4.879 0.898,1.654 4.457,2.987 5.722,0.687 -1.158,-4.344 -2.534,-8.588 -2.451,-13.375 0.056,-3.221 1.107,-6.83 2.191,-9.198 0.406,-0.89 0.79,-2.466 1.408,-2.925 1.446,-1.07 2.227,-2.463 3.37,-3.672 1.349,-1.428 1.749,-2.244 3.338,-3.213 -0.477,1.51 -0.268,3.23 -0.408,4.894 -0.141,1.692 -0.458,3.177 -0.767,4.56 0.687,1.229 1.614,2.125 2.43,2.973 1.062,1.104 1.51,2.234 2.343,3.728 0.469,0.843 1.129,1.651 1.496,2.479 0.576,1.306 0.88,2.848 1.427,4.172 0.536,1.303 1.1,2.479 1.952,3.562 0.696,0.265 1.807,0.048 2.311,0.537 0.477,0.718 0.343,1.69 0.731,2.366 1.127,1.96 4.563,1.962 7.044,0.658 -0.53,-1.267 -1.829,-1.635 -2.114,-3.18 -1.479,-0.563 -2.536,-1.607 -2.892,-3.466 -2.522,-2.429 -5.017,-5.301 -6.49,-8.918 -0.543,-1.341 -1.251,-2.88 -1.237,-4.181 0.011,-0.995 0.603,-2.356 1.08,-3.434 0.855,-1.931 2.027,-3.656 2.849,-5.244 0.688,-1.326 1.275,-2.776 2.185,-3.881 2.057,-1.343 3.771,0.463 5.536,0.709 0.734,-0.015 0.166,-1.131 0.862,-1.175 4.357,1.468 10.083,3.194 16.046,2.37 1.6,-0.223 3.106,-0.822 4.828,-0.908 0.481,2.059 0.955,4.144 1.28,6.319 0.493,3.278 1.255,6.657 1.249,9.964 -0.01,3.7 -0.309,7.357 -0.568,10.945 0.367,0.47 1.183,0.455 1.287,1.207 0.059,0.81 0.178,1.673 -0.057,2.256 0.934,0.859 3.301,0.595 4.939,0.158 -0.364,-1.346 -0.896,-2.438 -1.399,-3.637 0.287,-0.457 0.169,-0.918 0.153,-1.479 -0.063,-2.667 -1.256,-5.109 -0.783,-7.726 0.018,-0.09 0.305,-0.431 0.354,-0.584 0.289,-0.881 0.416,-1.506 0.59,-2.25 0.25,-1.043 -0.701,-6.703 -0.584,-7.99 0.644,3.015 3.563,11.133 4.135,14.68 0.314,1.975 0.258,3.752 0.506,5.963 0.252,0.008 0.264,0.594 0.264,0.86 1.049,0.35 1.012,1.614 2.024,1.7 0.768,0.162 3.239,0.095 4.245,-0.584 C 58.943,91.77 58.09,90.532 57.509,89.012 56.477,86.288 56.22,83.033 55.674,79.938 55.344,78.033 55.278,75.916 54.705,73.979 54.424,73.024 53.58,72.254 53.14,71.194 51.802,67.99 51.842,63.997 51.517,60.699 c 2.056,-0.917 2.53,-3.101 4.271,-4.257 0.56,-0.049 1.117,-0.094 1.676,-0.145 0.562,-0.275 0.9,-0.828 1.631,-0.514 0.281,-0.569 0.711,-1.282 1.587,-0.887 0.116,-0.521 0.479,-0.838 0.601,-1.357 0.725,0.018 0.68,0.146 1.09,-0.281 0.026,-0.65 0.391,-1.031 0.387,-1.723 0.596,0.165 0.418,-0.329 0.699,-0.436 0.166,-0.261 0.121,-0.702 0.287,-0.966 -0.095,-0.485 0.7,-0.207 0.5,-0.795 0.308,-0.493 0.229,-1.318 0.609,-1.75 0.324,0.087 0.051,0.893 0.436,0.906 0.494,-1.622 0.967,-2.902 2.299,-3.796 0.228,-3.732 2.772,-5.96 3.115,-9.596 1.441,-2.084 4.157,-2.847 5.314,-5.131 0.406,-0.807 0.607,-1.657 0.857,-2.051 1.67,-2.644 3.459,-5.921 5.389,-8.313 0.691,-0.281 1.333,-0.925 1.543,-1.629 0.346,-0.639 0.713,-2.171 0.055,-2.62 z M 54.453,15.28 c 1.486,0.653 3.196,0.488 4.103,2.271 -1.538,2.077 -3.392,0.513 -4.103,-2.271 z"
   id="path31443" />
	</g>
</g>
<g
   id="Deer_1"
   style="display:none">
	<g
   id="g31446"
   style="display:inline">
		<path
   d="m 59.433,85.182 c -0.303,-0.303 -0.423,-0.728 0.061,-1.149 0.483,-0.426 1.754,-0.79 2.299,-1.095 0.543,-0.303 0.484,-0.183 1.15,0.181 0.666,0.362 2.149,1.051 2.906,0.116 0.785,-0.97 3.021,-1.82 4.053,-1.822 1.029,-10e-4 2.602,-0.547 3.631,-1.156 1.028,-0.606 3.269,-1.337 4.719,-2.247 1.451,-0.91 0.664,-1.211 -0.787,-1.087 -1.453,0.121 -6.355,0.917 -10.049,1.407 -4.334,0.572 -5.092,-0.238 -7.024,-1.686 -0.972,-0.726 -1.213,-0.967 -2.483,-0.722 -8.873,1.703 -17.42,1.173 -28.335,-1.471 -2.841,3.396 -11.817,5.861 -19.181,7.416 -4.076,0.859 -4.504,1.844 -7.015,4.249 -1.33,1.272 -5.621,6.606 -6.797,8.061 -0.527,0.65 -1.633,1.396 -2.299,1.578 -0.667,0.183 -1.876,0.699 -2.269,1.155 -0.381,0.438 -3.267,1.729 -3.991,2.154 -0.602,0.351 -1.095,0.227 -1.395,-0.181 -0.424,-0.573 0.542,-2.302 1.086,-2.938 0.448,-0.524 1.724,-1.184 2.813,-1.153 1.089,0.028 1.724,-0.336 1.907,-1.093 0.177,-0.759 0.601,-1.184 1.873,-1.608 1.271,-0.426 4.745,-4.033 5.138,-5.396 -1.029,0.699 -5.352,4.431 -5.743,5.247 -0.392,0.816 -1.632,1.456 -2.663,1.607 -0.827,0.123 -3.932,1.49 -4.749,2.036 -0.495,0.33 -1.061,0.147 -1.061,-0.572 -10e-4,-0.908 0.34,-1.648 1.328,-2.726 0.694,-0.76 2.531,-1.323 3.055,-0.976 0.701,0.465 0.82,0.369 1.241,-0.638 0.633,-1.515 2.904,-2.031 3.296,-2.366 2.983,-2.532 5.29,-4.761 6.557,-7.003 0.327,-0.574 0.514,-1.151 0.815,-1.515 0.302,-0.363 0.456,-0.272 0.695,-0.97 0.415,-1.198 0.773,-1.425 2.057,-1.427 8.052,-0.012 10.847,-2.805 11.433,-5.769 1.237,-6.239 2.587,-10.658 5.55,-12.603 0.635,-0.415 0.666,-0.546 -10e-4,-0.906 -3.883,-2.11 -4.063,-4.537 -1.467,-9.08 0.667,-1.163 1.271,-1.032 1.15,-0.123 -0.119,0.909 -0.055,3.511 0.371,4.841 0.426,1.331 1.7,3.147 3.697,2.961 1.998,-0.185 6.84,-0.554 9.384,-0.315 2.543,0.237 12.17,0.525 15.983,0.035 6.758,-0.87 10.951,-3.104 9.854,-8.854 -0.535,-2.799 -1.831,-9.623 -1.533,-12.589 0.078,-0.788 -0.061,-0.789 -0.456,-1.393 -0.608,-0.934 -1.071,-0.721 -1.454,-1.087 -0.727,-0.695 -1.91,-2.176 -2.578,-3.326 -0.613,-1.054 0.209,-1.67 0.543,-1.513 0.516,0.24 0.635,0.18 0.635,-0.183 -2.545,-2.447 -4.038,-5.319 -5.248,-8.074 -0.852,-1.937 -3.883,-5.08 -4.461,-5.866 -0.574,-0.786 -0.848,-1.299 -0.879,-1.966 -0.031,-0.665 0.847,-0.727 0.877,-0.121 0.031,0.604 0.457,1.179 1.123,1.814 0.668,0.634 3.185,2.841 3.485,3.325 0.229,0.363 0.37,0.32 0.546,-0.091 0.687,-1.608 2.711,-3.74 4.17,-5.124 C 55.541,10.87 55.6,10.387 55.658,9.931 55.935,7.836 55.594,6.723 54.319,4.999 54.045,4.627 54.227,3.94 54.955,4.574 c 1.414,1.233 2.225,3.01 2.156,5.052 -0.015,0.418 0.131,0.807 0.575,0.573 0.696,-0.364 2.239,-1.396 2.844,-1.911 0.452,-0.385 0.498,-0.532 0.515,-0.909 0.026,-0.758 -0.002,-1.074 -0.246,-1.574 -0.152,-0.314 0.016,-0.5 0.242,-0.288 0.227,0.21 0.651,1.013 0.834,1.272 0.183,0.254 0.305,0.194 0.528,-0.049 1.073,-1.147 2.114,-2.999 2.25,-3.802 0.157,-0.927 0.771,-0.893 0.683,0.044 -0.491,5.164 -8.158,8.852 -11.183,12.186 -1.666,1.84 -1.507,4.333 -0.838,6.117 0.472,1.255 2.487,3.871 4.276,5.049 0.195,0.128 0.24,0.15 0.271,-0.062 0.106,-0.764 0.182,-1.486 -0.337,-2.391 -0.121,-0.21 -0.219,-0.737 -0.122,-1.119 0.12,-0.485 0.12,-0.576 -0.033,-1.18 -0.904,-3.599 -0.265,-6.005 0.832,-9.052 0.696,-1.928 0.446,-5.935 0.082,-7.145 -0.207,-0.682 0.301,-0.968 0.635,-0.122 0.526,1.336 0.943,3.298 0.979,5.567 0.006,0.406 0.34,0.382 0.878,0.06 1.408,-0.848 2.995,-2.054 3.627,-2.791 0.937,-1.088 0.935,-2.602 0.662,-3.403 -0.124,-0.358 -0.14,-0.621 0.394,-0.228 0.529,0.394 0.789,1.708 0.713,2.178 -0.062,0.388 0.037,0.438 0.363,0.212 1.92,-1.334 2.825,-3.515 3.125,-5.665 0.143,-1.024 0.693,-0.759 0.785,-0.214 0.551,3.269 -2.854,7.522 -5.434,9.091 -3.313,2.012 -5.686,4.155 -5.924,6.94 -0.168,1.98 0.486,5.318 1.483,6.765 0.101,0.194 0.259,0.309 0.33,0.055 0.382,-0.886 0.56,-2.184 0.251,-3.1 -0.191,-0.571 -0.152,-0.726 0.395,-0.364 0.545,0.363 0.902,1.506 0.521,4.024 -0.118,0.789 0.062,1.091 0.668,1.695 0.608,0.604 0.97,0.484 1.333,0.24 0.362,-0.243 0.727,-0.365 1.15,0.422 0.426,0.787 0.787,1.231 1.637,1.268 1.332,0.059 2.604,0.117 3.088,0.601 0.819,0.817 0.85,0.727 2,0.843 1.15,0.12 2.361,0.18 3.027,0.18 0.664,-0.002 0.79,0.481 1.516,0.542 0.727,0.06 1.635,0.057 2.241,0.601 0.604,0.543 1.06,1.21 1.062,1.876 0,0.503 0,0.589 -0.24,0.682 -0.174,0.065 -0.164,0.229 -0.135,0.378 0.121,0.635 -0.646,1.262 -1.74,1.455 -1.211,0.214 -3.723,0.732 -4.268,1.066 -0.545,0.334 -1.875,1.274 -2.689,1.52 -0.817,0.241 -0.725,1.271 -0.331,2.3 2.151,5.595 2.927,10.474 3.172,14.463 0.187,3.027 0.373,6.659 -0.106,9.507 -0.225,1.324 -0.604,1.271 -0.207,2.725 0.293,1.076 0.037,2.289 -0.358,3.088 -0.151,0.304 0.241,0.454 0.575,0.454 1.515,-0.003 8.234,0.651 9.838,0.802 0.813,0.074 1.076,0.233 1.184,0.663 0.121,0.484 0.609,1.393 0.73,2.178 0.121,0.788 -0.422,1.15 -0.603,2.364 -0.129,0.872 -1.209,2.24 -3.565,3.454 -1.121,0.577 -2.299,1.578 -3.146,2.125 -0.848,0.546 -2.723,1.579 -3.206,2.062 -0.483,0.485 -1.45,1.274 -2.056,1.518 -0.606,0.244 -0.792,0.124 -1.638,0.913 -0.847,0.788 -3.683,1.185 -5.023,1.098 -1.814,-0.119 -5.749,0.008 -6.781,0.01 -1.027,0.002 -0.906,-0.726 -0.605,-1.331 -0.065,-0.455 0.571,-0.699 0.842,-0.97 z"
   id="path31448" />
	</g>
</g>
<g
   id="Bat"
   style="display:none">
	<g
   id="g31451"
   style="display:inline">
		<path
   d="m 85.171,26.287 c -4.848,-2.65 -11.104,-3.301 -17.102,-2.413 -11.48,1.7 -20.451,8.93 -26.209,20.051 -2.054,-3.019 -3.296,-6.817 -3.328,-10.955 -1.552,2.128 -2.674,4.684 -3.241,7.488 -0.567,-2.805 -1.689,-5.36 -3.24,-7.488 -0.033,4.21 -1.315,8.074 -3.436,11.118 C 22.862,32.875 13.864,25.582 2.327,23.874 c -5.998,-0.888 -12.254,-0.238 -17.101,2.413 11.051,1.697 14.079,8.617 12.227,15.589 8.736,-2.634 17.313,6.145 14.513,16.375 2.322,-1.114 5.657,-1.422 8.708,-1.018 7.296,0.967 12.496,8.484 14.52,17.535 10e-4,-0.01 0.003,-0.022 0.005,-0.034 0.001,0.012 0.004,0.024 0.005,0.034 2.025,-9.051 7.224,-16.568 14.521,-17.535 3.05,-0.404 6.385,-0.098 8.706,1.018 C 55.63,48.022 64.208,39.243 72.945,41.876 71.092,34.904 74.121,27.984 85.171,26.287 z"
   id="path31453" />
	</g>
</g>
<g
   id="Sloth"
   style="display:none">
	<g
   id="g31456"
   style="display:inline">
		<path
   d="M 84.346,58.347 C 83.2,55.012 82.158,53.241 81.324,50.424 81.162,49.876 76.695,37.483 57.156,26.111 53.906,24.221 41.404,20.63 38.577,19.575 37.806,19.188 37.32,18.658 37.114,18.485 35.19,16.886 32.357,12.657 29.729,11.138 26.037,9.006 23.446,8.778 20.708,8.588 18.38,8.425 14.382,8.323 10.49,9.831 6.594,11.335 5.478,14.179 5.378,15.118 l -0.23,1.632 c 0.634,0.569 1.056,1.569 1.056,2.491 0,0.894 -0.542,1.801 -0.542,3.009 0,1.544 0.609,4.152 3.257,6.355 3.03,2.517 7.017,3.881 10.472,5.703 0.05,0.032 0.125,0.059 0.19,0.115 3.573,3.009 1.073,6.684 1.073,6.684 L 0.757,32.612 c -6.451,-3.264 -11.55,-1.598 -14.862,3.313 -0.243,0.36 -0.315,0.469 -0.576,0.912 -0.154,0.263 -0.108,0.622 0.078,0.772 0.247,0.2 0.616,0.054 0.756,-0.124 2.415,-3.048 7.437,-3.462 10.152,-1.58 0.142,0.099 0.286,0.204 0.426,0.313 0.47,1.78 0.11,1.329 1.096,5.069 0.594,2.234 2.587,3.903 2.587,3.903 0,0 15.531,14.655 17.11,16.104 2.284,2.096 7.177,3.075 11.283,1.595 1.635,-0.589 5.276,-2.347 8.801,-3.553 0.928,-0.318 1.417,-0.123 2.005,0.513 0.891,0.966 1.535,1.606 3.49,3.61 0.459,0.471 0.562,1.173 0,1.784 l -9.699,11.007 -0.065,0.063 c -3.07,3.234 -2.887,6.422 -1.968,9.516 0.368,1.237 1.281,2.755 2.209,3.556 0.234,0.207 0.436,0.154 0.615,0.056 0.204,-0.156 0.162,-0.507 0.101,-0.688 -1.352,-4.014 -0.391,-7.269 3.02,-8.905 1.6,0.914 3.764,2.157 4.45,2.558 1.784,1.037 4.329,0.541 5.405,0.255 3.258,-0.861 17.752,-4.652 17.752,-4.652 11.188,-3.19 13.015,-9.994 15.896,-13.47 0.036,-0.047 0.072,-0.092 0.105,-0.138 1.545,0.304 2.349,0.371 3.317,-0.426 1.773,-1.457 0.73,-3.96 0.105,-5.628 z M 17.435,21.661 c 1.981,1.156 4.97,0.958 4.97,0.958 0,0 -0.739,2.135 -3.401,3.396 -1.376,0.656 -3.083,1.144 -5.781,1.065 -1.776,-0.051 -3.356,-1.002 -4.12,-2.156 -0.94,-1.408 -1.092,-3.101 -1.092,-3.101 0,0 0.886,-0.104 2.021,-0.631 1.139,-0.527 1.487,-2.699 1.432,-3.74 -0.985,-0.102 -2.373,-0.094 -3.805,0.134 0,0 0.152,-2.254 2.074,-2.747 1.672,-0.429 1.665,0.499 3.577,0.485 0.113,-10e-4 0.31,-0.002 0.437,-0.003 0.421,-0.004 0.96,-0.137 1.267,-0.238 1.285,-0.421 1.881,-0.72 3.456,-0.657 1.921,0.076 4.154,0.434 4.946,3.168 -2.289,-0.337 -4.426,-0.488 -7.604,-0.199 -0.024,1.311 -0.355,3.11 1.623,4.266 z"
   id="path31458" />
		<path
   d="m 11.082,21.842 c -0.262,0.098 -0.436,0.488 -0.413,0.755 0.1,1.148 0.452,2.272 1.726,2.387 1.438,0.138 1.993,-1.065 1.917,-2.4 -0.007,-0.071 -0.032,-0.368 -0.174,-0.465 -1.372,-1.055 -2.584,-0.456 -3.056,-0.277 z"
   id="path31460" />
	</g>
</g>
<g
   id="Layer_43"
   style="display:none">
	<g
   id="g31463"
   style="display:inline">
		<path
   d="M 28.255,34.927 C 25.743,27.668 20.246,20.858 13.675,16.97 10.309,14.979 6.477,13.839 3.047,11.912 -2.123,9.008 -7.158,5.659 -12.104,2.34 c -3.756,-2.52 -7.96,-4.201 -11.469,-7.1 -0.96,-0.793 -1.985,-2.367 -3.274,-2.455 0.216,3.814 3.889,6.403 6.631,8.467 2.138,1.608 4.751,4.21 7.401,4.75 -2.117,-0.935 -4.46,-1.013 -6.678,-1.569 -0.5,-0.125 -5.386,-1.454 -5.433,-1.723 0.378,2.164 6.803,4.84 8.8,6.084 -1.875,0.082 -3.771,-0.764 -5.635,-0.892 1.433,2.098 4.728,3.52 6.845,4.898 -1.086,0.1 -2.017,-0.168 -3.021,-0.457 2.146,1.286 4.442,2.192 6.332,3.806 -0.854,0.215 -1.892,-0.007 -2.712,0.298 1.418,1.412 3.504,2.694 5.334,3.67 -0.54,-0.077 -1.132,0.008 -1.667,0.017 0.284,1.342 3.575,2.086 4.793,2.771 -0.813,-0.102 -1.719,-0.131 -2.225,0.519 1.555,1.002 3.516,4.873 5.574,3.676 -0.883,2.108 1.78,3.297 3.303,3.662 0.43,1.783 3.117,2.776 4.555,3.637 1.663,0.996 3.194,2.38 5.057,2.749 1.141,0.226 1.958,-0.051 3.097,-0.004 1.848,0.077 0.948,0.605 1.95,1.785 0.739,0.87 1.641,0.979 2.308,1.564 0.778,0.682 0.856,1.36 2.022,1.772 -0.01,1.066 1.323,1.275 1.99,2.017 0.625,0.694 1.012,1.749 1.38,2.625 0.199,-0.057 0.416,-0.036 0.627,-0.122 0.306,0.719 0.124,1.493 0.42,2.213 0.197,0.006 0.394,0.021 0.589,0.048 -0.024,-0.003 0.048,1.652 1.09,1.727 1.066,0.075 1.561,-1.2 2.197,-1.759 1.869,-1.64 3.717,-1.919 2.843,-4.859 -0.79,-2.656 -1.465,-5.23 -2.227,-7.848 -0.132,-0.46 -0.279,-0.921 -0.438,-1.38 z"
   id="path31465" />
		<path
   d="m 17.65,75.685 c -3.931,2.028 -7.907,3.736 -11.908,5.614 -1.569,0.736 -4.863,1.469 -5.591,3.241 1.192,0.067 2.759,-1.374 3.858,-1.84 1.239,-0.524 2.484,-0.823 3.789,-1.396 2.274,-1.001 4.562,-2.322 6.975,-2.948 1.84,-0.478 4.751,-0.87 6.113,-2.431 -0.546,0.626 -1.301,1.292 -1.572,1.994 1.149,-0.147 2.316,-1.226 3.463,-1.575 1.265,-0.385 2.828,-0.559 4.12,-0.631 -0.494,1.247 -0.981,2.563 -1.486,3.773 1.789,-0.746 4.752,-2.059 5.871,-3.744 -0.24,1.228 -0.625,2.823 -0.113,4.094 1.713,0.104 2.965,-1.209 3.951,-2.386 -0.261,0.625 -0.326,1.362 -0.48,2.041 1.15,0.082 2.387,-0.801 3.132,-1.654 -0.369,1.181 -0.226,2.681 -0.16,3.919 1.151,0.135 2.16,-0.39 3.257,-0.522 0.073,-0.849 0.05,-1.714 -0.156,-2.525 0.839,1.734 0.451,3.478 2.796,3.244 2.364,-0.235 1.49,-1.885 2.313,-3.592 0.786,1.998 1.836,3.004 3.567,4.093 1.917,-1.612 1.769,-2.818 1.114,-5.147 1.126,1.254 2.727,2.83 4.477,3.24 0.294,-1.119 -0.708,-1.701 -0.944,-2.714 1.019,1.118 2.948,1.042 4.079,2.017 -0.497,-1.476 -1.361,-2.608 -2.045,-3.968 2.256,0.449 4.155,1.836 6.396,2.396 -0.588,-2.036 -4.667,-3.421 -6.423,-4.373 -2.233,-1.211 -4.543,-2.512 -6.611,-3.843 -2.763,-1.777 -5.527,-4.143 -8.813,-4.859 -4.536,-0.99 -6.226,0.255 -9.388,3.278 -2.589,2.477 -6.746,3.344 -9.848,5.157 -1.239,0.724 -2.484,1.402 -3.733,2.047 z"
   id="path31467" />
		<path
   d="m 46.776,62.279 c -0.443,-0.702 -2.886,-5.318 -3.205,-1.897 -0.653,-1.666 -1.165,-3.379 -2.149,-4.906 -0.884,-1.372 -1.947,-2.848 -3.101,-4.017 -0.873,-0.884 -2.638,-1.355 -3.152,-2.225 6.087,-0.49 5.083,-10.087 5.766,-14.316 0.467,-2.894 0.935,-6.162 2.613,-8.711 2.245,-3.409 5.15,-5.484 8.662,-7.317 8.481,-4.426 16.763,-9.221 25.058,-14.067 3.151,-1.841 5.853,-4.229 8.928,-6.149 2.636,-1.646 5.94,-4.896 8.863,-5.719 -2.085,3.61 -6.039,6.425 -9.259,9.041 -2.738,2.225 -5.981,4.779 -8.693,6.45 3.287,-1.163 6.548,-3.512 9.606,-5.195 2.878,-1.583 6.002,-2.698 8.824,-4.368 -3.228,2.457 -6.445,5.048 -9.99,7.082 2.438,-0.147 5.266,-1.364 7.415,-2.552 -2.592,2.551 -6.608,3.791 -9.37,6.036 1.665,0.2 4.515,-0.891 5.838,-1.899 -2.381,1.987 -4.931,3.565 -7.581,5.031 1.258,0.056 2.446,-0.507 3.584,-1.023 -2.375,1.903 -5.346,3.202 -7.543,5.252 1.038,0.093 1.872,-0.279 2.839,-0.543 -1.676,1.434 -3.322,2.279 -5.286,3.288 0.34,-0.044 0.794,0.08 1.144,0.065 -0.746,1.838 -2.466,2.751 -4.141,3.672 0.729,1.603 -2.1,3.667 -3.477,3.814 0.174,0.38 -0.016,0.644 0.34,1.02 -0.858,1.241 -2.433,1.78 -3.61,2.474 0.932,1.276 -1.248,2.093 -2.155,2.626 -0.95,0.558 -1.843,2.046 -2.761,1.895 0.434,2.206 -0.666,3.076 -1.778,4.852 -0.916,1.461 -1.34,3.415 -1.916,5.052 -0.642,1.826 -1.156,3.252 -1.25,5.362 -0.081,1.848 0.159,4.275 -0.161,6.11 -0.325,-0.104 -0.652,0.033 -0.984,-0.131 -0.052,0.615 -0.022,1.262 -0.065,1.876 -0.12,-0.082 -0.472,-0.182 -0.636,-0.312 0.041,0.572 -0.031,1.21 -0.196,1.706 -0.959,-0.425 -1.263,0.464 -1.079,1.394 -0.184,-0.184 -0.771,-0.484 -0.985,-0.831 -0.055,0.847 -0.016,1.729 -0.064,2.573 -0.496,-0.138 -1.001,-0.492 -1.373,-0.962 0.007,0.672 0.02,1.351 -0.025,2.013 -0.272,-0.352 -0.771,-0.819 -0.972,-1.188 0.388,2.506 -1.933,0.581 -2.523,-0.356 z"
   id="path31469" />
		<path
   d="m 47.531,70.439 c 0.9,-2.039 -1.164,-6.662 -1.92,-8.549 -1.477,-3.681 -4.217,-7.934 -7.316,-10.487 -2.01,-1.656 -3.979,-4.55 -6.662,-5.146 -5.081,-1.128 -6.271,4.396 -6.04,8.263 0.179,2.98 1.686,3.477 3.424,5.521 1.499,1.762 1.906,3.677 2.698,5.713 1.2,3.083 4.963,6.072 8.346,5.884 1.591,-0.089 2.693,-1.677 4.218,-1.834 1.522,-0.157 2.493,2.355 3.252,0.635 z"
   id="path31471" />
		<path
   d="m 45.843,71.647 c -1.443,0.244 -1.083,3.342 -0.917,4.569 0.238,1.75 0.907,3.178 0.917,4.993 0.01,1.695 -0.532,3.079 0.239,4.916 -0.37,-0.458 -1.037,-1.261 -1.105,-1.474 0.181,0.891 0.336,1.901 0.173,2.832 -3.529,-3.811 -1.015,-9.923 -1.305,-14.502 l 1.998,-1.334 z"
   id="path31473" />
		<path
   d="m 37.524,71.984 c -0.778,2.509 0.62,4.739 1.103,7.134 0.56,2.787 0.752,4.573 2.264,7.132 -0.597,-0.299 -1.166,-0.359 -1.67,-0.978 0.197,0.684 0.272,1.186 0.687,1.803 C 34.095,83.113 37.441,74.968 34.496,69.56 l 3.028,2.424 z"
   id="path31475" />
		<polygon
   points="25.657,54.902 21.871,62.031 28.742,56.738 29.262,53.85 "
   id="polygon31477" />
	</g>
</g>
<g
   id="Layer_44"
   style="display:none">
	<g
   id="g31480"
   style="display:inline">
		<path
   d="m 46.286,25.435 c -0.034,0.492 0.032,1.041 0.057,1.609 0.031,-0.516 -0.017,-1.065 -0.057,-1.609 z"
   id="path31482" />
		<path
   d="m 79.031,55.104 c -0.255,-0.703 -0.576,-1.175 -0.773,-1.934 -0.194,-0.751 -0.536,-1.254 -1.133,-1.783 -0.977,-0.866 -2.081,-1.814 -3.167,-2.509 -0.561,-0.358 -1.189,-0.56 -1.64,-1.06 -0.531,-0.593 -0.829,-1.442 -1.259,-2.106 -0.782,-1.215 -1.741,-2.382 -2.462,-3.553 -0.75,-1.227 -1.716,-2.304 -2.268,-3.617 -0.632,-1.502 -0.367,-2.727 -1.403,-4.107 -1.857,-2.475 -4.688,-3.877 -5.968,-6.882 -0.606,-1.427 -0.591,-3.028 -1.249,-4.438 -0.69,-1.475 -1.236,-2.444 -2.317,-3.694 -0.881,-1.017 -1.87,-2.057 -3.092,-2.593 -0.502,-0.218 -1.662,-0.25 -2.112,-0.691 -0.209,-0.205 0.146,-0.535 -0.209,-0.851 -0.077,-0.067 -1.878,-0.627 -1.436,-1.159 0.337,-0.409 0.445,-1.019 1.129,-0.883 0.154,-1.241 1.362,-2.422 1.664,-3.651 0.326,-1.329 0.385,-3.37 0,-4.646 C 50.941,3.641 50.247,2.494 49.181,1.595 48.239,0.802 46.804,0.422 45.54,0.116 42.956,-0.508 40.522,1.516 39.259,3.558 38.533,3.097 37.52,3.311 36.671,3.192 35.647,3.046 35.324,2.796 34.695,3.77 c -0.447,0.696 -0.652,1.485 -0.1,2.17 0.499,0.615 2.101,0.398 2.727,0.146 0.618,-0.248 0.692,-0.71 1.433,-0.44 0.894,0.328 1.614,1.473 2.554,1.89 1.729,0.765 5.242,0.371 6.147,2.328 C 46.413,9.841 45.493,9.826 45.223,11.028 44.869,10.55 45.183,10.014 45.126,9.489 45.043,8.727 45.088,8.871 44.277,8.625 43.3,8.327 42.227,8.2 41.291,7.679 40.464,7.221 39.869,6.463 38.971,6.206 37.908,5.902 38.009,6.635 37.71,7.273 c -0.194,0.414 -0.381,0.484 -0.603,0.839 -0.931,1.463 -0.938,2.304 -0.48,4.008 0.291,1.087 -0.354,2.213 0.443,3.084 0.957,1.047 2.568,0.745 3.731,0.297 1.565,-0.6 2.545,-0.896 4.156,-0.698 0.66,0.082 1.438,-0.042 1.725,0.851 -0.116,0.004 -0.242,0.02 -0.358,0.032 -0.071,0.479 0.24,0.85 0.729,0.854 -1.339,0.047 -2.339,-1.588 -3.818,-1.334 -0.322,0.985 -2.271,0.779 -3.003,1.361 0.355,0.409 1.269,0.28 1.233,1.023 -1.38,-0.498 -2.556,-1.592 -4.02,-1.748 -0.784,-0.083 -1.303,0.311 -1.92,0.715 -0.665,0.433 -1.354,0.613 -2.001,0.975 -1.122,0.625 -2.391,1.519 -3.469,2.266 -1.314,0.911 -2.653,1.216 -4.229,1.374 -3.087,0.309 -6.359,0.166 -9.461,0.584 -3.194,0.43 -6.451,1.226 -9.658,1.547 -1.513,0.148 -3.172,0.203 -4.643,0.283 -0.736,0.041 -1.15,-0.35 -1.852,-0.456 -0.879,-0.134 -1.495,0.356 -2.205,0.827 -1.191,0.791 -1.766,2.1 -2.697,0.318 -0.604,0.288 -0.679,1.779 -0.789,2.392 -1.003,-0.367 -1.526,1.033 -0.481,0.9 -0.007,0.904 -1.668,2.83 -2.301,3.563 -1.025,1.187 -2.281,2.266 -3.023,3.662 -0.339,0.637 -0.524,1.318 -0.676,2.033 -0.13,0.605 -0.542,1.405 -0.479,2.007 0.112,1.075 0.667,0.495 1.569,0.792 0.547,0.18 1.051,0.743 1.635,0.969 1.016,0.39 2.238,0.771 3.289,0.968 0.546,0.101 1.115,-0.05 1.645,0.093 0.533,0.141 0.959,0.407 1.518,0.47 0.077,-0.12 0.22,-0.222 0.291,-0.337 0.116,0.017 0.495,0.128 0.586,0.176 0.035,0.128 0.087,0.227 0.131,0.352 1.832,0.102 2.524,-0.917 3.338,-2.419 0.794,-1.467 0.282,-2.954 0.697,-4.523 0.182,-0.687 0.674,-1.345 0.851,-2.045 0.216,-0.851 0.013,-1.421 0.024,-2.2 0.012,-0.816 1.016,-3.307 1.637,-3.675 1.267,-0.753 3.313,-0.606 4.738,-0.479 0.83,0.073 1.627,-0.049 2.414,0.216 0.824,0.275 1.445,0.713 2.322,0.842 1.498,0.219 3.2,0.104 4.729,0.027 2.377,-0.119 4.312,-0.094 6.584,-0.9 2.01,-0.712 4.033,-1.905 6.189,-0.979 1.385,0.594 2.533,2.333 4.04,2.537 0.563,0.077 1.385,-0.068 2.022,-0.004 1.393,0.14 2.459,0.668 3.762,0.873 1.147,0.183 2.84,0.006 3.77,-0.607 0.725,-0.48 0.954,-1.17 1.002,-1.934 -0.024,-0.568 -0.091,-1.117 -0.057,-1.609 0.04,0.544 0.088,1.094 0.057,1.609 0.03,0.672 -0.003,1.371 -0.346,2.032 -0.654,1.265 -2.098,1.069 -3.359,0.892 -0.694,-0.1 -1.355,-0.296 -2.027,-0.387 -0.552,-0.075 -1.346,-0.389 -1.836,-0.387 -0.863,0.004 -0.472,0.377 -0.214,1.061 0.355,0.949 0.905,1.711 1.105,2.685 0.288,1.397 0.859,2.917 1.353,4.269 0.541,1.486 1.375,2.74 1.885,4.254 0.521,1.535 0.504,2.904 2.246,3.475 0.931,0.304 1.423,-0.092 1.524,0.968 0.025,0.282 -0.083,0.802 -0.177,1.058 -0.251,0.686 -0.146,0.34 -0.672,0.679 -0.715,0.465 -1.472,0.858 -2.316,1.065 -0.918,0.225 -1.276,0.48 -2.054,1.039 -0.602,0.434 -1.322,0.56 -2.004,0.79 -0.706,0.243 -1.249,0.751 -1.857,1.141 -0.627,0.401 -1.335,0.878 -2.001,1.209 -0.333,0.167 -0.781,0.198 -1.07,0.433 -0.264,0.217 -0.275,0.637 -0.572,0.801 -0.645,0.353 -1.469,0.004 -2.205,0.41 -0.578,0.319 -1.068,0.811 -1.445,1.347 -0.813,1.15 -0.936,2.831 -1.371,4.137 -0.451,1.346 -0.816,2.875 -1.073,4.24 -0.149,0.789 -0.114,1.27 -0.403,2.033 -0.256,0.683 -0.396,1.4 -0.578,2.125 -0.393,1.553 -0.582,3.121 -0.967,4.637 -0.357,1.413 -1.068,2.85 -1.623,4.149 -0.261,0.608 -0.392,1.381 -1.059,1.649 -0.574,0.228 -1.681,0.222 -2.318,0.188 -0.717,-0.034 -1.425,-0.428 -2.051,-0.463 -0.8,-0.045 -1.053,0.335 -1.911,0.168 -2.229,-0.43 -6.771,-2.599 -6.956,1.163 -0.098,1.956 1.178,2.738 2.397,4.063 1.093,1.188 2.119,1.697 3.69,1.932 1.781,0.268 3.382,0.888 4.516,2.435 0.605,0.826 0.91,1.991 1.811,2.511 0.646,0.369 1.639,0.375 2.366,0.459 1.075,0.124 2.239,-0.325 3.064,-1.087 0.816,-0.756 0.771,-1.505 0.662,-2.416 -0.019,-0.148 -0.038,-0.299 -0.056,-0.457 -0.094,-0.819 -0.629,-1.612 -0.605,-2.443 0.021,-0.736 0.441,-1.706 0.783,-2.372 0.582,-1.145 1.451,-2.117 1.924,-3.321 0.568,-1.448 1.372,-2.271 2.32,-3.461 0.596,-0.747 0.9,-1.827 1.389,-2.674 0.623,-1.077 1.3,-2.13 1.719,-3.311 0.684,-1.919 1.347,-3.894 2.049,-5.778 1.642,-0.337 2.893,-0.879 4.619,-0.789 1.512,0.077 3.054,-0.469 4.439,-1.061 2.858,-1.225 5.741,-1.57 8.704,-2.414 1.159,-0.332 3.188,-0.65 4.408,-0.485 -1.489,0.071 -2.775,0.947 -4.221,1.16 -1.541,0.228 -2.858,0.697 -4.341,1.163 -1.592,0.495 -3.158,0.897 -4.718,1.275 -1.386,0.337 -2.846,0.255 -4.173,0.771 -1.076,0.417 -1.996,0.966 -3.088,1.142 -1.674,0.271 -1.925,0.738 -2.399,2.315 -0.345,1.149 -0.715,2.352 -0.989,3.47 -0.348,1.418 -0.369,2.294 1.018,2.99 1.455,0.731 2.504,1.871 3.913,2.687 1.164,0.678 2.468,1.729 3.451,2.653 0.56,0.525 0.775,1.163 1.237,1.721 -0.779,1.147 -2.007,2.121 -2.932,3.192 -0.498,0.574 -1.013,0.901 -1.759,1.055 -0.737,0.152 -3.096,0.419 -2.558,1.724 0.311,0.751 1.975,0.955 2.654,0.983 1.574,0.066 3.238,-0.196 4.736,-0.576 1.601,-0.407 3.013,-0.582 4.729,-0.582 1.643,0 3.099,0.312 4.638,0.388 1.463,0.067 3.168,-0.181 2.971,-2.029 -0.109,-1.034 -1.1,-3 -1.838,-3.744 -0.467,-0.473 -1.075,-1.01 -1.714,-1.088 -0.76,-0.097 -1.399,0.363 -2.122,-0.168 -0.566,-0.416 -0.859,-1.393 -1.381,-1.932 -0.446,-0.46 -0.858,-0.89 -1.231,-1.375 -0.936,-1.233 -1.462,-2.577 -2.127,-3.958 -0.624,-1.298 -1.465,-2.396 -2.193,-3.672 -0.836,-1.457 -1.689,-2.007 -3.507,-1.745 -1.41,0.203 -2.309,1.237 -3.532,1.948 0.318,-0.298 0.681,-0.754 0.624,-1.254 -0.25,0.021 -0.43,-0.125 -0.648,-0.132 0.676,-0.913 1.534,-0.716 2.521,-0.923 0.922,-0.193 1.799,-0.753 2.78,-1.01 2.179,-0.567 4.109,-1.75 6.279,-2.317 3.156,-0.825 6.536,-1.22 9.562,-2.567 2.433,-1.084 5.029,-3.672 6.011,-6.177 1.183,-3.026 0.862,-5.72 0.072,-8.715 -0.409,-1.567 -0.292,-3.095 -0.288,-4.735 0.001,-0.979 -0.187,-0.867 -1.061,-1.258 -0.544,-0.244 -1.28,-0.76 -1.923,-0.656 0.162,0.474 0.524,0.854 0.791,1.313 1.364,2.355 -1.449,0.889 -2.638,0.795 -0.688,-0.055 -1.717,0.506 -2.32,0.077 -0.465,-0.331 -0.592,-1.656 -0.363,-2.203 0.548,-1.312 2.92,-1.238 4.033,-1.059 1.077,0.174 2.792,0.948 3.552,1.746 0.827,0.871 0.303,2.15 0.412,3.273 0.166,1.688 0.138,3.031 1.421,4.276 1.02,0.985 2.142,1.808 2.853,3.046 0.786,1.367 1.484,2.651 1.617,4.246 0.063,0.758 -0.079,1.665 0.456,2.27 0.243,0.272 1.425,1.106 1.751,1.15 0.535,1.735 2.604,0.617 3.692,0.375 1.154,-0.258 0.91,-0.359 1.075,-1.358 0.126,-0.775 0.345,-1.309 0.055,-2.103 z M -7.517,36.327 c -0.329,-0.135 -0.568,-0.402 -0.639,-0.74 0.217,0.002 0.373,0.065 0.566,0.176 l 0.291,0.291 c -0.044,0.068 -0.158,0.174 -0.218,0.273 z m 0.908,0.29 c -0.058,-0.388 -0.082,-0.796 0.18,-1.048 l 0.289,0.676 c 0.057,0.273 -0.045,0.406 -0.469,0.372 z m 1.901,-1.253 C -5.118,35.325 -5.27,35.096 -5.077,34.7 l 0.291,0.096 c 0.073,0.144 0.148,0.332 0.078,0.568 z m 2.044,4.262 0.58,0.58 c 0.338,1.686 -1.508,0.385 -0.58,-0.58 z m 0.564,-0.5 c -0.584,0.048 -0.711,-0.625 -0.563,-1.045 h 0.388 c 0.318,0.275 0.387,0.685 0.175,1.045 z m 50.627,4.069 c 0.154,-0.413 0.809,-0.505 1.067,-0.865 l 0.479,0.29 c 0.188,0.158 0.264,0.779 0.502,1.142 0.326,-0.124 0.751,-0.368 1.129,-0.156 -0.071,0.925 -1.754,1.878 -2.521,1.236 -0.315,-0.267 -0.815,-1.227 -0.656,-1.647 z m 5.878,1.341 c -0.873,-0.17 -1.825,1.217 -2.374,1.779 -0.763,0.786 -1.959,1.5 -2.847,2.101 -1.036,0.701 -2.478,0.793 -3.622,1.379 -1.042,0.533 -2.114,1.015 -3.139,1.588 -1.481,0.832 -2.741,1.667 -4.134,2.61 -0.597,0.404 -1.436,0.737 -1.953,1.161 -0.585,0.475 -0.679,1.071 -0.94,1.766 -0.524,1.398 -0.866,2.777 -1.331,4.148 -0.452,1.339 -0.588,3.585 -2.524,2.688 0.479,-1.148 0.364,-2.462 0.765,-3.656 0.39,-1.161 0.759,-2.315 1.375,-3.374 0.318,-0.551 0.359,-1.32 0.724,-1.766 0.293,-0.356 1.148,-0.578 1.563,-0.777 1.088,-0.517 1.977,-1.318 2.979,-2.022 1.271,-0.894 2.684,-1.164 4.073,-1.813 1.362,-0.636 2.705,-1.413 4.04,-2.053 1.242,-0.596 2.68,-1.282 3.768,-2.124 1.259,-0.974 1.714,-2.006 2.55,-3.248 0.15,-0.063 0.147,0.043 0.271,0.084 l 0.679,-0.098 c 0.137,-0.112 0.116,-0.263 0.371,-0.178 -0.024,0.53 -0.14,1.33 -0.294,1.805 z"
   id="path31484" />
	</g>
</g>
<g
   id="Layer_45"
   style="display:none">
	<g
   id="g31487"
   style="display:inline">
		<path
   d="m 19.839,64.182 c -1.336,-3.18 5.115,-5.985 1.424,-7.598 -0.636,1.866 -5.285,5.875 -1.424,7.598 z"
   id="path31489"
   style="fill:none" />
		<path
   d="m 30.092,55.903 c -0.628,-1.86 -1.657,-3.586 -3.13,-5.017 -0.346,5.898 -8.318,15.384 -2.85,18.993 -0.148,-5.163 0.482,-9.808 4.273,-12.345 0.546,3.577 -4.129,8.58 0,11.396 0.769,-1.189 1.354,-2.496 1.766,-3.857 l -0.059,-9.17 z"
   id="path31491"
   style="fill:none" />
		<path
   d="m 11.291,83.175 c -23.309,0.208 0.504,2.292 11.396,0 -3.965,0.031 -6.975,-0.037 -11.396,0 z"
   id="path31493"
   style="fill:none" />
		<path
   d="M 48.332,84.126 C 52.663,83.529 60.604,85.341 62.578,83.175 58.25,83.771 50.307,81.96 48.332,84.126 z"
   id="path31495"
   style="fill:none" />
		<path
   d="m 48.916,63.364 c -0.481,1.12 -0.891,2.261 -0.667,3.352 0.204,-1.032 0.427,-2.155 0.667,-3.352 z"
   id="path31497"
   style="fill:none" />
		<path
   d="m 83.949,60.384 c -8.341,-0.156 -11.516,8.123 -15.672,7.598 0.019,-1.886 3.889,-1.209 2.85,-3.8 9.61,-5.775 -4.995,1.768 -7.123,4.749 -0.523,-6.381 9.449,-10.771 7.123,-15.195 -3.104,5.213 -8.143,9.135 -11.397,14.246 -1.874,-4.774 6.488,-7.65 4.274,-9.498 -0.418,0.845 -3.853,4.159 -4.274,1.9 -3.054,-5.837 3.483,-9.398 1.426,-13.295 -4.232,5.417 -7.435,11.523 -11.106,17.317 1.419,-8.242 3.553,-20.116 5.26,-27.421 1.049,-0.48 2.375,-3.395 3.146,-7.07 0.527,-2.513 0.672,-4.801 0.467,-6.275 0.784,-2.496 1.212,-3.533 1.212,-3.533 L 59.26,19.67 c -0.271,0.588 -0.578,1.433 -0.907,2.45 -0.088,-0.08 -0.181,-0.141 -0.284,-0.163 -1.087,-0.228 -2.677,2.966 -3.55,7.133 -0.769,3.663 -0.727,6.857 0.032,7.731 -1.649,7.183 -3.356,15.315 -4.74,22.112 -0.241,-0.508 -0.7,-0.979 -1.479,-1.399 -1.398,4.132 -1.644,9.033 -4.273,12.345 C 42.297,61.726 49.2,54.331 48.332,49.936 42.641,55.956 41.308,64.88 38.359,72.728 33.554,65.419 40.09,54.929 41.21,51.836 38.727,54.612 37,57.895 32.661,59.432 32.381,57.514 31.9,55.73 31.311,54.016 L 30.898,36.13 c 0.752,-1.236 1.287,-4.333 1.287,-7.968 0,-4.221 -0.721,-7.718 -1.667,-8.414 l -0.046,-1.968 -0.633,-1.183 0.02,3.132 c -0.961,0.644 -1.695,4.168 -1.695,8.433 0,4.425 0.791,8.065 1.805,8.503 l 0.091,14.126 c -0.534,-1.249 -1.102,-2.478 -1.673,-3.702 -3.108,4.574 -7.461,8.32 -12.822,11.395 1.435,-2.523 1.486,-4.835 -1.424,-6.646 0.222,3.97 -0.126,7.56 -1.246,10.635 L 6.537,47.301 C 6.787,45.876 6.155,42.797 4.828,39.413 3.287,35.483 1.34,32.491 0.205,32.188 l -0.76,-1.816 -1.022,-0.869 1.162,2.908 c -0.659,0.95 -0.057,4.5 1.499,8.47 1.615,4.12 3.681,7.22 4.784,7.257 L 12.224,64.05 C 11.32,65.914 10.082,67.557 8.441,68.931 5.397,61.147 3.058,52.892 -4.381,48.038 c 2.36,5.089 8.922,12.395 7.123,17.095 -1.975,-1.532 -1.203,-4.896 -4.273,-5.7 -1.262,2.831 4.44,5.782 1.426,6.649 -2.232,-1.362 -1.123,-4.95 -5.699,-4.749 -2.014,1.102 7.379,7.669 2.85,10.447 -1.101,-2.434 -1.421,-5.384 -4.275,-6.647 2.108,9.139 4.872,19.854 2.85,26.589 0.69,-1.122 1.52,-2.152 2.85,-2.849 3.152,1.368 -1.793,2.317 1.426,2.849 9.377,-1.929 16.325,2.099 24.219,-2.849 0.326,6.288 0.373,1.659 2.85,0.951 1.549,-0.443 1.553,1.969 2.85,1.897 -0.407,0.022 1.072,-1.796 1.424,-1.897 2.316,-0.68 3.652,1.901 5.699,1.897 0.199,0 0.735,-3.093 2.848,-2.849 0.993,0.114 1.307,2.775 2.85,2.849 0.336,0.018 0.11,-2.928 2.851,-1.897 1.109,0.415 -0.566,1.815 1.425,1.897 0.384,0.018 -0.11,-2.062 1.424,-1.897 0.602,0.063 1.425,1.793 2.849,1.897 3.259,0.238 5.675,-2.457 8.549,-1.897 0.692,1.121 1.521,2.151 2.849,2.849 0.246,-6.472 11.969,1.278 8.549,-0.951 C 62.122,81.405 71.67,65.253 83.949,60.384 z m -62.686,-3.8 c 3.691,1.612 -2.76,4.418 -1.424,7.598 -3.861,-1.723 0.788,-5.732 1.424,-7.598 z m 7.123,12.347 c -4.129,-2.815 0.546,-7.818 0,-11.396 -3.791,2.537 -4.422,7.182 -4.273,12.345 -5.469,-3.609 2.504,-13.095 2.85,-18.993 1.473,1.431 2.502,3.156 3.13,5.017 l 0.06,9.17 c -0.413,1.361 -0.998,2.667 -1.767,3.857 z m 20.53,-5.567 c -0.239,1.196 -0.463,2.319 -0.667,3.352 -0.224,-1.091 0.185,-2.232 0.667,-3.352 z"
   id="path31499" />
	</g>
</g>
<g
   transform="translate(13.273498,0)"
   id="Layer_46"
   style="fill:#000000;fill-opacity:1">
	<path
   d="m 42.806,5.084 c 1.584,3.068 4.054,9.413 1.258,12.998 -2.522,0.147 -4.805,0.053 -5.87,-1.258 -0.541,-5.991 2.422,-8.479 4.612,-11.74"
   id="path31502"
   style="fill:#000000;fill-opacity:1" />
	<path
   d="m 21.84,8.438 c 2.848,1.282 9.787,2.776 10.063,6.709 0.177,2.5 -1.289,4.193 -3.773,4.193 -4.719,0.001 -4.851,-6.639 -6.29,-10.902 z"
   id="path31504"
   style="fill:#000000;fill-opacity:1" />
	<path
   d="m 59.998,12.632 c 0.443,3.086 -1.246,10.719 -4.612,11.321 -2.331,0.417 -4.367,-0.861 -4.613,-3.355 -0.502,-5.105 6.126,-5.443 9.225,-7.966 z"
   id="path31506"
   style="fill:#000000;fill-opacity:1" />
	<path
   d="m 25.196,21.438 c 2.5,2.615 4.809,7.374 3.773,12.16 -1.775,1.674 -5.314,1.471 -6.709,-0.42 -0.939,-4.545 1.707,-8.078 2.936,-11.74 z"
   id="path31508"
   style="fill:#000000;fill-opacity:1" />
	<path
   d="m 32.743,21.856 c 3.76,-0.519 11.733,0.299 12.16,4.193 0.206,1.884 -1.289,3.429 -3.355,4.612 -4.665,-1.206 -6.404,-5.336 -8.805,-8.805 z"
   id="path31510"
   style="fill:#000000;fill-opacity:1" />
	<path
   d="m 51.192,26.05 c -0.831,8.544 -6.555,15.798 -7.547,25.578 7.079,-0.233 11.931,-6.205 17.191,-9.646 1.601,0.355 2.019,1.896 2.516,3.354 -3.052,2.89 -7.382,3.894 -10.482,6.711 -3.927,3.564 -7.93,9.279 -7.128,17.608 0.309,3.232 2.185,8.023 2.516,12.581 0.192,2.646 -0.466,5.821 0,7.547 0.601,2.228 2.538,2.627 3.772,4.612 -5.771,0.713 -14.347,0.672 -20.126,0 0.923,-2.431 4.441,-2.268 5.87,-4.192 1.827,-16.838 -7.143,-24.929 -22.643,-23.063 -0.471,-2.13 2.454,-2.693 4.193,-3.354 3.553,-1.349 9.269,-2.669 14.256,-0.838 -2.551,-8.849 -7.512,-15.85 -12.998,-22.224 -1.527,-1.773 -4.611,-3.483 -4.193,-6.289 2.543,-2.322 3.762,1.168 5.032,2.516 1.391,1.476 3.253,2.815 4.612,4.193 3.027,3.066 5.637,6.649 9.225,8.386 8.642,-3.937 9.415,-15.743 13.418,-24.319 1.449,-0.332 1.771,0.466 2.516,0.839 z"
   id="path31512"
   style="fill:#000000;fill-opacity:1" />
	<path
   d="m 15.551,27.727 c 0.217,11.525 -11.819,1.95 -12.16,-1.677 3.981,-0.771 10.147,-0.841 12.16,1.677 z"
   id="path31514"
   style="fill:#000000;fill-opacity:1" />
	<path
   d="m 57.9,28.984 c 3.636,6.052 -1.969,17.658 -7.128,10.063 0.186,-5.543 4.385,-7.076 7.128,-10.063 z"
   id="path31516"
   style="fill:#000000;fill-opacity:1" />
	<path
   d="m 35.258,31.5 c 2.236,2.99 4.623,8.188 2.936,12.579 -9.56,3.765 -6.217,-8.988 -2.936,-12.579 z"
   id="path31518"
   style="fill:#000000;fill-opacity:1" />
	<path
   d="m 75.511,33.598 c -1.605,2.332 -4.07,9.66 -7.966,9.644 -2.458,-0.011 -4.229,-2.61 -3.774,-5.032 0.736,-3.933 7.136,-3.622 11.74,-4.612 z"
   id="path31520"
   style="fill:#000000;fill-opacity:1" />
	<path
   d="m 15.131,38.629 c 1.413,1.881 0.701,4.705 -0.419,6.289 -5.024,1.174 -8.755,-1.99 -12.159,-3.773 3.094,-1.75 8.371,-4.518 12.578,-2.516 z"
   id="path31522"
   style="fill:#000000;fill-opacity:1" />
	<path
   d="M 75.932,55.402 C 71.641,56.613 66.158,55.394 63.771,53.303 63.285,42.092 73.843,50.771 75.932,55.402 z"
   id="path31524"
   style="fill:#000000;fill-opacity:1" />
	<path
   d="m 8.842,49.949 c 1.568,1.668 2.188,4.937 0.42,6.708 C 5.045,57.789 0.47,56.434 -2.479,54.981 0.48,52.489 3.186,49.744 8.842,49.949 z"
   id="path31526"
   style="fill:#000000;fill-opacity:1" />
	<path
   d="m 26.034,54.144 c -1.188,10.654 -11.658,0.532 -12.16,-2.936 4.206,-0.805 10.258,0.052 12.16,2.936 z"
   id="path31528"
   style="fill:#000000;fill-opacity:1" />
	<path
   d="m 64.61,64.206 c -3.506,-0.101 -10.728,-2.122 -10.901,-5.87 -0.137,-2.924 3.364,-5.139 6.289,-3.354 2.714,1.658 2.935,6.939 4.612,9.224 z"
   id="path31530"
   style="fill:#000000;fill-opacity:1" />
	<path
   d="m 11.778,62.528 c 6.385,5.93 -3.439,9.253 -10.482,7.128 2.746,-3.12 4.558,-7.179 10.482,-7.128 z"
   id="path31532"
   style="fill:#000000;fill-opacity:1" />
	<path
   d="m 61.674,70.915 c -1.25,1.032 -2.459,2.736 -4.191,3.773 -3.091,1.85 -9.707,3.201 -8.807,-2.516 0.783,-4.967 9.143,-2.56 12.998,-1.257 z"
   id="path31534"
   style="fill:#000000;fill-opacity:1" />
	<path
   d="m 18.067,82.237 c -1.582,-3.356 -1.386,-11.18 1.678,-12.581 10.113,0.135 2.19,10.356 -1.678,12.581 z"
   id="path31536"
   style="fill:#000000;fill-opacity:1" />
</g>
<g
   id="Layer_47">
</g>

</svg>