<?xml version="1.0" encoding="UTF-8" standalone="no"?>
<!-- Created with Inkscape (http://www.inkscape.org/) -->

<svg
   xmlns:dc="http://purl.org/dc/elements/1.1/"
   xmlns:cc="http://creativecommons.org/ns#"
   xmlns:rdf="http://www.w3.org/1999/02/22-rdf-syntax-ns#"
   xmlns:svg="http://www.w3.org/2000/svg"
   xmlns="http://www.w3.org/2000/svg"
   version="1.1"
   width="100"
   height="100"
   viewBox="0 0 100 100"
   id="Layer_1"
   xml:space="preserve"><metadata
   id="metadata33772"><rdf:RDF><cc:Work
       rdf:about=""><dc:format>image/svg+xml</dc:format><dc:type
         rdf:resource="http://purl.org/dc/dcmitype/StillImage" /><dc:title></dc:title></cc:Work></rdf:RDF></metadata><defs
   id="defs33770" />


<g
   id="g33774"
   style="fill:#000000;fill-opacity:1"><path
     d="m 34.457,44.069 c 5.786,5.797 14.198,7.239 21.08,4.343 l 1.617,1.095 3.041,-0.42 -2.824,3.725 3.477,3.483 6.436,-0.438 -1.235,4.891 2.989,3.098 5.283,-0.233 -0.977,4.083 3.79,3.8 4.119,-1.755 2.211,1.771 -1.079,2.443 0.259,0.188 12.912,0.767 0.985,-4.671 L 65.053,38.241 C 68.031,31.365 66.568,23.586 60.785,17.794 53.273,10.27 41.286,10.078 34.031,17.322 c -7.296,7.281 -7.083,19.227 0.426,26.747 z m 3.329,-14.888 c -2.397,-2.393 -2.421,-6.17 -0.106,-8.479 2.331,-2.32 6.1,-2.289 8.488,0.109 2.397,2.403 2.462,6.206 0.14,8.531 -2.318,2.314 -6.135,2.246 -8.522,-0.161 z"
     id="path33758"
     style="fill:#000000;fill-opacity:1;fill-rule:evenodd" /><g
     id="g33760"
     style="fill:#000000;fill-opacity:1">
	<path
   d="M 31.167,47.354 C 26.675,42.86 24.146,36.938 24.044,30.685 c -0.034,-1.987 0.265,-3.912 0.708,-5.786 -3.955,4.806 -5.491,11.5 -3.404,18.033 2.479,7.8 9.304,12.937 16.746,13.518 l 0.928,1.708 2.896,1.022 -4.209,2.024 1.489,4.681 5.921,2.56 -3.336,3.786 1.24,4.116 4.8,2.215 -2.745,3.182 1.634,5.116 4.474,0.328 1.151,2.59 -2.081,1.67 0.14,0.28 11.124,6.606 3.021,-3.694 -12.568,-40.432 c -1.208,0.193 -2.432,0.303 -3.678,0.303 -6.438,0 -12.523,-2.544 -17.128,-7.157 z"
   id="path33762"
   style="fill:#000000;fill-opacity:1" />
</g><g
     id="g33764"
     style="fill:#000000;fill-opacity:1">
	<path
   d="m 23.907,1.448 c -11.235,0 -20.374,9.139 -20.374,20.374 0,8.718 5.574,16.015 13.29,18.906 C 16.742,40.094 16.658,39.466 16.6,38.808 16.538,38.07 16.546,37.365 16.548,36.659 11.044,33.935 7.202,28.367 7.202,21.823 c 0,-9.211 7.494,-16.705 16.705,-16.705 9.211,0 16.705,7.493 16.705,16.705 0,1.11 -0.14,2.18 -0.358,3.228 0.141,0.716 0.566,1.422 1.697,1.64 1.022,0.197 1.609,-0.395 1.951,-1.069 0.239,-1.23 0.379,-2.497 0.379,-3.799 0,-11.236 -9.138,-20.375 -20.374,-20.375 z"
   id="path33766"
   style="fill:#000000;fill-opacity:1" />
</g></g>
</svg>