<?xml version="1.0" encoding="UTF-8" standalone="no"?>
<!-- Created with Inkscape (http://www.inkscape.org/) -->

<svg
   xmlns:dc="http://purl.org/dc/elements/1.1/"
   xmlns:cc="http://creativecommons.org/ns#"
   xmlns:rdf="http://www.w3.org/1999/02/22-rdf-syntax-ns#"
   xmlns:svg="http://www.w3.org/2000/svg"
   xmlns="http://www.w3.org/2000/svg"
   version="1.1"
   width="100"
   height="100"
   viewBox="0 0 100 100"
   id="Layer_1"
   xml:space="preserve"><metadata
   id="metadata16228"><rdf:RDF><cc:Work
       rdf:about=""><dc:format>image/svg+xml</dc:format><dc:type
         rdf:resource="http://purl.org/dc/dcmitype/StillImage" /><dc:title></dc:title></cc:Work></rdf:RDF></metadata><defs
   id="defs16226" />


<g
   transform="translate(25.48779,0)"
   id="g16230"
   style="fill:#000000;fill-opacity:1"><path
     d="M 34.347,21.624 34.325,21.573 C 33.941,20.699 33.157,20.043 32.204,19.836 32.096,19.818 23.868,18.269 18.571,18.269 -0.99,18.269 0.009,26.095 0.009,33.41 L 2.117,58.827 H 6.164 L 6.165,58.826 9.579,100 h 7.564 V 59.752 h 2.854 V 100 h 7.563 l 5.043,-60.799 9.182,15.01 5.947,-2.783 -13.385,-29.804 z"
     id="path16218"
     style="fill:#000000;fill-opacity:1" /><circle
     cx="18.570999"
     cy="8.0869999"
     r="8.0869999"
     id="circle16220"
     style="fill:#000000;fill-opacity:1" /><path
     d="m 42.41,54.181 c -3.647,0 -6.615,2.968 -6.615,6.614 h 4.282 c 0,-1.286 1.047,-2.332 2.333,-2.332 1.286,0 2.333,1.046 2.333,2.332 V 100 h 4.281 V 60.795 c 0,-3.646 -2.966,-6.614 -6.614,-6.614 z"
     id="path16222"
     style="fill:#000000;fill-opacity:1" /></g>
</svg>