<?xml version="1.0" encoding="UTF-8" standalone="no"?>
<!-- Created with Inkscape (http://www.inkscape.org/) -->

<svg
   xmlns:dc="http://purl.org/dc/elements/1.1/"
   xmlns:cc="http://creativecommons.org/ns#"
   xmlns:rdf="http://www.w3.org/1999/02/22-rdf-syntax-ns#"
   xmlns:svg="http://www.w3.org/2000/svg"
   xmlns="http://www.w3.org/2000/svg"
   version="1.1"
   width="100"
   height="100"
   viewBox="0 0 185 185.708"
   id="Layer_1"
   xml:space="preserve"><metadata
   id="metadata17992"><rdf:RDF><cc:Work
       rdf:about=""><dc:format>image/svg+xml</dc:format><dc:type
         rdf:resource="http://purl.org/dc/dcmitype/StillImage" /><dc:title></dc:title></cc:Work></rdf:RDF></metadata><defs
   id="defs17990" />



<g
   transform="translate(42.232498,0)"
   id="g17994"
   style="fill:#000000;fill-opacity:1"><rect
     width="37.092999"
     height="20.815001"
     x="4.4720001"
     y="161.291"
     id="rect17980"
     style="fill:#000000;fill-opacity:1" /><rect
     width="37.094002"
     height="20.815001"
     x="58.969002"
     y="161.291"
     id="rect17982"
     style="fill:#000000;fill-opacity:1" /><path
     d="M 4.472,159.871 H 96.063 V 27.24 H 4.472 V 159.871 z M 69.338,36.476 H 86.741 V 58.001 H 69.338 V 36.476 z m 0,28.134 H 86.741 V 86.135 H 69.338 V 64.61 z m 0,29.039 h 17.403 v 21.525 H 69.338 V 93.649 z m 0,31.783 h 17.403 v 21.525 H 69.338 V 125.432 z M 41.565,36.476 H 58.969 V 58.001 H 41.565 V 36.476 z m 0,28.134 H 58.969 V 86.135 H 41.565 V 64.61 z m 0,29.039 h 17.404 v 21.525 H 41.565 V 93.649 z m 0,31.783 h 17.404 v 21.525 H 41.565 V 125.432 z M 14.293,36.476 H 31.697 V 58.001 H 14.293 V 36.476 z m 0,28.134 H 31.697 V 86.135 H 14.293 V 64.61 z m 0,29.039 h 17.404 v 21.525 H 14.293 V 93.649 z m 0,31.783 h 17.404 v 21.525 H 14.293 v -21.525 z"
     id="path17984"
     style="fill:#000000;fill-opacity:1" /><polygon
     points="4.472,25.821 96.062,25.821 96.062,13.422 78.039,13.422 78.039,5.119 22.495,5.119 22.495,13.422 4.472,13.422 "
     id="polygon17986"
     style="fill:#000000;fill-opacity:1" /></g>
</svg>