<?xml version="1.0" encoding="UTF-8" standalone="no"?>
<!-- Created with Inkscape (http://www.inkscape.org/) -->

<svg
   xmlns:dc="http://purl.org/dc/elements/1.1/"
   xmlns:cc="http://creativecommons.org/ns#"
   xmlns:rdf="http://www.w3.org/1999/02/22-rdf-syntax-ns#"
   xmlns:svg="http://www.w3.org/2000/svg"
   xmlns="http://www.w3.org/2000/svg"
   version="1.0"
   width="100"
   height="100"
   viewBox="0 0 99.999998 100"
   id="Layer_1"
   xml:space="preserve"><metadata
   id="metadata13896"><rdf:RDF><cc:Work
       rdf:about=""><dc:format>image/svg+xml</dc:format><dc:type
         rdf:resource="http://purl.org/dc/dcmitype/StillImage" /><dc:title></dc:title></cc:Work></rdf:RDF></metadata><defs
   id="defs13894" />
<path
   d="m 50.001897,54.126 c 7.482,0 10.953,5.679 11.683,13.745 0.174,1.93 -0.008,4.743 -0.255,8.001 -0.841,10.825 -1.808,24.128 5.4,24.128 6.096,0 9.228,-11.695 11.035,-25.027 1.745,-13.197 -0.103,-19.765 0.806,-25.625 1.733,-11.103 11.425,-21.058 8.431,-35.214 -1.658,-7.853 -5.982,-11.547 -10.266,-13.1 -9.868,-3.592 -16.239,3.329 -26.834,3.329 -10.595,0 -16.966,-6.921 -26.839,-3.329 -4.28,1.553 -8.604,5.247 -10.266,13.1 -2.9899999,14.156 6.698,24.111 8.435,35.214 0.908,5.86 -0.939,12.427 0.806,25.625 1.807,13.331 4.94,25.027 11.035,25.027 7.205,0 6.242,-13.303 5.4,-24.127 -0.248,-3.258 -0.428,-6.071 -0.255,-8.001 0.727,-8.067 4.244,-13.746 11.684,-13.746 z"
   id="path13890"
   style="fill:#000000;fill-opacity:1" />
</svg>