<?xml version="1.0" encoding="UTF-8" standalone="no"?>
<!-- Created with Inkscape (http://www.inkscape.org/) -->

<svg
   xmlns:dc="http://purl.org/dc/elements/1.1/"
   xmlns:cc="http://creativecommons.org/ns#"
   xmlns:rdf="http://www.w3.org/1999/02/22-rdf-syntax-ns#"
   xmlns:svg="http://www.w3.org/2000/svg"
   xmlns="http://www.w3.org/2000/svg"
   version="1.1"
   width="100"
   height="100"
   viewBox="0 0 100 100"
   id="Layer_1"
   xml:space="preserve"><metadata
   id="metadata12693"><rdf:RDF><cc:Work
       rdf:about=""><dc:format>image/svg+xml</dc:format><dc:type
         rdf:resource="http://purl.org/dc/dcmitype/StillImage" /><dc:title></dc:title></cc:Work></rdf:RDF></metadata><defs
   id="defs12691" />
<path
   d="M 95.454,27.546 95.455,27.521 58.001,22.755 55.533,13.5 H 61 v -2 h -6 -2 l -3,-5 -3,5 h -2 -6 v 2 h 5.467 l -2.468,9.255 -37.454,4.766 0.001,0.025 C 2,27.778 0,29.894 0,32.5 c 0,2.762 2.238,5 5,5 L 42.031,39.399 45,76.5 c 0,0 -13,4 -13,11 h 14 l 4,6 4,-6 h 14 c 0,-7 -13,-11 -13,-11 L 57.969,39.399 95,37.5 c 2.762,0 5,-2.238 5,-5 0,-2.606 -2,-4.722 -4.546,-4.954 z"
   id="path12687"
   style="fill:#000000;fill-opacity:1" />
</svg>