<?xml version="1.0" encoding="UTF-8" standalone="no"?>
<!-- Created with Inkscape (http://www.inkscape.org/) -->

<svg
   xmlns:dc="http://purl.org/dc/elements/1.1/"
   xmlns:cc="http://creativecommons.org/ns#"
   xmlns:rdf="http://www.w3.org/1999/02/22-rdf-syntax-ns#"
   xmlns:svg="http://www.w3.org/2000/svg"
   xmlns="http://www.w3.org/2000/svg"
   version="1.1"
   width="150"
   height="150"
   viewBox="0 0 1188 1188"
   id="Layer_1"
   xml:space="preserve"><metadata
   id="metadata15"><rdf:RDF><cc:Work
       rdf:about=""><dc:format>image/svg+xml</dc:format><dc:type
         rdf:resource="http://purl.org/dc/dcmitype/StillImage" /><dc:title></dc:title></cc:Work></rdf:RDF></metadata><defs
   id="defs13" />
<path
   d="m 1153.5879,981.38162 c 47.1205,47.12048 45.2357,122.51318 -1.8848,171.50898 -49.0053,47.1205 -124.3886,47.1205 -171.509,-1.8754 L 386.48584,542.21901 C 335.59575,493.21374 305.42923,478.1352 263.97266,491.32892 222.50666,506.40747 164.0773,506.40747 109.427,470.59592 -7.4317188,395.2032 0.09812944,253.84184 0.09812944,253.84184 L 9.5222197,238.7633 c 0,0 105.5498103,67.85345 118.7435403,75.39272 16.97279,13.19373 75.39272,39.58118 128.17705,-41.46599 54.65973,-81.04718 9.42409,-131.93727 -5.66388,-141.36136 C 237.59463,123.7894 132.0354,54.051129 132.0354,54.051129 l 9.42409,-15.078545 c 0,0 122.51317,-62.198996 237.47765,5.654454 0,3.769637 28.27227,20.732999 39.58118,30.15709 73.5079,65.968632 73.5079,139.476542 60.31418,199.790712 -11.30891,54.65973 0,73.50791 43.35081,120.62836 l 631.40459,586.17842 z m -43.3414,39.57178 c -24.512,-24.50266 -64.0838,-24.50266 -90.4806,0 -22.60844,24.5026 -22.60844,65.9686 0,88.5864 26.3968,24.5027 65.9686,28.2723 90.4806,1.8848 24.4933,-22.6083 24.4933,-65.9686 0,-90.4712 z"
   id="path3"
   style="fill:#000000" />

</svg>