<?xml version="1.0" encoding="UTF-8" standalone="no"?>
<!-- Created with Inkscape (http://www.inkscape.org/) -->

<svg
   xmlns:dc="http://purl.org/dc/elements/1.1/"
   xmlns:cc="http://creativecommons.org/ns#"
   xmlns:rdf="http://www.w3.org/1999/02/22-rdf-syntax-ns#"
   xmlns:svg="http://www.w3.org/2000/svg"
   xmlns="http://www.w3.org/2000/svg"
   version="1.1"
   width="100"
   height="99.253731"
   viewBox="0 0 268.811 266.62"
   id="Calque_1"
   xml:space="preserve"><metadata
   id="metadata29491"><rdf:RDF><cc:Work
       rdf:about=""><dc:format>image/svg+xml</dc:format><dc:type
         rdf:resource="http://purl.org/dc/dcmitype/StillImage" /><dc:title></dc:title></cc:Work></rdf:RDF></metadata><defs
   id="defs29489" />
<path
   d="M 134.405,0 C 60.3,0 0,59.794 0,133.3 0,206.815 60.3,266.62 134.405,266.62 208.51,266.62 268.81,206.815 268.81,133.3 268.811,59.794 208.511,0 134.405,0 z m 41.324,19.176 c 19.396,7.227 36.41,19.271 49.531,34.811 9.217,16.129 11.063,24.318 10.502,28.393 L 198.609,95.958 158.838,70.717 c -2.752,-14.435 -9.255,-37.8 -11.321,-45.151 10.064,-6.238 26.403,-6.39 28.212,-6.39 z m -36.934,6.436 -0.066,0.019 c 0.085,0.286 8.159,28.393 11.511,45.17 L 114.325,100.28 56.777,91.71 c 0,0 -3.561,-15.311 -3.504,-27.631 l 0.009,0.019 c 0.219,-0.305 20.271,-32.449 53.777,-42.875 0.001,0 19.939,0.923 31.736,4.389 z M 81.476,24.203 C 63.69,36.229 51.179,52.511 47.446,57.719 42.638,59.747 37.62,63.908 33.43,67.974 45.065,49.283 61.69,34.086 81.476,24.203 z M 15.435,130.577 c 0,-2.038 0.209,-4.037 0.314,-6.075 3.247,5.675 7.979,9.931 11.426,12.54 2.895,10.998 11.13,39.066 24.66,61.328 -0.399,8.864 0.429,14.91 1.438,18.967 -23.223,-21.729 -37.838,-52.53 -37.838,-86.76 z m 43.884,63.852 C 45.38,171.682 37.001,141.374 34.83,132.834 43.532,114.295 54.806,100.28 54.806,100.28 l 56.339,8.208 c 6.398,18.453 15.349,37.648 19.662,46.617 -6.265,9.359 -23.87,35.4 -34.268,48.197 -9.979,0.143 -27.451,-5.427 -37.22,-8.873 z m 75.077,55.109 c -10.331,0 -20.31,-1.447 -29.878,-3.941 9.94,-0.305 15.806,-2.666 19.147,-4.932 3.009,0.646 11.702,2.304 23.309,2.304 11.835,0 26.65,-1.8 41.313,-8.093 0.781,0.266 1.553,0.409 2.333,0.504 -16.748,9.026 -35.905,14.158 -56.224,14.158 z m 53.101,-23.508 c -29.936,14.102 -62.604,6.256 -62.946,6.17 l -2.438,-1.248 c -8.874,-8.141 -16.396,-20.613 -17.843,-23.137 -0.076,-0.133 -0.105,-0.267 -0.171,-0.4 10.683,-13.425 27.231,-37.876 33.525,-47.303 33.753,-1.466 47.055,-4.132 47.055,-4.132 0.124,0.19 17.281,22.557 25.413,42.58 -4.095,9.769 -15.996,21.082 -22.595,27.47 z m 54.663,-48.931 c -13.635,10.76 -25.689,14.987 -25.689,14.987 -5.398,-10.626 -24.279,-41.114 -24.279,-41.114 6.246,-15.52 8.77,-36.924 10.055,-47.34 L 237.79,90.635 c 8.808,8.541 13.464,23.261 15.006,29.05 0.334,3.599 0.563,7.236 0.563,10.893 0,17.576 -3.923,34.182 -10.798,49.207 -0.02,-1.791 -0.401,-2.686 -0.401,-2.686 z"
   id="path29485"
   style="fill:#000000;fill-opacity:1" />
</svg>