<?xml version="1.0" encoding="UTF-8" standalone="no"?>
<!-- Created with Inkscape (http://www.inkscape.org/) -->

<svg
   xmlns:dc="http://purl.org/dc/elements/1.1/"
   xmlns:cc="http://creativecommons.org/ns#"
   xmlns:rdf="http://www.w3.org/1999/02/22-rdf-syntax-ns#"
   xmlns:svg="http://www.w3.org/2000/svg"
   xmlns="http://www.w3.org/2000/svg"
   version="1.1"
   width="100"
   height="100"
   viewBox="0 0 100 100"
   id="Layer_1"
   xml:space="preserve"><metadata
   id="metadata4481"><rdf:RDF><cc:Work
       rdf:about=""><dc:format>image/svg+xml</dc:format><dc:type
         rdf:resource="http://purl.org/dc/dcmitype/StillImage" /><dc:title></dc:title></cc:Work></rdf:RDF></metadata><defs
   id="defs4479" />
<path
   d="m 88.895,11.105 c -14.807,-14.807 -38.812,-14.807 -53.619,0 -14.807,14.806 -14.807,38.812 0,53.619 14.807,14.807 38.812,14.807 53.619,0 14.807,-14.807 14.807,-38.812 0,-53.619 z m -4.233,49.387 c -12.469,12.468 -32.684,12.468 -45.153,0 -12.468,-12.469 -12.468,-32.685 0,-45.153 12.469,-12.468 32.685,-12.469 45.153,0 12.468,12.469 12.468,32.683 0,45.153 z"
   id="path4473"
   style="fill:#000000;fill-opacity:1" />
<rect
   width="11.973"
   height="39.91"
   x="12.357"
   y="61.701"
   transform="matrix(0.7071,0.7071,-0.7071,0.7071,63.1103,10.9445)"
   id="rect4475"
   style="fill:#000000;fill-opacity:1" />
</svg>