<?xml version="1.0" encoding="UTF-8" standalone="no"?>
<!-- Created with Inkscape (http://www.inkscape.org/) -->

<svg
   xmlns:dc="http://purl.org/dc/elements/1.1/"
   xmlns:cc="http://creativecommons.org/ns#"
   xmlns:rdf="http://www.w3.org/1999/02/22-rdf-syntax-ns#"
   xmlns:svg="http://www.w3.org/2000/svg"
   xmlns="http://www.w3.org/2000/svg"
   version="1.1"
   width="100"
   height="100"
   viewBox="0 0 100 100"
   id="Layer_1"
   xml:space="preserve"><metadata
   id="metadata16816"><rdf:RDF><cc:Work
       rdf:about=""><dc:format>image/svg+xml</dc:format><dc:type
         rdf:resource="http://purl.org/dc/dcmitype/StillImage" /><dc:title></dc:title></cc:Work></rdf:RDF></metadata><defs
   id="defs16814" />
<path
   d="M 52.857,2.894 V 2.857 C 52.857,1.279 51.578,0 50,0 48.422,0 47.143,1.279 47.143,2.857 v 0.04 C 23.424,4.301 4.344,22.916 2.213,46.433 c 2.26,-4.089 6.613,-6.862 11.616,-6.862 5.404,0 10.043,3.236 12.112,7.872 2.068,-4.636 6.708,-7.872 12.112,-7.872 3.524,0 6.717,1.382 9.09,3.624 v 41.092 c 0,5.514 -4.486,10 -10,10 -5.514,0 -10,-4.486 -10,-10 0,-1.579 -1.279,-2.857 -2.857,-2.857 -1.578,0 -2.857,1.278 -2.857,2.857 0,8.663 7.049,15.713 15.714,15.713 8.665,0 15.714,-7.05 15.714,-15.714 V 43.511 c 2.402,-2.431 5.732,-3.94 9.421,-3.94 5.404,0 10.044,3.236 12.112,7.872 2.069,-4.636 6.709,-7.872 12.112,-7.872 4.775,0 8.949,2.531 11.285,6.318 C 95.413,22.613 76.414,4.267 52.857,2.894 z"
   id="path16810"
   style="fill:#000000" />
</svg>