<?xml version="1.0" encoding="UTF-8" standalone="no"?>
<!-- Created with Inkscape (http://www.inkscape.org/) -->

<svg
   xmlns:dc="http://purl.org/dc/elements/1.1/"
   xmlns:cc="http://creativecommons.org/ns#"
   xmlns:rdf="http://www.w3.org/1999/02/22-rdf-syntax-ns#"
   xmlns:svg="http://www.w3.org/2000/svg"
   xmlns="http://www.w3.org/2000/svg"
   version="1.0"
   width="100.001"
   height="100"
   viewBox="0 0 100.001 100"
   id="Layer_1"
   xml:space="preserve"><metadata
   id="metadata9177"><rdf:RDF><cc:Work
       rdf:about=""><dc:format>image/svg+xml</dc:format><dc:type
         rdf:resource="http://purl.org/dc/dcmitype/StillImage" /><dc:title></dc:title></cc:Work></rdf:RDF></metadata><defs
   id="defs9175" />

<g
   transform="translate(0,0.74600221)"
   id="g9687"><path
     d="m 38.916,13.922 c 3.858,0 6.974,-3.115 6.974,-6.949 C 45.89,3.115 42.774,0 38.916,0 c -3.834,0 -6.949,3.115 -6.949,6.973 0,3.834 3.115,6.949 6.949,6.949"
     id="path9169"
     style="fill:#000000;fill-opacity:1" /><path
     d="m 90.652,33.979 -7.381,-1.414 -4.289,8.531 c 0.695,0.167 1.414,0.24 2.156,0.24 4.579,0 8.413,-3.115 9.514,-7.357 M 0,48.381 C 0,42.726 4.578,38.125 10.232,38.125 H 31.824 V 22.621 c 0,-3.858 3.114,-6.973 6.973,-6.973 3.857,0 6.973,3.115 6.973,6.973 v 2.396 l 10.281,2.636 c 1.797,0.408 2.947,2.205 2.539,4.002 -0.407,1.821 -2.204,2.948 -4.025,2.54 L 45.77,32.134 v 5.991 h 10.353 l 28.323,-29.307 -0.839,7.62 13.947,9.273 c 2.3,1.318 3.139,4.289 1.82,6.602 -1.03,1.833 -3.092,2.72 -5.032,2.36 l -1.126,-0.215 c -1.342,5.439 -6.254,9.441 -12.078,9.441 -1.149,0 -2.275,-0.167 -3.33,-0.456 L 67.24,65.023 v 29.63 c 0,2.54 -2.084,4.601 -4.625,4.601 -2.539,0 -4.6,-2.061 -4.6,-4.601 V 64.364 H 34.699 l -4.17,7.141 8.723,20.8 c 1.27,2.229 0.479,5.032 -1.725,6.278 -2.229,1.271 -5.033,0.479 -6.303,-1.749 L 21.04,72.848 v -7.645 l -4.553,7.165 v 22.285 c 0,2.54 -2.062,4.601 -4.601,4.601 -2.541,0 -4.625,-2.061 -4.625,-4.601 V 68.917 L 11.072,62.95 V 42.75 L 7.285,48.549 V 65.371 H 0 v -16.99 z"
     id="path9171"
     style="fill:#000000;fill-opacity:1" /></g>
</svg>