<?xml version="1.0" encoding="UTF-8" standalone="no"?>
<!-- Created with Inkscape (http://www.inkscape.org/) -->

<svg
   xmlns:dc="http://purl.org/dc/elements/1.1/"
   xmlns:cc="http://creativecommons.org/ns#"
   xmlns:rdf="http://www.w3.org/1999/02/22-rdf-syntax-ns#"
   xmlns:svg="http://www.w3.org/2000/svg"
   xmlns="http://www.w3.org/2000/svg"
   version="1.1"
   width="100"
   height="100"
   viewBox="0 0 100 100"
   id="Layer_1"
   xml:space="preserve"><metadata
   id="metadata6816"><rdf:RDF><cc:Work
       rdf:about=""><dc:format>image/svg+xml</dc:format><dc:type
         rdf:resource="http://purl.org/dc/dcmitype/StillImage" /><dc:title></dc:title></cc:Work></rdf:RDF></metadata><defs
   id="defs6814" />

<g
   transform="translate(1.492,0)"
   id="g6818"
   style="fill:#000000;fill-opacity:1"><path
     d="m 65.979,99.993 c 17.125,0 31.037,-13.883 31.037,-31.008 0,-4.951 0,-18.108 0,-20.805 0,-2.845 -2.18,-3.679 -4.068,-1.597 -1.123,1.231 -26.41,26.692 -39.057,40.485 0,-11.103 0,-26.342 0,-30.11 0,-0.748 0.32,-1.328 1.217,-1.328 12.979,0 24.711,-13.978 24.711,-27.405 0,-9.934 -2.094,-17.139 -6.701,-26.355 C 72.517,0.668 72.431,0 70.747,0 69.96,0 69.206,0.354 68.841,0.984 c -1.197,2.08 -7.672,13.27 -8.086,14.008 -0.504,0.902 -1.59,0.994 -2.096,0 C 58.276,14.238 51.772,3.064 50.571,0.984 50.206,0.354 49.456,0 48.669,0 c -0.786,0 -1.538,0.354 -1.902,0.984 -1.203,2.08 -7.705,13.254 -8.087,14.008 -0.506,0.994 -1.591,0.902 -2.096,0 C 36.17,14.253 29.696,3.064 28.497,0.984 28.132,0.354 27.379,0 26.592,0 c -1.684,0 -1.771,0.668 -2.371,1.869 -4.61,9.217 -6.702,16.421 -6.702,26.356 0,13.428 11.732,27.404 24.71,27.404 0.898,0 1.216,0.58 1.216,1.328 0,6.16 0,43.043 0,43.043 l 22.534,-0.007 z"
     id="path6808"
     style="fill:#000000;fill-opacity:1" /><path
     d="M 4.093,46.584 C 2.202,44.501 0,45.336 0,48.18 c 0,2.696 0.053,15.854 0.053,20.807 0,17.125 13.884,31.008 31.009,31.008 1.855,0 6.256,0 8.363,0 V 82.591 C 33.046,76.112 5.417,48.041 4.093,46.584 z"
     id="path6810"
     style="fill:#000000;fill-opacity:1" /></g>
</svg>