<?xml version="1.0" encoding="UTF-8" standalone="no"?>
<!-- Created with Inkscape (http://www.inkscape.org/) -->

<svg
   xmlns:dc="http://purl.org/dc/elements/1.1/"
   xmlns:cc="http://creativecommons.org/ns#"
   xmlns:rdf="http://www.w3.org/1999/02/22-rdf-syntax-ns#"
   xmlns:svg="http://www.w3.org/2000/svg"
   xmlns="http://www.w3.org/2000/svg"
   version="1.0"
   width="100"
   height="100"
   viewBox="0 0 100 100"
   id="Layer_1"
   xml:space="preserve"><metadata
   id="metadata11523"><rdf:RDF><cc:Work
       rdf:about=""><dc:format>image/svg+xml</dc:format><dc:type
         rdf:resource="http://purl.org/dc/dcmitype/StillImage" /><dc:title></dc:title></cc:Work></rdf:RDF></metadata><defs
   id="defs11521" />
<path
   d="M 41.464,0 H 5.614 C 2.514,0 0,2.513 0,5.614 v 35.85 c 0,3.1 2.514,5.614 5.614,5.614 h 35.85 c 3.101,0 5.613,-2.514 5.613,-5.614 V 5.614 C 47.077,2.513 44.564,0 41.464,0 z m -30.26,6.588 c 2.549,0 4.615,2.066 4.615,4.615 0,2.549 -2.066,4.615 -4.615,4.615 -2.549,0 -4.615,-2.066 -4.615,-4.615 0,-2.549 2.066,-4.615 4.615,-4.615 z m 0,33.9 c -2.549,0 -4.615,-2.066 -4.615,-4.615 0,-2.549 2.066,-4.615 4.615,-4.615 2.549,0 4.615,2.066 4.615,4.615 0,2.549 -2.066,4.615 -4.615,4.615 z M 23.539,28.154 c -2.549,0 -4.615,-2.066 -4.615,-4.615 0,-2.549 2.066,-4.615 4.615,-4.615 2.549,0 4.615,2.066 4.615,4.615 0,2.549 -2.066,4.615 -4.615,4.615 z m 12.335,12.334 c -2.55,0 -4.615,-2.066 -4.615,-4.615 0,-2.549 2.065,-4.615 4.615,-4.615 2.549,0 4.614,2.066 4.614,4.615 0,2.549 -2.065,4.615 -4.614,4.615 z m 0,-24.669 c -2.55,0 -4.615,-2.066 -4.615,-4.615 0,-2.549 2.065,-4.615 4.615,-4.615 2.549,0 4.614,2.066 4.614,4.615 0,2.549 -2.065,4.615 -4.614,4.615 z"
   id="path11515"
   style="fill:#000000;fill-opacity:1" />
<path
   d="M 98.356,65.067 73.006,39.718 c -2.192,-2.193 -5.747,-2.193 -7.939,0 l -25.35,25.35 c -2.192,2.192 -2.192,5.747 0,7.939 l 25.35,25.35 c 2.192,2.191 5.747,2.191 7.939,0 l 25.35,-25.35 c 2.192,-2.193 2.192,-5.748 0,-7.94 z M 72.301,48.329 c 1.802,1.802 1.802,4.724 0,6.527 -1.803,1.802 -4.725,1.802 -6.527,0 -1.803,-1.803 -1.803,-4.725 0,-6.527 1.803,-1.802 4.724,-1.802 6.527,0 z M 48.33,72.3 c -1.803,-1.803 -1.803,-4.725 0,-6.527 1.802,-1.802 4.724,-1.802 6.526,0 1.802,1.803 1.802,4.725 0,6.527 -1.802,1.802 -4.724,1.802 -6.526,0 z m 17.443,-10e-4 c -1.803,-1.802 -1.803,-4.724 0,-6.526 1.803,-1.802 4.725,-1.802 6.527,0 1.802,1.803 1.802,4.725 0,6.526 -1.802,1.803 -4.724,1.803 -6.527,0 z m 0,17.445 c -1.803,-1.802 -1.803,-4.725 0,-6.526 1.803,-1.803 4.725,-1.803 6.527,0 1.802,1.802 1.802,4.725 0,6.526 -1.802,1.802 -4.724,1.802 -6.527,0 z M 83.218,72.299 c -1.803,-1.802 -1.803,-4.724 0,-6.526 1.802,-1.802 4.725,-1.802 6.526,0 1.803,1.803 1.803,4.725 0,6.526 -1.802,1.803 -4.724,1.803 -6.526,0 z"
   id="path11517"
   style="fill:#000000;fill-opacity:1" />
</svg>