<?xml version="1.0" encoding="UTF-8" standalone="no"?>
<!-- Created with Inkscape (http://www.inkscape.org/) -->

<svg
   xmlns:dc="http://purl.org/dc/elements/1.1/"
   xmlns:cc="http://creativecommons.org/ns#"
   xmlns:rdf="http://www.w3.org/1999/02/22-rdf-syntax-ns#"
   xmlns:svg="http://www.w3.org/2000/svg"
   xmlns="http://www.w3.org/2000/svg"
   version="1.1"
   width="100"
   height="100"
   viewBox="0 0 100 100"
   id="Layer_1"
   xml:space="preserve"><metadata
   id="metadata18643"><rdf:RDF><cc:Work
       rdf:about=""><dc:format>image/svg+xml</dc:format><dc:type
         rdf:resource="http://purl.org/dc/dcmitype/StillImage" /><dc:title></dc:title></cc:Work></rdf:RDF></metadata><defs
   id="defs18641" />
<g
   id="g18607"
   style="fill:#000000;fill-opacity:1">
	<path
   d="m 32.714,93.852 c -0.667,0 -1.16,-0.173 -1.143,-0.856 0.393,-0.219 1.133,0.234 1.143,0.856 z"
   id="path18609"
   style="fill:#000000;fill-opacity:1" />
	<path
   d="m 27.858,11.464 c 0.641,0.257 -0.133,0.94 -0.286,1.284 0.072,0.32 0.797,0.716 1.001,0.43 0.592,0.217 0.459,1.157 0.856,1.57 -0.176,0.537 -0.606,0.821 -0.715,1.428 -0.362,-0.018 -0.553,-0.208 -0.571,-0.569 -0.535,-0.013 -0.431,0.614 -1.142,0.427 0,-0.189 0,-0.38 0,-0.57 -0.776,-0.108 -1.157,0.176 -1.857,0.144 0.502,-1.788 1.423,-3.151 2.714,-4.144 z"
   id="path18611"
   style="fill:#000000;fill-opacity:1" />
	<path
   d="m 71.121,18.318 c 0.348,0.463 0.313,1.308 0.432,1.999 -0.432,0.094 -0.5,0.548 -1.145,0.429 -0.607,-0.589 -0.271,-1.443 -0.428,-2.285 0.401,-0.216 0.586,0.047 1.141,-0.143 z"
   id="path18613"
   style="fill:#000000;fill-opacity:1" />
	<path
   d="m 82.83,24.172 c 0.027,0.789 -0.871,0.651 -1.283,1 -0.449,-0.313 -0.929,-0.595 -0.857,-1.427 0.706,-0.369 1.582,0.183 2.14,0.427 z"
   id="path18615"
   style="fill:#000000;fill-opacity:1" />
	<path
   d="m 87.258,24.743 c -0.141,0.575 -0.625,0.803 -1,1.142 -1.611,-0.421 -0.594,-1.732 1,-1.142 z"
   id="path18617"
   style="fill:#000000;fill-opacity:1" />
	<path
   d="m 14.722,37.022 c 1.262,-0.359 2.994,-0.333 2.998,1.284 -0.945,-0.088 -1.554,0.159 -1.856,0.714 -0.486,-0.679 -1.398,-0.043 -1.713,-0.856 -0.065,-0.446 0.306,-0.456 0.714,-0.428 0.018,-0.256 -0.175,-0.302 -0.143,-0.572 -0.644,0.165 -1.065,0.554 -1.999,0.43 0.012,-1.605 -2.129,-1.953 -3.142,-1.286 0.538,-2.803 4.395,-0.535 5.141,0.714 z"
   id="path18619"
   style="fill:#000000;fill-opacity:1" />
	<path
   d="m 19.292,37.879 c 0.181,0.771 -0.843,0.874 -1.285,0.571 0,-0.191 0,-0.38 0,-0.571 0.23,-0.214 1.053,-0.214 1.285,0 z"
   id="path18621"
   style="fill:#000000;fill-opacity:1" />
	<path
   d="m 13.581,39.45 c -2.25,0.757 -0.397,-2.248 0,0 l 0,0 z"
   id="path18623"
   style="fill:#000000;fill-opacity:1" />
	<path
   d="m 18.006,79 c 0.759,-0.162 1.181,1.121 0.571,1.429 C 17.958,80.383 18.028,79.646 18.006,79 z"
   id="path18625"
   style="fill:#000000;fill-opacity:1" />
	<path
   d="m 26.146,86.139 c 0.442,0.037 0.808,0.146 1.143,0.287 0.048,0.62 -0.393,0.749 -0.856,0.855 -0.327,-0.385 -0.492,-0.506 -0.287,-1.142 z"
   id="path18627"
   style="fill:#000000;fill-opacity:1" />
	<path
   d="m 28.002,86.855 c 0.432,0.09 0.823,0.224 0.856,0.713 -0.434,0.043 -0.854,0.53 -1.286,0.144 0.003,-0.429 0.372,-0.485 0.43,-0.857 z"
   id="path18629"
   style="fill:#000000;fill-opacity:1" />
	<path
   d="m 83.621,68.047 c -0.824,-1.486 -0.283,-3.018 0.61,-4.021 -0.442,-0.761 -0.238,-2.31 0.362,-3.168 0.545,-0.769 1.928,-0.881 2.438,-1.828 0.306,-0.563 -0.135,-1.01 0.488,-1.582 1.692,1.254 -0.294,4.07 -0.729,5.725 -0.299,1.125 -0.24,1.77 -0.976,2.314 0.083,0.49 -0.119,0.697 -0.123,1.099 -0.621,0.557 -0.946,1.404 -2.07,1.461 z"
   id="path18631"
   style="fill:#000000;fill-opacity:1" />
	<path
   d="m 47.434,4.198 c 14.66,-0.943 26.21,5.142 33.751,12.063 7.741,7.107 13.79,17.148 14.62,31.193 0.869,14.688 -4.834,25.827 -11.94,33.628 C 77.029,88.592 66.393,95.113 52.794,95.826 38.404,96.581 26.835,91.068 19.044,83.763 11.273,76.478 4.897,66.543 4.177,52.816 3.384,37.711 9.177,26.564 16.118,18.943 21.306,13.243 28.519,8.312 37.32,5.782 40.398,4.899 44.181,4.407 47.434,4.198 z M 26.355,82.182 c -1.671,-0.605 -2.034,-2.517 -2.561,-4.266 -0.132,-0.395 -0.81,-0.247 -0.608,-0.975 0.02,-0.18 0.293,-0.112 0.487,-0.121 0.206,-1.778 -1.021,-2.856 -1.096,-4.51 -0.056,-1.207 0.389,-2.421 0.241,-3.656 C 22.551,66.4 22.221,64.175 22.21,61.588 21.685,60.897 21.277,60.087 20.261,59.883 19.228,58.681 18.528,57.149 18.066,55.374 17.259,55 16.272,53.423 17.213,52.449 c -1.1,-1.178 0.399,-2.787 0.853,-3.898 0.043,-1.178 0.006,-2.278 -0.609,-2.803 C 17,45.696 17.2,46.303 16.971,46.481 16.21,46.46 16.272,45.866 15.63,45.991 15.6,45.375 15.038,45.286 14.778,44.897 14.704,42.981 12.329,43.363 11.975,41.729 11.519,41.717 11.607,42.252 10.999,42.093 9.726,41.136 8.588,40.983 8.443,39.533 8.398,39.101 8.687,38.786 8.563,38.315 8.336,37.45 7.596,36.709 7.344,35.877 7.335,36.747 8.402,38.19 7.588,38.68 7.08,38.336 7.253,37.309 6.859,36.853 4.856,41.51 4.292,48.591 4.907,54.886 c 1.431,14.634 10.451,26.846 20.957,33.51 2.431,1.539 4.656,3.197 6.825,2.189 -0.068,-0.264 -0.357,-0.934 -0.61,-0.607 0.097,0.016 0.371,0.404 0.121,0.365 -0.735,0.135 -1.858,0.194 -2.314,-0.486 0.254,-0.44 0.254,-0.656 0,-1.098 -0.526,0.398 -1.527,0.156 -1.585,-0.609 0.5,-0.121 0.494,0.016 1.099,0 0.253,-0.191 -0.075,-0.965 0.486,-0.853 0.514,0.021 0.571,0.631 0.244,0.853 0.707,0.105 0.793,0.834 1.34,1.1 -0.063,-0.715 -0.453,-0.682 -0.487,-1.223 -0.109,-1.641 2.439,-2.125 2.925,-0.973 -0.723,0.172 -1.505,0.283 -1.463,1.219 1.828,1.262 3.188,2.986 5.116,4.143 0.104,0.51 -0.235,0.572 -0.241,0.977 2.866,0.859 8.75,2.646 11.819,1.219 0.658,-0.067 1.253,0.092 1.828,0 1.275,-0.203 3.069,-1.686 4.143,-1.828 0.35,-0.047 0.859,0.199 1.22,0.121 0.552,-0.121 0.927,-0.696 1.462,-0.976 1.479,-0.769 3.295,-0.976 5.239,-1.219 0.048,0.604 1.241,0.062 1.218,0.729 0.691,-0.382 0.938,0.031 1.706,0.123 0.729,-0.943 2.068,-0.875 3.655,-0.73 14.021,-6.954 24.995,-20.146 25.711,-39.965 0.188,-5.207 -0.656,-9.759 -1.828,-14.133 -0.982,0.047 -1.461,-0.409 -2.314,-0.489 0,0.889 1.026,1.172 1.096,1.949 0.063,0.713 -0.502,0.805 -0.486,1.706 -1.121,1.072 -2.716,1.67 -4.021,2.56 -0.018,0.392 0.119,0.934 -0.363,0.854 -0.688,-0.167 -0.628,-1.076 -1.096,-1.461 -0.112,-2.246 -1.844,-2.87 -1.951,-5.117 -0.202,-0.409 -0.73,-0.488 -0.854,-0.978 -0.217,-0.775 -0.463,-2.108 -1.219,-1.948 0.125,1.338 1.02,2.96 1.829,4.021 -0.351,2.052 1.69,3.718 2.681,5.238 -0.142,0.298 -0.688,0.589 -0.367,0.975 0.881,-0.181 2.016,-0.284 2.925,-0.73 0.192,2.309 -1.32,3.955 -1.706,6.093 -0.268,0.138 -0.404,0.406 -0.73,0.485 -0.203,2.078 -2.729,2.583 -2.437,4.508 0.073,0.498 0.778,0.776 0.974,1.342 0.409,1.183 -0.195,2.125 -0.244,3.654 -0.955,0.75 -2,1.41 -2.557,2.56 0.484,0.657 0.438,2.024 0,2.679 -0.203,0 -0.408,0 -0.609,0 -0.793,1.362 -0.886,3.42 -2.436,4.021 -0.389,1.522 -1.753,2.066 -2.928,2.805 -1.17,-0.467 -3.168,1.535 -3.654,-0.367 -0.168,-0.493 0.264,-0.385 0.245,-0.73 -1.116,-1.687 -1.8,-3.34 -2.073,-5.605 -0.139,-1.152 -1.111,-1.963 -1.218,-3.043 -0.211,-2.152 2.416,-4.579 0.123,-6.215 -0.3,-1.733 -1.491,-2.572 -1.952,-4.146 0.396,-0.732 0.577,-2.449 0.123,-3.286 -1.26,0.922 -1.987,-0.913 -3.046,-1.099 -1.263,-0.219 -2.394,0.887 -3.654,1.219 -0.823,-0.056 -1.053,-0.647 -1.829,-0.609 -0.813,0.042 -1.279,0.835 -2.193,0.73 -2.092,-0.239 -3.051,-2.701 -3.896,-4.631 -0.594,-0.339 -1.236,-0.632 -1.585,-1.217 0.144,-0.754 -0.183,-1.039 -0.366,-1.461 0.678,-1.071 1.169,-3.458 0.123,-4.511 1.254,-1.749 1.833,-4.173 4.02,-4.994 1.139,-1.057 0.89,-3.5 2.683,-3.899 0,-0.688 0.368,-1.012 0.731,-1.341 -0.401,-0.533 -1.459,-0.411 -2.193,-0.608 -0.277,-1.434 0.604,-2.904 -0.122,-4.387 1.004,-1.069 2.913,0.15 4.631,-0.122 0.716,-1.962 -0.866,-2.606 -1.95,-3.169 0,-0.323 -0.048,-0.694 0.121,-0.853 1.442,0.246 1.482,-0.861 2.682,-0.243 0.039,-0.406 -0.599,-0.132 -0.365,-0.73 -0.749,0.228 -2.186,0.412 -3.047,0.121 0.156,-0.414 0.677,-0.462 0.73,-0.975 -0.439,0.073 -0.688,-0.043 -0.73,-0.365 0.145,-0.141 0.431,-0.138 0.73,-0.123 0.085,-0.45 -0.207,-0.521 -0.121,-0.974 0.143,-0.141 0.43,-0.139 0.729,-0.122 0.12,-0.487 -0.361,-0.367 -0.242,-0.854 -0.446,-0.038 -0.679,0.138 -0.976,0.245 0,0.367 0,0.731 0,1.098 -0.334,0.52 -0.871,0.835 -1.584,0.975 -0.235,-0.373 -0.795,-0.424 -1.099,-0.731 0.038,-0.605 -0.018,-1.117 -0.12,-1.585 0.963,0.135 1.163,-0.534 1.948,-0.852 0.029,0.159 0.688,0.483 0.61,0 0.115,-0.441 -0.549,-0.103 -0.487,-0.486 0.479,-0.456 0.386,-1.482 0.974,-1.829 0.383,0.025 0.896,-0.083 1.098,0.123 0.052,0.293 -0.223,0.265 -0.122,0.608 0.465,-0.058 0.76,0.052 0.854,0.366 0.03,0.478 -0.439,0.453 -0.365,0.975 0.637,-0.012 0.58,0.397 0.486,0.854 0.6,0.255 1.08,0.626 1.098,1.462 0.224,0.185 0.685,0.13 0.854,0.365 0.423,0.382 -0.374,0.644 0,0.976 0.986,0.093 1.053,-0.734 1.463,-1.219 0.651,-0.232 1.54,-0.2 2.07,-0.244 -0.555,-1.08 -0.773,-2.836 0.854,-2.925 0.364,0.913 0.319,1.318 0,2.192 0.317,0.448 1.237,0.402 0.854,1.219 1.244,1.119 2.553,-0.046 4.021,0.487 0.391,-0.665 0.168,-1.943 0.975,-2.192 0.604,-0.078 0.402,0.652 0.975,0.609 -0.007,-0.849 -0.92,-1.013 -0.486,-1.95 -1.222,-0.403 -1.971,-1.277 -3.168,-1.706 0.024,0.583 0.756,0.462 0.609,1.219 -0.878,0.341 -0.832,1.604 -0.977,2.681 -0.525,0.278 -2.196,0.259 -2.438,-0.487 -0.177,-0.747 0.755,-0.383 0.73,-0.976 -0.483,-0.571 -1.017,-1.097 -1.217,-1.95 -0.912,0.208 -1.117,0.873 -1.951,0.732 C 64.324,10.687 63.874,7.931 64.746,7.007 58.246,4.661 48.427,3.854 40.619,5.545 40.261,5.999 40.188,6.739 39.645,7.007 40.023,8.161 38.746,8.996 37.816,9.568 37.515,9.462 37.456,9.116 37.207,8.958 36.807,8.962 36.601,9.164 36.111,9.08 35.752,8.695 35.761,8.485 35.987,7.984 35.457,7.946 35.409,7.424 35.014,7.253 c -3.12,0.904 -5.674,2.368 -8.286,3.776 -0.254,0.478 -0.522,0.94 -0.731,1.463 0.162,0.123 0.454,0.115 0.489,0.363 1.049,-0.167 0.849,-1.586 1.948,-1.704 0.386,1.076 0.696,2.229 0.977,3.412 0.303,0.103 0.651,0.159 1.095,0.121 -0.104,0.794 0.789,0.593 0.853,1.219 -0.289,0.969 -0.857,1.66 -1.948,1.827 -0.104,1.074 -1.438,0.92 -2.193,1.341 0.203,0.281 1.09,-0.116 0.971,0.487 -0.688,0.493 -1.721,-0.105 -1.824,0.976 0.288,0.237 1.129,-0.075 1.216,0.365 0.033,0.396 -0.472,0.258 -0.486,0.609 0.393,0.054 0.706,0.186 0.607,0.731 -0.738,0.599 -1.777,0.901 -2.559,1.461 -0.346,-0.259 -0.074,-0.777 -0.241,-0.976 -0.545,0.595 -1.605,0.673 -1.952,1.463 -0.156,0.483 0.401,0.249 0.245,0.73 -0.83,0.227 -1.048,1.064 -1.828,1.34 -0.397,0.781 -0.615,1.743 -1.341,2.194 0.038,0.286 0.193,0.458 0.121,0.853 -0.378,1.27 -1.648,1.273 -2.313,2.315 -0.914,1.428 0.646,3.534 -0.731,4.751 -0.403,-0.733 -0.611,-1.662 -0.731,-2.68 -0.795,0.203 -0.896,-0.192 -1.828,0 0.034,0.48 -0.047,0.846 -0.366,0.976 -0.5,-0.028 -0.518,-0.539 -1.097,-0.489 -2.126,0.69 -2.093,4.026 -1.341,6.095 1.882,0.397 1.235,-2.963 3.168,-1.705 -0.186,1.07 -0.619,1.896 -0.851,2.922 3.127,-0.972 1.019,2.712 2.315,3.776 0.763,-0.542 1.745,-0.223 2.194,0 0.286,-1.172 1.305,-1.616 2.314,-2.069 0.228,0.534 0.168,0.134 0.731,0.122 0.166,0.482 0.641,0.657 0.853,1.097 0.662,-0.037 0.885,-0.179 1.34,0.123 0.261,-0.43 0.799,-0.58 1.584,-0.488 0.149,1.228 1.893,1.705 2.436,2.924 2.823,-0.224 3.726,1.474 4.145,3.655 1.111,0.573 2.609,0.397 3.167,1.707 2.227,-0.259 5.552,1.295 6.093,2.803 0.493,1.372 -1.85,3.787 -2.314,4.142 0.229,1.951 -0.222,5.403 -1.344,5.852 -0.424,0.169 -0.912,-0.066 -1.46,0 -0.62,0.598 -1.605,0.831 -2.072,1.584 -0.097,0.622 0.169,0.885 0.123,1.461 -1.022,1.253 -1.491,3.059 -2.924,3.898 -0.18,-0.188 -0.626,-0.106 -0.975,-0.121 0.87,1.328 -0.146,2.689 -1.952,2.07 0.003,0.402 0.192,0.795 0,1.221 -0.443,0.037 -0.792,-0.021 -1.094,-0.123 -0.118,0.685 0.902,0.23 0.853,0.854 -0.015,0.313 -0.455,0.195 -0.611,0.364 0.014,0.353 -0.064,0.799 0.122,0.976 -0.185,0.221 -0.834,-0.021 -0.731,0.488 0.278,0.371 0.908,0.391 0.975,0.975 -0.312,0.58 -0.625,1.162 -0.975,1.707 0.607,1.262 1.606,2.129 2.681,2.92 -1.005,0.35 -2.632,-0.076 -3.167,-0.851 0.403,0.058 0.485,-1.294 0.364,-0.976 -0.282,0.041 0.008,0.658 -0.373,0.602 z M 19.409,16.749 c 0.177,0.066 0.628,-0.143 0.608,0.123 -0.156,0.721 -0.428,1.546 0,2.193 0.969,-0.054 0.911,-1.413 0.608,-2.071 0.696,-0.729 1.7,-1.143 1.706,-2.56 -1.098,0.171 -2.2,1.367 -2.922,2.315 z m 43.376,-0.244 c 0.295,0.092 0.497,-0.789 0.122,-0.608 0.099,0.342 -0.172,0.315 -0.122,0.608 z m -37.042,2.559 c 0.001,0.183 -0.451,0.499 -0.122,0.609 0.333,-0.316 1.152,-0.147 1.218,-0.73 -0.499,-0.097 -0.624,0.187 -1.096,0.121 z m 60.804,5.728 c -0.605,1.696 0.106,3.123 1.947,3.045 -0.021,-1.074 -0.502,-1.69 -0.974,-2.314 -0.187,-2.372 -1.793,-3.322 -2.927,-4.751 0.071,1.473 0.995,3.041 1.954,4.02 z m -8.652,-1.951 c 0.306,0.224 0.502,0.555 0.73,0.854 2.648,-0.732 3.897,0.914 6.092,0.853 -0.316,-1.43 -2.094,-1.398 -2.559,-2.682 0.178,-0.065 0.629,0.144 0.609,-0.121 -0.215,-0.03 -0.278,-0.209 -0.244,-0.487 -0.245,0.203 -0.904,-0.011 -1.096,0.244 0.228,0.137 0.586,0.145 0.486,0.609 -0.506,-0.104 -1.06,-0.392 -1.584,-0.123 -0.156,-0.317 -0.267,-0.367 -0.123,-0.73 -0.662,0.136 -0.641,-0.415 -1.218,-0.366 -0.439,0.574 -0.695,1.332 -1.093,1.949 z M 26.963,21.379 c -0.229,-0.097 -0.446,-0.203 -0.73,-0.243 -0.158,0.409 0.616,0.504 0.73,0.243 z m 40.696,-0.243 c -0.873,0.473 -1.757,0.781 -2.923,0.366 -0.284,1.505 -2.095,1.481 -1.829,3.534 -0.836,0.849 -1.95,1.254 -3.534,1.34 1.266,1.091 2.586,0.052 3.9,-0.244 1.406,-0.314 2.747,-0.178 4.266,0 0.305,-0.102 0.478,-0.334 0.853,-0.366 0.268,0.221 0.62,0.354 0.976,0.487 -0.322,0.654 0.537,0.835 0.242,1.827 1.859,0.74 2.956,2.245 4.874,2.925 0.069,-0.557 -0.215,-0.759 -0.122,-1.34 0.322,-0.41 1.348,-0.114 1.706,-0.487 1.265,1.562 3.595,1.757 5.972,1.95 0.215,-1.219 0.113,-2.138 0.243,-3.291 -0.567,-0.038 -0.813,0.243 -1.341,0.243 -0.331,-0.074 -0.303,-0.508 -0.73,-0.486 -1.398,0.427 -2.229,-0.667 -2.803,-1.462 0.02,-0.581 0.092,-2.068 -0.854,-2.07 -0.012,1.249 0.177,1.587 0.486,2.559 -0.433,-0.19 -0.072,0.415 -0.365,0.365 -0.162,0.019 -0.365,-0.496 -0.487,-0.121 0.198,-0.087 0.198,0.574 0,0.487 -1.644,-0.67 -2.384,-2.244 -2.681,-4.265 -0.51,-0.271 -0.722,-0.589 -1.461,-0.366 0.179,0.878 1.377,0.736 1.34,1.828 -0.379,0.344 -0.566,-0.242 -0.975,-0.244 -0.021,0.387 0.324,0.406 0.243,0.854 -0.39,0.058 -0.653,0.241 -0.731,0.609 -0.233,0.235 -0.489,-0.13 -0.852,-0.122 0.073,0.292 0.176,0.556 0.12,0.975 -0.285,-0.002 -0.358,0.209 -0.731,0.123 -0.404,-0.472 -1.201,-1.122 -0.973,-1.829 0.643,0.43 1.2,0.232 1.826,0.123 -0.446,-2.075 -2.663,-2.377 -3.655,-3.902 z m -51.297,1.462 c 0.491,-0.023 0.499,-0.016 0.365,0.365 0.385,0.061 0.43,-0.219 0.853,-0.122 0.027,-0.514 -0.229,-0.746 -0.609,-0.854 -0.101,0.308 -0.428,0.386 -0.609,0.611 z m -0.364,0.487 c 0.017,-0.145 0.216,-0.274 0,-0.366 -0.019,0.145 -0.219,0.278 0,0.366 z m 2.314,1.218 c 0.083,-0.354 0.202,-1.077 0.732,-0.608 0.026,-0.23 -0.138,-0.271 -0.123,-0.486 -0.539,-0.059 -0.605,0.167 -0.975,0 0.068,0.417 0.24,0.732 0.366,1.094 z m 69.819,1.219 c -0.052,-0.231 -0.043,-0.524 -0.367,-0.486 -0.035,0.318 0.045,0.524 0.367,0.486 z m 0,9.626 c 0.285,-0.038 0.502,-0.239 0.73,0 0.018,0.592 0.088,1.129 0.364,1.463 1.042,0.063 1.198,-0.752 1.584,-1.342 -0.47,0.02 -0.562,0.411 -1.095,0.364 -1.285,-0.38 -1.006,-2.323 -2.315,-2.679 0.033,0.942 0.536,1.414 0.732,2.194 z m -67.382,9.137 c 0.391,0.05 0.695,-0.517 0.246,-0.609 -0.056,0.235 -0.265,0.309 -0.246,0.609 z"
   id="path18633"
   style="fill:#000000;fill-opacity:1" />
	<g
   id="g18635"
   style="fill:#000000;fill-opacity:1">
		<path
   d="m 50,4.571 c 25.088,0 45.43,20.338 45.43,45.428 0,25.089 -20.342,45.43 -45.43,45.43 C 24.912,95.429 4.57,75.088 4.57,49.999 4.57,24.909 24.91,4.571 50,4.571 m 0,-2 c -26.153,0 -47.43,21.276 -47.43,47.428 0,26.151 21.276,47.43 47.429,47.43 26.153,0 47.43,-21.276 47.43,-47.43 C 97.428,23.847 76.151,2.571 50,2.571 l 0,0 z"
   id="path18637"
   style="fill:#000000;fill-opacity:1" />
	</g>
</g>
</svg>