<?xml version="1.0" encoding="UTF-8" standalone="no"?>
<!-- Created with Inkscape (http://www.inkscape.org/) -->

<svg
   xmlns:dc="http://purl.org/dc/elements/1.1/"
   xmlns:cc="http://creativecommons.org/ns#"
   xmlns:rdf="http://www.w3.org/1999/02/22-rdf-syntax-ns#"
   xmlns:svg="http://www.w3.org/2000/svg"
   xmlns="http://www.w3.org/2000/svg"
   version="1.0"
   width="100"
   height="100"
   viewBox="0 0 100 100"
   id="Layer_1"
   xml:space="preserve"><metadata
   id="metadata10345"><rdf:RDF><cc:Work
       rdf:about=""><dc:format>image/svg+xml</dc:format><dc:type
         rdf:resource="http://purl.org/dc/dcmitype/StillImage" /><dc:title></dc:title></cc:Work></rdf:RDF></metadata><defs
   id="defs10343" />

<g
   transform="translate(0,4.8479996)"
   id="g10347"
   style="fill:#000000;fill-opacity:1"><path
     d="M 75.754,91.754 C 64.122,93.59 66.024,87.262 65.89,80.043 l -0.686,-14.15 -2.987,13.671 c -0.545,2.594 -1.23,4.972 2.446,6.876 2.59,2.248 -0.332,5.448 -3.121,5.037 -8.518,0.277 -7.284,-5.376 -6.548,-9.385 l 0.479,-5.79 c 0.343,-3.944 1.093,-6.4 1.295,-11.913 l -1.15,-2.988 C 46.43,59.02 40.094,57.249 32.954,53.439 l -5.114,0.679 c -2.311,0.342 -1.692,3.066 -1.966,4.834 l -0.747,4.827 -4.228,10.961 -0.331,0.952 c -0.279,0.754 -0.211,3.745 0.886,5.304 l 2.237,4.561 c 1.77,2.59 2.244,8.987 -2.515,6.938 l -3.541,-1.49 C 15.122,89.984 13.073,82.977 12.199,77.872 l 0.069,-7.151 c -2.183,-0.675 -3.07,12.191 -2.183,14.836 l 2.183,6.675 c 0.671,2.168 -1.84,2.922 -3.61,2.922 -4.154,0 -5.992,-4.218 -6.876,-7.76 L 1.107,84.748 C 0.077,80.664 0.619,74.463 2.732,70.854 L 3.683,68.621 C 5.586,64.19 3.273,60.99 2.732,58.743 0.962,51.527 -0.468,44.518 4.503,37.576 L 4.849,37.101 C 4.705,36.559 3.273,35.406 2.389,32.684 0.482,26.551 -1.219,16.487 1.169,16.487 L 2.731,16.41 c 4.021,0 2.854,16.607 7.627,15.522 l 34.574,0.343 6.056,-1.64 c 2.25,-0.606 4.152,-2.035 6.122,-3.264 l 3.94,-2.447 c 4.561,4.562 8.514,7.352 15.045,9.732 1.774,13.537 -0.199,16.54 -1.902,24.628 l -0.688,3.269 c -1.216,5.787 -1.627,11.779 -1.35,17.7 l 0.134,2.789 c -0.065,2.857 1.559,3.06 3.807,3.741 1.43,0.753 2.447,3.611 -0.342,4.971 l 0,0 0,0 z"
     id="path10337"
     style="fill:#000000;fill-opacity:1;fill-rule:evenodd" /><path
     d="m 83.062,9.073 c 1.901,1.297 4.286,3.608 6.191,5.646 l 2.388,2.592 c 1.562,1.625 3.94,1.425 6.055,1.834 l 0.743,0.135 c 2.312,1.218 1.576,3.673 0.819,5.512 l -0.477,1.153 c -2.183,5.247 -8.645,5.657 -13.208,3.198 L 83.538,28.06 H 82.85 l -1.422,0.952 -2.927,2.314 C 72.581,28.735 67.75,25.612 63.864,21.46 l 8.922,-11.167 2.991,-4.352 0.61,-1.43 0.686,-1.572 c 0.544,-1.759 2.788,-3.464 4.43,-2.789 1.559,0.686 2.58,3.674 2.169,5.249 l -0.408,1.77 -0.202,1.904 0,0 0,0 z"
     id="path10339"
     style="fill:#000000;fill-opacity:1;fill-rule:evenodd" /></g>
</svg>