<?xml version="1.0" encoding="UTF-8" standalone="no"?>
<!-- Created with Inkscape (http://www.inkscape.org/) -->

<svg
   xmlns:dc="http://purl.org/dc/elements/1.1/"
   xmlns:cc="http://creativecommons.org/ns#"
   xmlns:rdf="http://www.w3.org/1999/02/22-rdf-syntax-ns#"
   xmlns:svg="http://www.w3.org/2000/svg"
   xmlns="http://www.w3.org/2000/svg"
   version="1.1"
   width="100"
   height="100"
   viewBox="0 0 12.651685 12.676768"
   id="svg23579"
   xml:space="preserve"
   style="fill-rule:evenodd"><metadata
   id="metadata23591"><rdf:RDF><cc:Work
       rdf:about=""><dc:format>image/svg+xml</dc:format><dc:type
         rdf:resource="http://purl.org/dc/dcmitype/StillImage" /><dc:title></dc:title></cc:Work></rdf:RDF></metadata>
 <defs
   id="defs23581">
  <style
   type="text/css"
   id="style23583" />
 </defs>
 <g
   transform="translate(0.69578205,0.06344758)"
   id="Layer_x0020_1"
   style="fill:#000000;fill-opacity:1">
  <metadata
   id="CorelCorpID_0Corel-Layer" />
  <path
   d="m 0.0105949,3.95547 0.124303,0 5.15538,6.38289 c -0.014027,-0.0282 -0.024025,-0.05865 -0.029397,-0.09043 l -4.49044,-6.3143996 0.124154,0 4.37852,6.1569696 c 0.00269,-0.0079 0.00567,-0.01582 0.0088,-0.02343 l -3.27009,-6.1178697 0.123856,0 3.21458,6.01446 c 0.010744,-0.011043 0.022234,-0.021339 0.034321,-0.030889 l -1.33973,-5.99924 0.124005,0 1.32645,5.94089 c 0.033426,-0.010446 0.069091,-0.016116 0.106098,-0.016116 0.045215,0 0.08834,0.00836 0.127735,0.023727 l 1.32839,-5.9485 0.124154,0 -1.34346,6.0161 c 0.018653,0.017012 0.035366,0.036112 0.049692,0.056855 l 3.23741,-6.057288 0.124303,0 -3.30784,6.188458 0.00239,0.01582 4.4226901,-6.2199373 0.123856,0 -4.6926401,6.6004573 0.011043,0.003 5.3217601,-6.5815078 0.124005,0 -5.3389301,6.6031478 c 0.017758,0.0039 0.034918,0.0084 0.049841,0.01388 l 0.01,-1.5e-4 0,0 c 0.082968,0 0.150567,0.04596 0.150567,0.102069 l 0,0.644945 c 0,0.05626 -0.067598,0.102218 -0.150567,0.102218 l 0,0 0,1.12828 -0.229805,0 -0.00104,-0.939363 -0.236818,0 0,0.939363 -0.261141,0 0,-1.12918 c -0.00567,4.48e-4 -0.011341,8.96e-4 -0.017161,8.96e-4 l 0,0 c -0.082371,0 -0.14997,-0.04596 -0.14997,-0.102218 l 0,-0.644945 c 0,-0.05611 0.067598,-0.102069 0.14997,-0.102069 l 0,0 c 0.00836,0 0.016265,4.47e-4 0.024174,0.0012 0.026263,-0.0103 0.055959,-0.01522 0.085654,-0.02029 l -5.32908,-6.5977775 z m 5.37175,6.49705 0.058794,0.07282 c 0.00418,-0.0022 0.00806,-0.0046 0.011938,-0.0072 l -0.024324,-0.03432 c -0.016265,-0.0093 -0.031785,-0.0197 -0.046409,-0.03134 z M -5.1e-6,3.90742 c 0.300238,-0.127139 0.437673,-0.136838 0.749849,0 0.0158177,-1.57073 0.902654,-2.53949 1.89693,-3.21667 -1.32212,0.481694 -2.64678,1.89753 -2.64678,3.21667 z m 7.06097,-0.047304 c -0.296358,-0.305909 -2.4031,-0.438867 -2.88584,0.019697 -0.031785,-2.34938 0.451849,-2.78213 1.13022,-3.54287 0.020294,-0.0097 0.623307,0.0185037 0.621069,-0.0131317 1.04128,0.864154 1.17409,1.97199 1.13455,3.5363 z m -6.14951,-0.021339 c 0.276362,-0.138927 0.791184,-0.152656 1.08336,0.036112 0.015967,-1.57103 0.99383,-3.36962 2.48831,-3.68926 -0.019996,-0.009998 -0.035366,-0.031337 -0.033128,-0.062674 -2.19329,0.260097 -3.57838,2.15151 -3.53854,3.71582 z m 1.22095,0.041036 c 0.296358,-0.258157 1.46627,-0.287853 1.90156,0 -0.103412,-2.10346 0.430212,-2.98806 1.14231,-3.55003 -0.020145,-0.0101472 -0.651063,-0.0708813 -0.648675,-0.102666 -1.41464,0.379476 -2.43488,2.08839 -2.39519,3.6527 z m 9.1277201,-0.00418 c -0.300238,-0.126989 -0.437673,-0.136987 -0.750148,0 C 10.494607,2.304903 9.6076209,1.336443 8.6131969,0.65911304 9.9353169,1.140658 11.260127,2.556793 11.260127,3.875633 z M 10.338967,3.838777 C 10.062306,3.69985 9.5479319,3.686121 9.2556069,3.8748891 c -0.015669,-1.57103 -1.02144,-3.19472996 -2.4886,-3.68925996 0.020444,-0.009998 0.036112,-0.031337 0.033575,-0.062674 2.19329,0.260097 3.5782401,2.15150996 3.5383901,3.71581996 z M 9.1059269,3.879814 c -0.296358,-0.258157 -1.46612,-0.287853 -1.90156,0 0.103561,-2.10346 -0.429764,-2.98805996 -1.14246,-3.55002996 0.020593,-0.0101472 0.567945,-0.0461101 0.565558,-0.0772979 1.41509,0.379177 2.51815,2.06301996 2.47846,3.62732996 z M 5.6054369,-6.46e-6 c 0.610026,0 1.1047,0.0568542 1.1047,0.126989 0,0.0701351 -0.494677,0.127288 -1.1047,0.127288 -0.609877,0 -1.1047,-0.0571527 -1.1047,-0.127288 0,-0.0701351 0.494826,-0.126989 1.1047,-0.126989 z"
   id="path23587"
   style="fill:#000000;fill-opacity:1" />
 </g>
</svg>