<?xml version="1.0" encoding="UTF-8" standalone="no"?>
<!-- Created with Inkscape (http://www.inkscape.org/) -->

<svg
   xmlns:dc="http://purl.org/dc/elements/1.1/"
   xmlns:cc="http://creativecommons.org/ns#"
   xmlns:rdf="http://www.w3.org/1999/02/22-rdf-syntax-ns#"
   xmlns:svg="http://www.w3.org/2000/svg"
   xmlns="http://www.w3.org/2000/svg"
   version="1.1"
   width="100"
   height="100"
   viewBox="0 0 100 100"
   id="Livello_2"
   xml:space="preserve"><metadata
   id="metadata25856"><rdf:RDF><cc:Work
       rdf:about=""><dc:format>image/svg+xml</dc:format><dc:type
         rdf:resource="http://purl.org/dc/dcmitype/StillImage" /><dc:title></dc:title></cc:Work></rdf:RDF></metadata><defs
   id="defs25854" />
<path
   d="m 52.14,56.521 c 0,0 -1.672,-5.586 -4.317,0.57 -4.457,10.374 -10.167,9.025 -16.155,10.603 -5.991,1.574 -8.078,7.018 -8.078,7.018 -7.256,-9.211 -2.589,-3.044 -4.457,1.72 C 18.284,78.596 13.978,83.161 7.294,78.15 0.608,73.136 2.208,65.191 3.951,63.54 6.982,60.669 8.267,58.67 8.267,58.67 12.005,51.502 3.672,55.661 3.672,55.661 c 1.533,-10.885 7.659,-9.309 7.659,-9.309 0,0 -11.559,-4.297 -9.609,-17.332 1.95,-13.035 17.966,-10.314 17.966,-10.314 -7.381,4.157 -1.949,9.741 -1.949,9.741 4.039,-4.581 11.7,-1.003 11.7,-1.003 -12.117,1.864 2.229,7.162 2.229,7.162 l 7.799,3.582 -6.408,-11.316 9.611,9.167 -2.368,-16.759 5.85,15.041 3.62,-19.195 h 0.336 l 3.622,19.195 5.849,-15.041 -2.366,16.757 9.61,-9.167 -6.408,11.316 7.801,-3.582 c 0,0 14.344,-5.298 2.229,-7.162 0,0 7.658,-3.578 11.697,1.003 0,0 5.433,-5.584 -1.949,-9.741 0,0 16.016,-2.72 17.968,10.314 1.949,13.036 -9.611,17.331 -9.611,17.331 0,0 6.128,-1.576 7.659,9.309 0,0 -8.518,-4.492 -4.596,3.009 0,0 1.056,1.832 4.316,4.87 1.23,1.146 3.345,9.597 -3.341,14.61 C 85.9,83.16 81.493,79.138 80.75,76.431 79.167,70.667 82.5,68 76.292,74.711 c 0,0 -2.09,-5.443 -8.077,-7.018 C 62.224,66.116 57.293,66.546 52.14,56.521 M 41.416,51.937 c -0.021,-0.111 -5.621,-4.162 -9.61,-3.438 -4.736,0.86 -7.745,6.053 0.279,6.446 0,-10e-4 10.02,0.64 9.331,-3.008 z m 26.919,3.007 c 8.658,0.064 5.014,-5.586 0.278,-6.446 -3.99,-0.724 -9.588,3.328 -9.609,3.438 -0.68,3.65 9.331,3.008 9.331,3.008 z"
   id="path25850"
   style="fill:#000000;fill-opacity:1" />
</svg>