<?xml version="1.0" encoding="UTF-8" standalone="no"?>
<!-- Created with Inkscape (http://www.inkscape.org/) -->

<svg
   xmlns:dc="http://purl.org/dc/elements/1.1/"
   xmlns:cc="http://creativecommons.org/ns#"
   xmlns:rdf="http://www.w3.org/1999/02/22-rdf-syntax-ns#"
   xmlns:svg="http://www.w3.org/2000/svg"
   xmlns="http://www.w3.org/2000/svg"
   version="1.0"
   width="100"
   height="100"
   viewBox="0 0 100 100"
   id="Layer_1"
   xml:space="preserve"><metadata
   id="metadata15054"><rdf:RDF><cc:Work
       rdf:about=""><dc:format>image/svg+xml</dc:format><dc:type
         rdf:resource="http://purl.org/dc/dcmitype/StillImage" /><dc:title></dc:title></cc:Work></rdf:RDF></metadata><defs
   id="defs15052" />
<path
   d="m 100,53.561137 c 0,-9.142 -15.332,-18.619 -28.749,-23.267 -3.632,-3.661 -9.089,-7.459 -10.42,-6.72 -0.937,0.521 0.405,2.413 1.405,4.294 -1.832,-0.328 -3.516,-0.503 -4.977,-0.503 -29.213,0 -40.689,16.579 -43.597,16.655 -2.761,0.072 -9.225,-17.47 -13.558,-14.742 -1.026,0.646 5.888,8.992 5.888,18.037 0,1.332 1.404,2.262 2.075,2.408 -0.67,0.146 -2.075,1.076 -2.075,2.409 0,9.045 -6.914,17.392 -5.888,18.037 4.333,2.727 10.796,-14.815 13.559,-14.743 0.126,0.002 0.271,0.039 0.43,0.103 4.858,3.978 22.921,16.004 45.017,16.828 0.361,0.013 0.81,-10e-4 1.328,-0.039 -1.664,1.771 -3.916,3.358 -3.73,3.769 0.809,1.798998 9.881,-2.416 13.658,-5.438 8.32,-1.807 18.763,-4.741 24.328,-7.332 2.584,-1.203 -0.553,-3.219 -0.145,-5.883 0.25,-1.631 5.451,-1.416 5.451,-3.873 z m -19.605,-7.102 c -1.367,0 -2.476,-1.108 -2.476,-2.475 0,-1.367 1.108,-2.475 2.476,-2.475 1.368,0 2.475,1.108 2.475,2.475 -0.001,1.367 -1.108,2.475 -2.475,2.475 z"
   id="path15048"
   style="fill:#000000;fill-opacity:1" />
</svg>