<?xml version="1.0" encoding="UTF-8" standalone="no"?>
<!-- Created with Inkscape (http://www.inkscape.org/) -->

<svg
   xmlns:dc="http://purl.org/dc/elements/1.1/"
   xmlns:cc="http://creativecommons.org/ns#"
   xmlns:rdf="http://www.w3.org/1999/02/22-rdf-syntax-ns#"
   xmlns:svg="http://www.w3.org/2000/svg"
   xmlns="http://www.w3.org/2000/svg"
   version="1.1"
   width="100"
   height="100"
   viewBox="0 0 100 100"
   id="Layer_1"
   xml:space="preserve"><metadata
   id="metadata12108"><rdf:RDF><cc:Work
       rdf:about=""><dc:format>image/svg+xml</dc:format><dc:type
         rdf:resource="http://purl.org/dc/dcmitype/StillImage" /><dc:title></dc:title></cc:Work></rdf:RDF></metadata><defs
   id="defs12106" />

<g
   transform="translate(0,28)"
   id="g12110"
   style="fill:#000000;fill-opacity:1"><path
     d="m 100,20 c 0,-2.209 -1.791,-4 -4,-4 -1.104,0 -2.104,0.448 -2.828,1.171 L 84.344,26 H 15.656 L 6.828,17.171 C 6.104,16.448 5.104,16 4,16 c -2.209,0 -4,1.791 -4,4 0,1.104 0.447,2.104 1.172,2.829 L 14,35.657 V 53 c 0,10.493 8.506,19 19,19 H 67 C 77.494,72 86,63.493 86,53 V 35.657 L 98.828,22.829 C 99.553,22.104 100,21.104 100,20 z"
     id="path12100"
     style="fill:#000000;fill-opacity:1" /><path
     d="M 54,11.2 V 4 C 54,1.792 52.208,0 50,0 47.791,0 46,1.792 46,4 v 7.2 C 30.434,12.668 16,22 16,22 H 50 84 C 84,22 69.566,12.668 54,11.2 z"
     id="path12102"
     style="fill:#000000;fill-opacity:1" /></g>
</svg>