<?xml version="1.0" encoding="UTF-8" standalone="no"?>
<!-- Created with Inkscape (http://www.inkscape.org/) -->

<svg
   xmlns:dc="http://purl.org/dc/elements/1.1/"
   xmlns:cc="http://creativecommons.org/ns#"
   xmlns:rdf="http://www.w3.org/1999/02/22-rdf-syntax-ns#"
   xmlns:svg="http://www.w3.org/2000/svg"
   xmlns="http://www.w3.org/2000/svg"
   version="1.1"
   width="100"
   height="100"
   viewBox="0 0 100 100"
   id="Layer_1"
   xml:space="preserve"><metadata
   id="metadata19899"><rdf:RDF><cc:Work
       rdf:about=""><dc:format>image/svg+xml</dc:format><dc:type
         rdf:resource="http://purl.org/dc/dcmitype/StillImage" /><dc:title></dc:title></cc:Work></rdf:RDF></metadata><defs
   id="defs19897" />

















<g
   id="g19901"
   style="fill:#000000;fill-opacity:1"><path
     d="M 50,89.836 C 26.611,89.836 7.582,70.809 7.582,47.419 7.582,24.029 26.611,5 50,5 73.389,5 92.418,24.029 92.418,47.419 92.418,70.809 73.389,89.836 50,89.836 z M 50,9.912 C 29.319,9.912 12.494,26.738 12.494,47.42 12.494,68.101 29.32,84.925 50,84.925 70.68,84.925 87.507,68.101 87.507,47.42 87.507,26.737 70.681,9.912 50,9.912 z"
     id="path19859"
     style="fill:#000000;fill-opacity:1" /><path
     d="m 50.001,49.875 c -0.141,0 -0.283,-0.011 -0.427,-0.037 -1.173,-0.206 -2.03,-1.226 -2.03,-2.419 V 29.442 c 0,-1.355 1.1,-2.456 2.456,-2.456 1.355,0 2.456,1.1 2.456,2.456 v 4.003 l 5.431,-14.974 c 0.464,-1.274 1.872,-1.937 3.146,-1.471 1.274,0.462 1.934,1.871 1.471,3.146 l -10.195,28.11 c -0.357,0.985 -1.29,1.619 -2.308,1.619 z"
     id="path19861"
     style="fill:#000000;fill-opacity:1" /><circle
     cx="49.999001"
     cy="12.956"
     r="1.617"
     id="circle19863"
     style="fill:#000000;fill-opacity:1" /><path
     d="m 50,14.778 c -1.006,0 -1.823,-0.817 -1.823,-1.823 0,-1.005 0.817,-1.823 1.823,-1.823 1.004,0 1.821,0.817 1.821,1.823 0,1.006 -0.817,1.823 -1.821,1.823 z m 0,-3.236 c -0.779,0 -1.414,0.635 -1.414,1.413 0,0.779 0.635,1.414 1.414,1.414 0.779,0 1.412,-0.635 1.412,-1.414 0,-0.778 -0.633,-1.413 -1.412,-1.413 z"
     id="path19865"
     style="fill:#000000;fill-opacity:1" /><circle
     cx="34.342999"
     cy="20.301001"
     r="1.47"
     id="circle19867"
     style="fill:#000000;fill-opacity:1" /><path
     d="m 23.617,30.488 c 0.703,0.409 0.945,1.305 0.537,2.008 -0.405,0.704 -1.305,0.947 -2.007,0.538 -0.703,-0.403 -0.945,-1.305 -0.539,-2.008 0.408,-0.701 1.305,-0.941 2.009,-0.538 z"
     id="path19869"
     style="fill:#000000;fill-opacity:1" /><circle
     cx="15.536"
     cy="47.419998"
     r="1.618"
     id="circle19871"
     style="fill:#000000;fill-opacity:1" /><path
     d="m 15.536,49.242 c -1.006,0 -1.823,-0.817 -1.823,-1.823 0.001,-1 0.819,-1.819 1.823,-1.822 1.006,0 1.823,0.817 1.823,1.822 0,1.006 -0.817,1.823 -1.823,1.823 z m 0,-3.236 c -0.777,0.003 -1.412,0.636 -1.414,1.413 0,0.779 0.635,1.414 1.414,1.414 0.779,0 1.413,-0.635 1.413,-1.414 0,-0.778 -0.634,-1.413 -1.413,-1.413 z"
     id="path19873"
     style="fill:#000000;fill-opacity:1" /><path
     d="m 22.147,61.803 c 0.705,-0.406 1.602,-0.167 2.007,0.537 0.408,0.703 0.166,1.602 -0.537,2.008 -0.704,0.406 -1.604,0.163 -2.008,-0.537 -0.407,-0.707 -0.162,-1.602 0.538,-2.008 z"
     id="path19875"
     style="fill:#000000;fill-opacity:1" /><path
     d="m 33.07,73.803 c 0.408,-0.706 1.305,-0.946 2.008,-0.537 0.704,0.403 0.945,1.302 0.538,2.005 -0.405,0.704 -1.307,0.947 -2.007,0.537 -0.705,-0.406 -0.942,-1.301 -0.539,-2.005 z"
     id="path19877"
     style="fill:#000000;fill-opacity:1" /><path
     d="m 48.382,81.884 c 0,-0.896 0.725,-1.618 1.618,-1.618 0.892,-0.003 1.618,0.723 1.618,1.618 0,0.892 -0.728,1.618 -1.618,1.618 -0.896,-0.004 -1.615,-0.727 -1.618,-1.618 z"
     id="path19879"
     style="fill:#000000;fill-opacity:1" /><path
     d="m 50,83.706 0,0 c -1.002,-0.003 -1.819,-0.82 -1.823,-1.822 0,-1.006 0.817,-1.823 1.823,-1.823 1.007,0 1.822,0.817 1.822,1.823 0,1.005 -0.816,1.822 -1.822,1.822 z m 0.006,-3.236 c -0.785,0 -1.42,0.635 -1.42,1.414 0.003,0.775 0.637,1.41 1.414,1.413 0.78,0 1.413,-0.635 1.413,-1.413 0,-0.78 -0.631,-1.414 -1.407,-1.414 z"
     id="path19881"
     style="fill:#000000;fill-opacity:1" /><path
     d="m 64.385,75.271 c -0.408,-0.703 -0.167,-1.602 0.537,-2.005 0.702,-0.409 1.601,-0.169 2.008,0.537 0.406,0.7 0.163,1.603 -0.539,2.005 -0.705,0.406 -1.6,0.163 -2.006,-0.537 z"
     id="path19883"
     style="fill:#000000;fill-opacity:1" /><path
     d="m 76.384,64.348 c -0.704,-0.406 -0.945,-1.305 -0.537,-2.008 0.402,-0.704 1.301,-0.943 2.006,-0.537 0.704,0.402 0.945,1.308 0.539,2.008 -0.412,0.7 -1.305,0.94 -2.008,0.537 z"
     id="path19885"
     style="fill:#000000;fill-opacity:1" /><path
     d="m 84.464,49.038 c -0.896,-0.003 -1.618,-0.726 -1.618,-1.618 -0.001,-0.892 0.723,-1.618 1.618,-1.618 0.893,-0.003 1.618,0.726 1.618,1.618 -0.005,0.895 -0.726,1.614 -1.618,1.618 z"
     id="path19887"
     style="fill:#000000;fill-opacity:1" /><path
     d="m 84.464,49.242 0,0 c -1.006,-0.003 -1.822,-0.822 -1.822,-1.823 -0.002,-0.486 0.188,-0.943 0.532,-1.287 0.344,-0.345 0.803,-0.535 1.29,-0.535 1.007,0 1.822,0.817 1.822,1.822 -0.004,1.003 -0.823,1.82 -1.822,1.823 z m 0.007,-3.236 c -0.386,0 -0.74,0.147 -1.008,0.416 -0.267,0.267 -0.412,0.621 -0.412,0.998 0,0.777 0.635,1.41 1.413,1.414 0.775,-0.003 1.408,-0.638 1.413,-1.415 0,-0.778 -0.631,-1.413 -1.406,-1.413 z"
     id="path19889"
     style="fill:#000000;fill-opacity:1" /><path
     d="m 77.853,33.034 c -0.705,0.409 -1.604,0.166 -2.006,-0.538 -0.408,-0.7 -0.168,-1.599 0.537,-2.008 0.701,-0.406 1.604,-0.163 2.008,0.537 0.403,0.707 0.161,1.602 -0.539,2.009 z"
     id="path19891"
     style="fill:#000000;fill-opacity:1" /><path
     d="m 66.93,21.036 c -0.407,0.704 -1.308,0.943 -2.008,0.537 -0.704,-0.403 -0.945,-1.305 -0.537,-2.008 0.404,-0.703 1.306,-0.943 2.006,-0.537 0.704,0.409 0.942,1.305 0.539,2.008 z"
     id="path19893"
     style="fill:#000000;fill-opacity:1" /></g>
</svg>